<?xml version="1.0" encoding="UTF-8"?><svg id="a" xmlns="http://www.w3.org/2000/svg" width="67.22" height="42" viewBox="0 0 67.22 42"><defs><style>.b{fill:#191972;}</style></defs><path class="b" d="M41.67,1.06c2.31,.24,4.59,.7,6.82,1.36,3.79,1.12,7.4,2.86,10.45,5.38,3.59,2.97,6.15,6.61,6.73,11.34,.85,6.97-1.86,12.24-7.88,15.83-4.43,2.65-9.33,3.95-14.35,4.89-6.42,1.2-12.92,1.44-19.42,1.15-5.36-.24-10.59-1.35-15.48-3.67-2.02-.96-3.81-2.25-5.29-3.94-2.28-2.61-2.45-5.9-.56-9.22,2.78-4.89,6.28-9.22,10.44-13C18.91,5.94,25.55,2.37,33.37,1.22c2.75-.41,5.54-.44,8.31-.15Zm-4.45,29.63c4.87,0,8.72-3.87,8.71-8.77,0-4.77-3.95-8.79-8.73-8.69-5.32,.12-8.7,3.98-8.77,8.75-.07,4.85,3.92,8.7,8.79,8.7Zm-9.94-.43l-5.17-16.48h-4.95l-5.14,16.48h5.05l2.54-9.46,2.59,9.46h5.07Zm28.44,0V13.81h-6.44V30.27h6.44Z"/><path class="b" d="M40.84,21.96c.02,2.13-1.57,3.79-3.63,3.81-1.97,.02-3.71-1.74-3.71-3.77,0-1.96,1.69-3.67,3.68-3.7,2.01-.03,3.65,1.61,3.67,3.66Z"/></svg>