<?xml version="1.0" encoding="UTF-8"?>
<svg xmlns="http://www.w3.org/2000/svg" version="1.1" viewBox="0 0 67.2 42">
  <defs>
    <style>
      .cls-1 {
        fill: #62401e;
      }
    </style>
  </defs>
  <!-- Generator: Adobe Illustrator 28.6.0, SVG Export Plug-In . SVG Version: 1.2.0 Build 709)  -->
  <g>
    <g id="a">
      <path class="cls-1" d="M41.7,1.1c2.3.2,4.6.7,6.8,1.4,3.8,1.1,7.4,2.9,10.5,5.4,3.6,3,6.1,6.6,6.7,11.3.8,7-1.9,12.2-7.9,15.8-4.4,2.7-9.3,4-14.4,4.9-6.4,1.2-12.9,1.4-19.4,1.2-5.4-.2-10.6-1.3-15.5-3.7-2-1-3.8-2.2-5.3-3.9-2.3-2.6-2.5-5.9-.6-9.2,2.8-4.9,6.3-9.2,10.4-13C18.9,5.9,25.5,2.4,33.4,1.2c2.8-.4,5.5-.4,8.3-.1h0ZM37.2,30.7c4.9,0,8.7-3.9,8.7-8.8,0-4.8-4-8.8-8.7-8.7-5.3.1-8.7,4-8.8,8.8,0,4.9,3.9,8.7,8.8,8.7h0ZM27.3,30.3l-5.2-16.5h-4.9l-5.1,16.5h5l2.5-9.5,2.6,9.5h5.1ZM55.7,30.3V13.8h-6.4v16.5h6.4Z"/>
      <path class="cls-1" d="M40.8,22c0,2.1-1.6,3.8-3.6,3.8-2,0-3.7-1.7-3.7-3.8s1.7-3.7,3.7-3.7c2,0,3.7,1.6,3.7,3.7h0Z"/>
    </g>
  </g>
</svg>