<?xml version="1.0" encoding="UTF-8"?>
<svg xmlns="http://www.w3.org/2000/svg" version="1.1" viewBox="0 0 42 42.2">
  <defs>
    <style>
      .cls-1 {
        fill: none;
        stroke: #62401e;
        stroke-width: 2px;
      }

      .cls-2 {
        fill: #62401e;
      }
    </style>
  </defs>
  <!-- Generator: Adobe Illustrator 28.6.0, SVG Export Plug-In . SVG Version: 1.2.0 Build 709)  -->
  <g>
    <g id="a">
      <path class="cls-1" d="M1,3.9c0-1.6,1.3-2.9,3-2.9h34.1c1.6,0,2.9,1.3,3,2.9v34.5c0,1.6-1.3,2.9-3,2.9H4c-1.6,0-2.9-1.3-3-2.9h0V3.9Z"/>
      <g>
        <path class="cls-2" d="M13.4,32H3.8V10.9h10.2c2.6,0,4.4.8,5.5,2.2.6.9,1,2,1,3.2s-.3,2.3-1,3.1c-.4.4-.9.8-1.6,1.2,1.1.4,1.9,1,2.4,1.9s.8,1.9.8,3.1-.3,2.4-1,3.4c-.4.7-.9,1.2-1.5,1.7-.7.5-1.5.9-2.4,1.1s-1.9.3-3,.3h0ZM15.5,18.7c.6-.3.9-1,.9-1.9s-.4-1.6-1.1-1.9c-.7-.2-1.5-.3-2.5-.3h-4.6v4.7h5.2c.9,0,1.7-.2,2.3-.5ZM13.3,22.8h-5.3v5.6h5.2c.9,0,1.6-.1,2.2-.4.9-.5,1.4-1.3,1.4-2.6s-.5-1.9-1.4-2.3c-.5-.2-1.2-.4-2.1-.4Z"/>
        <path class="cls-2" d="M38,27.5c-.1.9-.6,1.9-1.5,2.8-1.3,1.5-3.2,2.3-5.6,2.3s-3.7-.6-5.3-1.9-2.3-3.4-2.3-6.2.7-4.8,2.1-6.2,3.1-2.2,5.3-2.2,2.5.2,3.5.7,1.9,1.3,2.6,2.3c.6.9,1,2,1.2,3.2.1.7.2,1.8.1,3.1h-10.7c0,1.6.5,2.7,1.5,3.3.6.4,1.2.6,2,.6s1.5-.2,2.1-.7c.3-.3.5-.6.8-1.1h4.2,0ZM25.4,12h10.2v2.2h-10.2v-2.2ZM33.9,22.7c0-1.1-.4-1.9-1-2.5s-1.3-.8-2.2-.8-1.7.3-2.2.9-.9,1.4-1,2.4h6.3,0Z"/>
      </g>
    </g>
  </g>
</svg>