<svg xmlns="http://www.w3.org/2000/svg" width="43" height="43" viewBox="0 0 43 43"><defs><style>.a{fill:#191972;}</style></defs><path class="a" d="M25.579,7.953c5.741,0,6.421.022,8.688.125a11.9,11.9,0,0,1,3.992.74,7.12,7.12,0,0,1,4.08,4.08,11.9,11.9,0,0,1,.74,3.992c.1,2.267.125,2.947.125,8.688S43.183,32,43.08,34.267a11.9,11.9,0,0,1-.74,3.992,7.12,7.12,0,0,1-4.08,4.08,11.894,11.894,0,0,1-3.992.74c-2.267.1-2.947.125-8.688.125s-6.421-.022-8.688-.125a11.9,11.9,0,0,1-3.992-.74,7.12,7.12,0,0,1-4.08-4.08,11.9,11.9,0,0,1-.74-3.992c-.1-2.267-.125-2.947-.125-8.688s.022-6.421.125-8.688a11.9,11.9,0,0,1,.74-3.992A7.121,7.121,0,0,1,12.9,8.818a11.9,11.9,0,0,1,3.992-.74c2.267-.1,2.947-.125,8.688-.125m0-3.874c-5.839,0-6.571.025-8.864.129a15.78,15.78,0,0,0-5.219,1A11,11,0,0,0,5.207,11.5a15.784,15.784,0,0,0-1,5.219c-.105,2.293-.13,3.025-.13,8.864s.025,6.571.13,8.864a15.78,15.78,0,0,0,1,5.219A10.994,10.994,0,0,0,11.5,45.95a15.781,15.781,0,0,0,5.219,1c2.293.1,3.025.129,8.864.129s6.571-.025,8.864-.129a15.78,15.78,0,0,0,5.219-1,10.994,10.994,0,0,0,6.288-6.288,15.781,15.781,0,0,0,1-5.219c.1-2.293.129-3.025.129-8.864s-.025-6.571-.129-8.864a15.78,15.78,0,0,0-1-5.219,11,11,0,0,0-6.288-6.288,15.784,15.784,0,0,0-5.219-1c-2.293-.105-3.025-.13-8.864-.13h0Z" transform="translate(-4.079 -4.079)"/><path class="a" d="M138.144,126.635a11.509,11.509,0,1,0,11.509,11.509A11.509,11.509,0,0,0,138.144,126.635Zm0,18.98a7.471,7.471,0,1,1,7.471-7.471,7.471,7.471,0,0,1-7.471,7.471Z" transform="translate(-116.645 -116.645)"/><circle class="a" cx="2.464" cy="2.464" r="2.464" transform="translate(30.582 7.489)"/></svg>