<?xml version="1.0" encoding="UTF-8"?>
<svg xmlns="http://www.w3.org/2000/svg" version="1.1" viewBox="0 0 43 43">
  <defs>
    <style>
      .cls-1 {
        fill: #62401e;
      }
    </style>
  </defs>
  <!-- Generator: Adobe Illustrator 28.6.0, SVG Export Plug-In . SVG Version: 1.2.0 Build 709)  -->
  <g>
    <g id="Layer_1">
      <path class="cls-1" d="M21.5,3.9c5.7,0,6.4,0,8.7.1,1.4,0,2.7.3,4,.7,1.9.7,3.4,2.2,4.1,4.1.5,1.3.7,2.6.7,4,0,2.3.1,2.9.1,8.7s0,6.4-.1,8.7c0,1.4-.3,2.7-.7,4-.7,1.9-2.2,3.4-4.1,4.1-1.3.5-2.6.7-4,.7-2.3,0-2.9.1-8.7.1s-6.4,0-8.7-.1c-1.4,0-2.7-.3-4-.7-1.9-.7-3.4-2.2-4.1-4.1-.5-1.3-.7-2.6-.7-4,0-2.3-.1-2.9-.1-8.7s0-6.4.1-8.7c0-1.4.3-2.7.7-4,.7-1.9,2.2-3.4,4.1-4.1,1.3-.5,2.6-.7,4-.7,2.3,0,2.9-.1,8.7-.1M21.5,0C15.7,0,14.9,0,12.6.1c-1.8,0-3.5.4-5.2,1-2.9,1.1-5.2,3.4-6.3,6.3-.6,1.7-1,3.4-1,5.2C0,14.9,0,15.7,0,21.5s0,6.6.1,8.9c0,1.8.4,3.5,1,5.2,1.1,2.9,3.4,5.2,6.3,6.3,1.7.6,3.4,1,5.2,1,2.3,0,3,.1,8.9.1s6.6,0,8.9-.1c1.8,0,3.5-.4,5.2-1,2.9-1.1,5.2-3.4,6.3-6.3.6-1.7,1-3.4,1-5.2,0-2.3.1-3,.1-8.9s0-6.6-.1-8.9c0-1.8-.4-3.5-1-5.2-1.1-2.9-3.4-5.2-6.3-6.3-1.7-.6-3.4-1-5.2-1C28.1,0,27.3,0,21.5,0h0Z"/>
      <path class="cls-1" d="M21.5,10c-6.4,0-11.5,5.2-11.5,11.5s5.2,11.5,11.5,11.5,11.5-5.2,11.5-11.5h0c0-6.4-5.2-11.5-11.5-11.5ZM21.5,29c-4.1,0-7.5-3.3-7.5-7.5s3.3-7.5,7.5-7.5,7.5,3.3,7.5,7.5h0c0,4.1-3.3,7.5-7.5,7.5Z"/>
      <circle class="cls-1" cx="33" cy="10" r="2.5"/>
    </g>
  </g>
</svg>