<svg xmlns="http://www.w3.org/2000/svg" width="42" height="42.254" viewBox="0 0 42 42.254"><defs><style>.a{fill:none;stroke:#191972;stroke-width:2px;}.b{fill:#191972;fill-rule:evenodd;}</style></defs><g transform="translate(1 1)"><path class="a" d="M243.836-99.4a2.921,2.921,0,0,1,2.956-2.884H280.88a2.921,2.921,0,0,1,2.956,2.884v34.487a2.92,2.92,0,0,1-2.956,2.884H246.792a2.92,2.92,0,0,1-2.956-2.884Z" transform="translate(-243.836 102.287)"/><path class="b" d="M261.082-62.549V-80.725H255.04v18.177Zm-3.021-20.659a3.152,3.152,0,0,0,3.418-3.14,3.14,3.14,0,0,0-3.378-3.141,3.152,3.152,0,0,0-3.418,3.141,3.128,3.128,0,0,0,3.339,3.14h.039Z" transform="translate(-248.957 96.245)"/><path class="b" d="M273.136-55.095h6.042V-65.245a4.142,4.142,0,0,1,.2-1.474,3.307,3.307,0,0,1,3.1-2.21c2.186,0,3.061,1.667,3.061,4.11v9.724h6.041V-65.517c0-5.583-2.981-8.181-6.956-8.181a6.018,6.018,0,0,0-5.485,3.063h.04v-2.636h-6.042c.079,1.706,0,18.177,0,18.177Z" transform="translate(-257.668 88.791)"/></g></svg>