<?xml version="1.0" encoding="UTF-8"?>
<svg xmlns="http://www.w3.org/2000/svg" version="1.1" viewBox="0 0 42 42.3">
  <defs>
    <style>
      .cls-1 {
        fill: none;
        stroke: #62401e;
        stroke-width: 2px;
      }

      .cls-2 {
        fill: #62401e;
        fill-rule: evenodd;
      }
    </style>
  </defs>
  <!-- Generator: Adobe Illustrator 28.6.0, SVG Export Plug-In . SVG Version: 1.2.0 Build 709)  -->
  <g>
    <g id="Layer_1">
      <g id="Layer_1-2" data-name="Layer_1">
        <g>
          <path class="cls-1" d="M1,3.9c0-1.6,1.3-2.9,3-2.9h34.1c1.6,0,2.9,1.3,3,2.9v34.5c0,1.6-1.3,2.9-3,2.9H4c-1.6,0-2.9-1.3-3-2.9h0V3.9Z"/>
          <path class="cls-2" d="M13.1,34.7v-18.2h-6v18.2h6ZM10.1,14c1.7.1,3.3-1.1,3.4-2.9v-.3c0-1.7-1.4-3.1-3.1-3.2h-.2c-1.7,0-3.3,1.1-3.4,2.9v.3c0,1.7,1.4,3.1,3.1,3.1h.2Z"/>
          <path class="cls-2" d="M16.5,34.7h6v-10.2c0-.5,0-1,.2-1.5.5-1.3,1.7-2.2,3.1-2.2,2.2,0,3.1,1.7,3.1,4.1v9.7h6v-10.4c0-5.6-3-8.2-7-8.2s-4.4,1.1-5.5,3.1h0v-2.6h-6v18.2h0Z"/>
        </g>
      </g>
    </g>
  </g>
</svg>