<svg xmlns="http://www.w3.org/2000/svg" width="1410" height="5079" viewBox="0 0 1410 5079"><defs><style>.a{fill:#f94b4b;}.b{font-size:74px;}.ab,.ag,.ah,.b,.c,.d,.f,.t,.w{fill:#fff;}.ab,.ag,.ah,.b,.c,.d,.f,.k,.n,.t,.w{font-family:Khula-Light, Khula Light;font-weight:300;}.ag,.c,.k{font-size:49px;}.d{font-size:68px;}.e{letter-spacing:-0.02em;}.f{font-size:46px;}.g{letter-spacing:0.02em;}.h{letter-spacing:0.04em;}.i{letter-spacing:0.06em;}.j{letter-spacing:-0.02em;}.l{letter-spacing:-0.04em;}.m{letter-spacing:-0.02em;}.n{font-size:83px;}.o{letter-spacing:-0.02em;}.p,.r,.s{fill:none;stroke-miterlimit:10;}.p{stroke:#2a1951;}.p,.r{stroke-width:3px;}.q{fill:#2a1951;}.r{stroke:#000;}.s{stroke:#fff;}.ab,.t,.w{font-size:57px;}.u{letter-spacing:-0.02em;}.v{letter-spacing:-0.07em;}.w{letter-spacing:0em;}.x{letter-spacing:0.02em;}.y{letter-spacing:-0.05em;}.z{letter-spacing:0.02em;}.aa{letter-spacing:-0.05em;}.ab{letter-spacing:0.07em;}.ac{letter-spacing:0.05em;}.ad{letter-spacing:0.01em;}.ae{letter-spacing:0.05em;}.af{letter-spacing:0.03em;}.ag{letter-spacing:0.03em;}.ah{font-size:55px;}.ai{letter-spacing:-0.01em;}</style></defs><title>dna</title><rect class="a" x="222" y="1025" width="976" height="1516"/><text class="b" transform="translate(408.36 1163.51)">DNA</text><text class="b" transform="translate(835.44 1160.51)">English</text><text class="c" transform="translate(640.06 1301.6)">Letters</text><text class="d" transform="translate(437.28 1454.62)"><tspan class="e">A</tspan><tspan x="36.75" y="0">G</tspan><tspan class="e" x="5.64" y="81.6">T</tspan><tspan x="37.58" y="81.6">C</tspan></text><text class="f" transform="translate(760.48 1412.31)"><tspan class="g">ABCDEFGHIJKL</tspan><tspan x="298.55" y="0">M</tspan><tspan class="h" x="0" y="55.2">NNOPQRSTUV</tspan><tspan x="297.29" y="55.2">W</tspan><tspan class="i" x="0" y="110.4">XYZabcdefghijk</tspan><tspan x="325.82" y="110.4">l</tspan><tspan x="4.26" y="165.6">mnopqrstuvwxyz</tspan></text><text class="c" transform="translate(593.98 1722.6)">Letter Pairs</text><text class="c" transform="translate(517.66 2089.73)">DNA is made up of <tspan x="-86.65" y="58.8">two complimentary st</tspan><tspan class="j" x="358.4" y="58.8">r</tspan><tspan x="375.25" y="58.8">ands</tspan></text><text class="k" transform="translate(267.33 2654.64)">Read one st<tspan class="j" x="245.22" y="0">r</tspan><tspan x="262.07" y="0">and of DNA, and you kn</tspan><tspan class="j" x="750.99" y="0">o</tspan><tspan x="776.83" y="0">w </tspan><tspan x="0" y="58.8">what the other will sa</tspan><tspan class="l" x="440.67" y="58.8">y</tspan><tspan x="459.79" y="58.8">, just li</tspan><tspan class="m" x="590.44" y="58.8">k</tspan><tspan x="611.62" y="58.8">e h</tspan><tspan class="j" x="676.8" y="58.8">o</tspan><tspan x="702.64" y="58.8">w you </tspan><tspan x="0" y="117.6">kn</tspan><tspan class="j" x="49.02" y="117.6">o</tspan><tspan x="74.86" y="117.6">w what this sentence would be all </tspan><tspan x="0" y="176.4">capitalised. </tspan></text><text class="k" transform="translate(609.67 4832.77)">Stick chip in <tspan x="-91.72" y="58.8">Sequencing Mechine</tspan></text><text class="n" transform="translate(297.71 218.02)">H<tspan class="o" x="55.64" y="0">o</tspan><tspan x="99.41" y="0">w do you </tspan><tspan class="o" x="440.09" y="0">r</tspan><tspan x="468.62" y="0">ead DNA?</tspan></text><text class="n" transform="translate(599.6 921.31)">Basics</text><path class="p" d="M-15,758.25C44.28,705.69,121.9,624.54,224.35,620.5c156.06-6.16,164.3,182,300.2,182,155.17,0,190.67-188,339.76-189,157.2-1,167.34,187.23,282,188,149.08,1,179.51-185,303.24-186"/><path class="p" d="M-15,613.5c63.89,0,161.26,176,313.39,182,156.06,6.15,164.3-182,300.2-182,155.17,0,190.67,188,339.75,189,157.2,1,167.35-187.24,281.95-188,102.5-.69,148.91,87,208.11,142.21"/><line class="p" x1="177.34" y1="627.86" x2="177.34" y2="754.58"/><line class="p" x1="255.79" y1="623" x2="255.79" y2="790"/><line class="p" x1="337.94" y1="792.5" x2="337.94" y2="662"/><line class="p" x1="502.24" y1="800.5" x2="502.24" y2="655"/><line class="p" x1="588.45" y1="790.5" x2="588.45" y2="613.5"/><line class="p" x1="666.54" y1="738.5" x2="666.54" y2="628"/><line class="p" x1="799.4" y1="736" x2="799.4" y2="627.5"/><line class="p" x1="885.61" y1="793" x2="885.61" y2="614"/><line class="p" x1="969.78" y1="651" x2="970.8" y2="799"/><line class="p" x1="1136.11" y1="800.5" x2="1136.11" y2="658.5"/><line class="p" x1="1215.22" y1="786.5" x2="1215.22" y2="614.5"/><line class="p" x1="1285.2" y1="732.5" x2="1285.2" y2="627.5"/><line class="p" x1="1393.72" y1="720.5" x2="1393.72" y2="631"/><line class="p" x1="16.44" y1="729.5" x2="16.44" y2="624"/><text class="n" transform="translate(492.19 3113.31)">Sequencing</text><text class="k" transform="translate(218.33 3209.64)">Sequencing is the p<tspan class="j" x="404.48" y="0">r</tspan><tspan x="421.32" y="0">ocess of determining the </tspan><tspan x="0" y="58.8">sequence of letters which ma</tspan><tspan class="j" x="605.85" y="58.8">k</tspan><tspan x="627.03" y="58.8">e up DNA. This </tspan><tspan x="0" y="117.6">can be done a f</tspan><tspan class="j" x="321.57" y="117.6">e</tspan><tspan x="345.72" y="117.6">w diffe</tspan><tspan class="j" x="481.89" y="117.6">r</tspan><tspan x="498.74" y="117.6">ent ways, but he</tspan><tspan class="j" x="836.18" y="117.6">r</tspan><tspan x="853.03" y="117.6">e is </tspan><tspan x="0" y="176.4">the most common</tspan></text><text class="k" transform="translate(517.72 4117.77)">B<tspan class="j" x="28.64" y="0">r</tspan><tspan x="45.48" y="0">eak up and </tspan><tspan x="-34.83" y="58.8">sepa</tspan><tspan class="j" x="62.87" y="58.8">r</tspan><tspan x="79.72" y="58.8">ate st</tspan><tspan class="j" x="193.99" y="58.8">r</tspan><tspan x="210.84" y="58.8">ands </tspan><tspan x="-16.82" y="117.6">to ma</tspan><tspan class="j" x="102.88" y="117.6">k</tspan><tspan x="124.06" y="117.6">e letters </tspan><tspan x="33.73" y="176.4">accessible</tspan></text><text class="k" transform="translate(387.95 4496.77)">Bind st<tspan class="j" x="142.81" y="0">r</tspan><tspan x="159.66" y="0">ands to a chip</tspan></text><text class="k" transform="translate(827.56 3624.77)">Use enzymes to <tspan x="-26.76" y="58.8">ma</tspan><tspan class="j" x="37.73" y="58.8">k</tspan><tspan x="58.91" y="58.8">e many copies</tspan></text><text class="k" transform="translate(118.85 3869.77)">DNA Sample</text><path class="q" d="M247.5,3766C170,3766,106.81,3703.34,106,3626h0v-3a143.23,143.23,0,0,1,2.47-25h0l.35-1.75v-.05l.25-1.2c13.78-65,71.8-112,138.42-112,78,0,141.5,63.48,141.5,141.5a142.63,142.63,0,0,1-2.12,24.5h0l-.34,1.78v.07l-.22,1.15a139.93,139.93,0,0,1-7.39,25h0l-.84,2,0,.06-.39.92A141.2,141.2,0,0,1,247.5,3766ZM109,3626c.8,75.68,62.62,137,138.49,137a138.22,138.22,0,0,0,126.93-83H138v-3h10.82v-25H138.4v-3H383.83a139.74,139.74,0,0,0,2.17-24.5c0-76.37-62.13-138.5-138.5-138.5-65,0-121.63,45.73-135.35,109H369v3H358.57v25h10v3Zm250.35,51H375.7a137.53,137.53,0,0,0,7.56-25h-23.9Zm-29.42,0h26.42v-25H329.94Zm-29.42,0h26.42v-25H300.52Zm-30.22,0h27.22v-25H270.3Zm-30.21,0H267.3v-25H240.09Zm-29.42,0h26.42v-25H210.67Zm-29.42,0h26.42v-25H181.25Zm-29.43,0h26.43v-25H151.82Zm176.54-54h27.21v-25H328.36Zm-29.42,0h26.42v-25H298.94Zm-29.42,0h26.42v-25H269.52Zm-30.22,0h27.22v-25H239.3Zm-30.21,0H236.3v-25H209.09Zm-29.42,0h26.42v-25H179.67Zm-29.42,0h26.42v-25H150.25Zm-29.43,0h26.43v-25H120.82ZM109,3623h8.81v-25h-6.29A140.34,140.34,0,0,0,109,3623Z"/><path class="q" d="M656.5,3921A142,142,0,0,1,553,3876h0l-.44-.47h0l-2.33-2.52h0a144.11,144.11,0,0,1-10.48-13.43v.17l-2.76-4.35v0l-.23-.35c-1.45-2.3-2.85-4.66-4.16-7h0l-.4-.72,0-.06L531,3845h0a139.67,139.67,0,0,1-15.83-58h0l-.06-1.44v0l-.07-1.52h0c-.05-1.59-.08-3.08-.08-4.5a143.51,143.51,0,0,1,1.48-20.5h0l.48-3a141.14,141.14,0,0,1,5.54-22h0l1.07-3a140.93,140.93,0,0,1,12-25h0l1.91-3a142.58,142.58,0,0,1,9.45-13h0l2.12-2.48,0,0,.41-.48c1.25-1.44,2.53-2.87,3.82-4.24h0l3-3.18v.07a142.52,142.52,0,0,1,21.4-17.65h-.18l4.45-2.76h0l.37-.23a141.55,141.55,0,0,1,148.38,0h0l.36.23,0,0,.26.16v0l1,.68,3.12,1.94h-.18a141.77,141.77,0,0,1,26.22,22.74v-.09l2,2.35h1v1.17l1.57,1.83h0a141.64,141.64,0,0,1,16.38,25h0l.42.82h0L784,3718h0a140.79,140.79,0,0,1,9.29,25h0l.28,1.07v.06L794,3746h0a142.6,142.6,0,0,1,2.65,53h0l-.45,3a141.11,141.11,0,0,1-6.4,25h0l-.75,2a0,0,0,0,1,0,0l-.37,1a142.21,142.21,0,0,1-6.75,15h0l-1.21,2.22h0l-.42.77c-.89,1.6-1.82,3.2-2.77,4.77h0l-.22.36v0l-2.77,4.54v-.19A141.05,141.05,0,0,1,762.7,3873h0l-2.77,3c-1.92,2.06-3.91,4.07-5.94,6h.08l-2.9,2.61h0l-.42.38c-1.16,1-2.33,2.05-3.49,3h0l-.54.45-.06,0-2.4,2v0a141.92,141.92,0,0,1-27.21,16.93h0l-.87.41-.06,0-2.07,1v0c-.94.42-1.88.82-2.83,1.22h.7l-8.23,2.91-.06,0-.18.07A141.11,141.11,0,0,1,656.5,3921Zm-36.76-8a138.44,138.44,0,0,0,73.74,0Zm-62.57-37A138.9,138.9,0,0,0,615,3911.6V3910h10.82v-25H615.4v-3H749.64c2.11-1.92,4.18-3.93,6.2-6Zm130.5,34H703c3.76-1.34,7.49-2.85,11.12-4.51V3885H687.67Zm-29.42,0h26.42v-25H658.25Zm-29.43,0h26.43v-25H628.82Zm88.27-25v19.07a138.64,138.64,0,0,0,27.21-17.46V3885Zm30.27-12h11.31a139.23,139.23,0,0,0,15.9-21.07V3848H747.36Zm-29.42,0h26.42v-25H717.94Zm-29.42,0h26.42v-25H688.52Zm-30.22,0h27.22v-25H658.3Zm-30.21,0H655.3v-25H628.09Zm-29.42,0h26.42v-25H598.67Zm-29.42,0h26.42v-25H569.25Zm-14.92,0h11.92v-25H539.82v6.15A140.43,140.43,0,0,0,554.33,3873Zm-18.23-25,.72,1.25V3848Zm30.15-3H778.56a138.81,138.81,0,0,0,6.94-15H545v-3h10.82v-25H545.4v-3H793.63a139.53,139.53,0,0,0-2.71-53H662v-3h10.82v-25H662.4v-3H779.09a139.13,139.13,0,0,0-16.9-25H550.81a138.82,138.82,0,0,0-9.78,13h80v3H610.57v25h10v3H525.66a138,138,0,0,0-5.67,22H777v3H766.57v25h10v3H518.21a136.77,136.77,0,0,0,16.23,58Zm200.11-18h20.27a137.72,137.72,0,0,0,6.55-25H766.36Zm-29.42,0h26.42v-25H736.94Zm-29.42,0h26.42v-25H707.52Zm-30.22,0h27.22v-25H677.3Zm-30.21,0H674.3v-25H647.09Zm-29.42,0h26.42v-25H617.67Zm-29.42,0h26.42v-25H588.25Zm-29.43,0h26.43v-25H558.82Zm177.54-43h27.21v-25H736.36Zm-29.42,0h26.42v-25H706.94Zm-29.42,0h26.42v-25H677.52Zm-30.22,0h27.22v-25H647.3Zm-30.21,0H644.3v-25H617.09Zm-29.42,0h26.42v-25H587.67Zm-29.42,0h26.42v-25H558.25Zm-29.43,0h26.43v-25H528.82Zm-10.74,0h7.74v-25h-6.31a140.69,140.69,0,0,0-1.51,20.5C518,3780.92,518,3782.4,518.08,3784Zm246-41h26a137.78,137.78,0,0,0-9.52-25H764.09Zm-29.42,0h26.42v-25H734.67Zm-29.42,0h26.42v-25H705.25Zm-29.43,0h26.43v-25H675.82Zm-95.46-12h27.21v-25H580.36Zm-29.42,0h26.42v-25H550.94Zm-24.2,0h21.2v-25H539.1A138,138,0,0,0,526.74,3731Zm207.62-44h25.21A139.34,139.34,0,0,0,734.36,3665Zm-29.42,0h26.42v-24l-1.52-1h-24.9Zm-29.42,0h26.42v-25H675.52Zm-30.22,0h27.22v-25H645.3Zm-30.21,0H642.3v-25H615.09Zm-29.42,0h26.42v-25H585.67Zm-29.42,0h26.42v-24.69A139,139,0,0,0,556.25,3684Zm31.94-28H724.81a138.62,138.62,0,0,0-136.62,0Z"/><path class="p" d="M1075,3958.5H960.5m12-27v27m29,0v-28m30,28v-28m29,29v-29"/><path class="p" d="M1008,4006.5H893.5m12-27v27m29,0v-28m30,28v-28m29,29v-29"/><path class="p" d="M1075,4066.5H960.5m12-27v27m29,0v-28m30,28v-28m29,29v-29"/><path class="q" d="M1014.5,4195c-78,0-141.5-63.48-141.5-141.5a142.36,142.36,0,0,1,2.48-26.5h0l.35-1.75v-.05l.25-1.2c13.78-65,71.8-112,138.42-112,78,0,141.5,63.48,141.5,141.5a140.57,140.57,0,0,1-11,54.79h0l-.12.28s0,0,0,0l-2.87,6.78v-.47A141.49,141.49,0,0,1,1014.5,4195Zm-136-168a139.9,139.9,0,0,0-2.53,26.5c0,76.37,62.13,138.5,138.5,138.5a138.49,138.49,0,0,0,124.61-78H1072.5v-3H1083v-25.5h3V4111h26v-26.5h3V4111h25.53c.56-1.22,1-2.29,1.47-3.32V4084.5h3V4100a137.83,137.83,0,0,0,8-46.51c0-76.37-62.13-138.5-138.5-138.5-65,0-121.63,45.73-135.35,109H959v3H946v26.5h-3V4027H917v26.5h-3V4027H887v26.5h-3V4027Z"/><polygon class="q" points="1022 4127 907.5 4127 907.5 4124 918 4124 918 4098.5 921 4098.5 921 4124 947 4124 947 4097.5 950 4097.5 950 4124 977 4124 977 4097.5 980 4097.5 980 4124 1006 4124 1006 4097.5 1009 4097.5 1009 4124 1022 4124 1022 4127"/><polygon class="q" points="1117 4022.5 1114 4022.5 1114 3996 1088 3996 1088 4022.5 1085 4022.5 1085 3996 1058 3996 1058 4022.5 1055 4022.5 1055 3996 1029 3996 1029 4021.5 1026 4021.5 1026 3996 1015.5 3996 1015.5 3993 1130 3993 1130 3996 1117 3996 1117 4022.5"/><polygon class="q" points="1066 4166.5 1063 4166.5 1063 4140 1037 4140 1037 4166.5 1034 4166.5 1034 4140 1007 4140 1007 4166.5 1004 4166.5 1004 4140 978 4140 978 4165.5 975 4165.5 975 4140 964.5 4140 964.5 4137 1079 4137 1079 4140 1066 4140 1066 4166.5"/><path class="p" d="M1110.25,4592.25v-114.5m0,102.5h27m1-29h-28m28-30h-28m28-29h-29"/><rect class="p" x="904.5" y="4373.5" width="348" height="218" rx="12"/><path class="p" d="M929.25,4425.25v-114.5m0,102.5h27m1-29h-28m28-30h-28m28-29h-29"/><path class="p" d="M1015.25,4405.25v-114.5m0,102.5h27m1-29h-28m28-30h-28m28-29h-29"/><path class="p" d="M1106.25,4320.75v114.5m-27-12h27m0-29h-28m28-30h-28m29-29h-29"/><path class="p" d="M1177.25,4425.25v-114.5m0,102.5h27m1-29h-28m28-30h-28m28-29h-29"/><path class="p" d="M1028.25,4542.25v-114.5m0,102.5h27m1-29h-28m28-30h-28m28-29h-29"/><path class="p" d="M973.25,4452.75v114.5m-27-12h27m0-29h-28m28-30h-28m29-29h-29"/><path class="p" d="M1217.25,4452.75v114.5m-27-12h27m0-29h-28m28-30h-28m29-29h-29"/><path class="r" d="M1016.78,4951.75c35.16-21.41,111.72-87.92,111.72-261.25"/><polygon points="1026.4 4961.65 999.5 4960.5 1013.94 4937.78 1026.4 4961.65"/><line class="s" x1="711.5" y1="1637.5" x2="711.5" y2="1363"/><line class="s" x1="711.5" y1="1997.5" x2="711.5" y2="1788.5"/><line class="s" x1="711.5" y1="2421.5" x2="711.5" y2="2212"/><text class="t" transform="translate(371.59 2300.86)"><tspan class="u">A</tspan><tspan x="30.81" y="0">C</tspan><tspan class="v" x="63.8" y="0">A</tspan><tspan class="u" x="91.95" y="0">T</tspan><tspan x="118.73" y="0">G</tspan><tspan class="v" x="157.14" y="0">A</tspan><tspan x="185.29" y="0">T</tspan></text><text class="w" transform="translate(371.18 2378.86)">T<tspan class="x" x="27.91" y="0">G</tspan><tspan class="y" x="67.46" y="0">T</tspan><tspan x="92.72" y="0">A</tspan><tspan class="z" x="124.67" y="0">C</tspan><tspan class="aa" x="158.8" y="0">T</tspan><tspan class="z" x="184.06" y="0">A</tspan></text><line class="s" x1="387.5" y1="2329" x2="387.5" y2="2315"/><line class="s" x1="421.5" y1="2329" x2="421.5" y2="2315"/><line class="s" x1="451.5" y1="2329" x2="451.5" y2="2315"/><line class="s" x1="478.5" y1="2329" x2="478.5" y2="2315"/><line class="s" x1="513.5" y1="2329" x2="513.5" y2="2315"/><line class="s" x1="543.5" y1="2329" x2="543.5" y2="2315"/><line class="s" x1="571.5" y1="2329" x2="571.5" y2="2315"/><text class="ab" transform="translate(743.75 2294.86)">M<tspan class="ac" x="49.64" y="0">ynamei</tspan><tspan class="ad" x="238.97" y="0">s</tspan><tspan class="ae" x="264.58" y="0">Bob</tspan></text><text class="t" transform="translate(743.65 2385.86)">mYNAME<tspan class="af" x="220.22" y="0">I</tspan><tspan class="z" x="235.07" y="0">S</tspan><tspan x="265.14" y="0">bOB</tspan></text><line class="s" x1="765.5" y1="2332" x2="765.5" y2="2318"/><line class="s" x1="803.5" y1="2332" x2="803.5" y2="2318"/><line class="s" x1="838.5" y1="2332" x2="838.5" y2="2318"/><line class="s" x1="872.5" y1="2332" x2="872.5" y2="2318"/><line class="s" x1="972.5" y1="2332" x2="972.5" y2="2318"/><line class="s" x1="911.5" y1="2332" x2="911.5" y2="2318"/><line class="s" x1="949.5" y1="2332" x2="949.5" y2="2318"/><line class="s" x1="993.5" y1="2332" x2="993.5" y2="2318"/><line class="s" x1="1024.5" y1="2332" x2="1024.5" y2="2318"/><line class="s" x1="1062.5" y1="2332" x2="1062.5" y2="2318"/><line class="s" x1="1096.5" y1="2332" x2="1096.5" y2="2318"/><text class="c" transform="translate(851.78 1853.97)">A B C D</text><text class="ag" transform="translate(854.13 1922.97)">a b c d</text><line class="s" x1="867.5" y1="1881" x2="867.5" y2="1867"/><line class="s" x1="908.5" y1="1881" x2="908.5" y2="1867"/><line class="s" x1="951.5" y1="1881" x2="951.5" y2="1867"/><line class="s" x1="988.5" y1="1880" x2="988.5" y2="1866"/><text class="ah" transform="translate(437.19 1844.27)">A G</text><line class="s" x1="454.5" y1="1873" x2="454.5" y2="1859"/><line class="s" x1="503.5" y1="1873" x2="503.5" y2="1859"/><text class="ah" transform="translate(441.88 1924.38)">T C</text><line class="s" x1="478.5" y1="2192.25" x2="944.75" y2="2192.25"/><line class="s" x1="478.5" y1="2025.25" x2="944.75" y2="2025.25"/><line class="s" x1="478.5" y1="1750.25" x2="944.75" y2="1750.25"/><line class="s" x1="478.5" y1="1666.25" x2="944.75" y2="1666.25"/><line class="s" x1="478.5" y1="1327.25" x2="944.75" y2="1327.25"/><line class="s" x1="478.5" y1="1248.25" x2="944.75" y2="1248.25"/><text class="k" transform="translate(217.33 342.64)">DNA is one of the main building blocks of life, <tspan x="0" y="58.8">acting as an instruction manual for each of our </tspan><tspan x="0" y="117.6">cells. He</tspan><tspan class="j" x="170.66" y="117.6">r</tspan><tspan class="ai" x="187.5" y="117.6">e</tspan><tspan x="212.13" y="117.6">’s h</tspan><tspan class="j" x="285.77" y="117.6">o</tspan><tspan x="311.61" y="117.6">w scientists can </tspan><tspan class="j" x="645.74" y="117.6">r</tspan><tspan x="662.58" y="117.6">ead it and </tspan><tspan x="0" y="176.4">learn f</tspan><tspan class="j" x="131.14" y="176.4">r</tspan><tspan x="147.99" y="176.4">om it.</tspan></text></svg>