<svg xmlns="http://www.w3.org/2000/svg" width="1410" height="3371" viewBox="0 0 1410 3371"><defs><style>.a{font-size:83px;}.a,.c,.f,.h,.n,.o{font-family:Khula-Light, Khula Light;font-weight:300;}.b,.f{fill:#f94b4b;}.c,.f,.h,.n{font-size:49px;}.c,.e,.l{fill:#fff;}.d{letter-spacing:-0.02em;}.e{stroke:#f94b4b;}.e,.g,.m{stroke-miterlimit:10;}.e,.g{stroke-width:3px;}.g,.m{fill:none;}.g{stroke:#000;}.h,.k{fill:#2a1951;}.i{letter-spacing:-0.02em;}.j{letter-spacing:-0.01em;}.m{stroke:#2a1951;stroke-width:2px;}.o{font-size:39px;}.p{letter-spacing:-0.02em;}.q{letter-spacing:-0.02em;}.r{letter-spacing:-0.01em;}.s{letter-spacing:0.02em;}</style></defs><title>dna</title><text class="a" transform="translate(360.17 105.31)">Putting it all together</text><rect class="b" x="244" y="616" width="264" height="65" rx="6"/><text class="c" transform="translate(253.8 662.62)">I<tspan class="d" x="11.49" y="0">W</tspan><tspan x="51.3" y="0">onderWh</tspan></text><rect class="b" x="377" y="546" width="301" height="65" rx="6"/><text class="c" transform="translate(386.8 590.62)">erWhatTheCo</text><rect class="b" x="585" y="617" width="360" height="65" rx="6"/><text class="c" transform="translate(593.8 662.62)">eCompleteSente</text><rect class="b" x="771" y="548" width="378" height="65" rx="6"/><text class="c" transform="translate(780.8 594.62)">teSentenceWillBe</text><rect class="e" x="244" y="855" width="899" height="65" rx="6"/><text class="f" transform="translate(253.8 899.62)">I<tspan class="d" x="11.49" y="0">W</tspan><tspan x="51.3" y="0">onderWhatTheCompleteSentenceWillBe</tspan></text><line class="g" x1="693.5" y1="753.5" x2="693.5" y2="800.21"/><polygon points="681.83 796.79 693.5 817 705.17 796.79 681.83 796.79"/><text class="h" transform="translate(264.8 240.62)">The sequences of all the diffe<tspan class="d" x="604.86" y="0">r</tspan><tspan x="621.71" y="0">ent st</tspan><tspan class="d" x="738.73" y="0">r</tspan><tspan x="755.57" y="0">ands a</tspan><tspan class="d" x="892.49" y="0">r</tspan><tspan x="909.33" y="0">e </tspan><tspan x="0" y="58.8">compa</tspan><tspan class="d" x="140.11" y="58.8">r</tspan><tspan x="156.96" y="58.8">ed to each other to find </tspan><tspan class="d" x="660.15" y="58.8">o</tspan><tspan x="685.99" y="58.8">verlaps, since </tspan><tspan x="0" y="117.6">the</tspan><tspan class="d" x="67.28" y="117.6">r</tspan><tspan x="84.13" y="117.6">e a</tspan><tspan class="d" x="146.55" y="117.6">r</tspan><tspan x="163.4" y="117.6">e many copies of the same DNA. </tspan></text><text class="h" transform="translate(218.8 1057.62)">These <tspan class="d" x="135.45" y="0">o</tspan><tspan x="161.29" y="0">verlaps a</tspan><tspan class="d" x="345.4" y="0">r</tspan><tspan x="362.24" y="0">e used to stitch sequences </tspan><tspan x="0" y="58.8">together, so the original, unb</tspan><tspan class="d" x="595.2" y="58.8">r</tspan><tspan x="612.04" y="58.8">o</tspan><tspan class="d" x="638.79" y="58.8">k</tspan><tspan x="659.98" y="58.8">en DNA </tspan><tspan x="0" y="117.6">sequence can be </tspan><tspan class="d" x="363.8" y="117.6">r</tspan><tspan x="380.65" y="117.6">ead. This p</tspan><tspan class="d" x="603.92" y="117.6">r</tspan><tspan x="620.76" y="117.6">ocess is called </tspan><tspan x="0" y="176.4">sequence alignment.</tspan></text><text class="a" transform="translate(353.94 1450.31)">Why <tspan class="i" x="172.42" y="0">r</tspan><tspan x="200.95" y="0">ead DNA at all?</tspan></text><text class="h" transform="translate(235.8 1567.62)">DNA describes many aspects of what defines <tspan x="0" y="58.8">an o</tspan><tspan class="j" x="91.04" y="58.8">r</tspan><tspan x="108.35" y="58.8">ganism, so when you </tspan><tspan class="d" x="552.39" y="58.8">r</tspan><tspan x="569.24" y="58.8">ead the DNA of </tspan><tspan x="0" y="117.6">two diffe</tspan><tspan class="d" x="178.21" y="117.6">r</tspan><tspan x="195.06" y="117.6">ent things, it all</tspan><tspan class="d" x="506.76" y="117.6">o</tspan><tspan x="532.6" y="117.6">ws you to compa</tspan><tspan class="d" x="883.23" y="117.6">r</tspan><tspan x="900.07" y="117.6">e </tspan><tspan x="0" y="176.4">them in many ways as once, and in ways that </tspan><tspan x="0" y="235.2">would otherwise be difficult to tell. </tspan></text><path class="k" d="M293.33,2080.88c-1.1,2.39-3.32,3.74-5.52,5-5,2.84-10.61,6-16.25,7.31a14.88,14.88,0,0,1-7.89-.24c-2.27-.72-4.37-1.88-6.66-2.53a17.89,17.89,0,0,0-3.73-.67,12.58,12.58,0,0,0-8.7,2.24,10.22,10.22,0,0,0-2,2c-3.08,4.21-3.53,7.68-.22,11l.21,22.74c-6.65-5.2-12.15-7.85-17.91-14.19-6.21-6.83-8.62-15.84-5.35-24.66,4.43-11.94,14.07-18,25-21.85,3-1,6.08-1.94,9.18-2.73l2.8-.68c4-1,4.79-1.12,8.63-2a58.32,58.32,0,0,0,6.12-2.33c9.29-3.49,18.7,5.87,22,14.07A9.47,9.47,0,0,1,293.33,2080.88Z"/><path class="k" d="M276.71,2164.29c-3.15,9.15-9,17-15.67,23.91-2.8,2.93-5.79,5.66-8.81,8.35-2.22,2-4.45,3.94-6.64,5.93s-4.43,4.1-6.51,6.28c-3.48,3.61-6.29,7.82-6.22,13,.07,4.93,2.46,9.61,5.33,13.48,2.29,3.09,2.95,4.26,5.74,6.88l.1,10.47c-1.93-1.21-1.84-.78-3.66-1.82-9.31-5.29-18.59-11.11-22.32-21.73a30,30,0,0,1,3.7-26.34c4.94-7.49,12.05-13.12,18.48-19.25,1.79-1.71,3.52-3.49,5.14-5.36a52.2,52.2,0,0,0,7.14-10.36,37.84,37.84,0,0,0,3.38-9.28,39.9,39.9,0,0,0-.67-21l.24-24.43c-.23,1.5,16.17,9.16,21.67,24.58C280.18,2146.14,279.62,2155.84,276.71,2164.29Z"/><path class="k" d="M260.22,2272.8c-.56-6.22-1.79-11-6.54-14.76l.08-9a28.23,28.23,0,0,1,6.07,8.05c.28.55,5,10.16,5.51,15.73C265.64,2276.09,260.51,2276.06,260.22,2272.8Z"/><path class="k" d="M252.23,2196.55l-.52,52.47-.09,9-.23,22.64a2,2,0,0,1-2,2h-1a2,2,0,0,1-2.05-2l-.24-26.55-.1-10.46-.38-41.19C247.78,2200.49,250,2198.53,252.23,2196.55Z"/><path class="k" d="M253.28,2089.75l-.23,23.27-.24,24.43-.3,30.29a52.2,52.2,0,0,1-7.14,10.36l-.45-49.29-.21-22.75-.13-14.07A12.58,12.58,0,0,1,253.28,2089.75Z"/><path class="k" d="M253.78,2039.12l-.25,25.23c-3.1.79-6.19,1.68-9.18,2.73l-.25-28a2.05,2.05,0,0,1,2.05-2.07h5.58A2,2,0,0,1,253.78,2039.12Z"/><path class="k" d="M310.21,2562.82a27,27,0,0,1-5.4-22.13,29.83,29.83,0,0,1,5.3-11.45c1.35-1.88,2.81-3.68,4.29-5.46,1.29-1.57,2.68-3.2,4.7-3.79l-1.47-.84,1.26,3.95a1.23,1.23,0,0,0,1.48.84,11.19,11.19,0,0,0,3-1.72h-1.7a5.21,5.21,0,0,0,1.74,1.35,1.22,1.22,0,0,0,1.21,0,8.88,8.88,0,0,0,3.36-4.26l-2,.53c5.26,6.38,6.85,15.08,5.86,23.14-1.11,9-5.31,17.35-10,25-.81,1.32,1.26,2.52,2.07,1.21,7.51-12.12,13.56-26.7,9.14-41.06a29.09,29.09,0,0,0-5.33-10c-.64-.77-1.71-.22-2,.53a6.13,6.13,0,0,1-2.26,2.82h1.21a3.41,3.41,0,0,1-1.25-1,1.24,1.24,0,0,0-1.7,0,7.18,7.18,0,0,1-1.94,1.11l1.47.83-1.27-3.94a1.21,1.21,0,0,0-1.47-.84c-3.52,1-5.71,4.3-7.89,7a44.83,44.83,0,0,0-6.33,9.85,29.28,29.28,0,0,0-1.1,19.83,28.63,28.63,0,0,0,5.37,10.12c1,1.2,2.67-.51,1.7-1.69Z"/><path class="k" d="M309.47,2584.51A26.75,26.75,0,0,1,298.83,2598c-5.71,3.75-12.09,4.74-18.81,4.17q-3.27-.28-6.51-.78a9.48,9.48,0,0,1-5.14-1.91v1.7l2.69-3.15a1.22,1.22,0,0,0-.24-1.88,9.87,9.87,0,0,0-2.79-1.49l.84,1.48a5.19,5.19,0,0,0,.25-2.21,1.22,1.22,0,0,0-.59-1,9.09,9.09,0,0,0-5.42-.65l1.48,1.48c4.36-12.85,17.76-19.22,30.34-21a91.06,91.06,0,0,1,12.78-.76,1.2,1.2,0,0,0,0-2.39c-14.36,0-30.17,2.53-40,14.06a28.71,28.71,0,0,0-5.42,9.46c-.32.94.64,1.62,1.47,1.47a6.24,6.24,0,0,1,3.57.41l-.6-1a3.49,3.49,0,0,1-.16,1.57,1.22,1.22,0,0,0,.84,1.47,8.3,8.3,0,0,1,2.21,1.24l-.24-1.88-2.69,3.15a1.22,1.22,0,0,0,0,1.7c2.77,2.49,6.75,2.63,10.27,3.06a42.31,42.31,0,0,0,12.71,0,29.22,29.22,0,0,0,16.63-9.63,28.91,28.91,0,0,0,5.48-9.51c.51-1.46-1.81-2.09-2.3-.64Z"/><path class="k" d="M326,2573.84a26.75,26.75,0,0,1,15.68,7.45c4.78,4.63,7.17,10.5,8.13,17,.32,2.13.53,4.29.72,6.44.17,2,.29,4-.69,5.77l1.64-.43-3.68-1.91a1.22,1.22,0,0,0-1.64.43,11.12,11.12,0,0,0-.92,3.35l1.2-1.2a5.2,5.2,0,0,0-2.21.27,1.2,1.2,0,0,0-.83.83,8.93,8.93,0,0,0,.62,5.42l1-1.8C331.31,2614.09,322,2602,317.52,2590a95.74,95.74,0,0,1-3.38-11.61c-.34-1.5-2.65-.87-2.31.63,3.21,13.92,9.22,28.58,22.51,35.63a28.91,28.91,0,0,0,10.72,3.26c1,.11,1.35-1.06,1-1.8a6.23,6.23,0,0,1-.38-3.57l-.83.84a3.49,3.49,0,0,1,1.57-.19c.69.07,1.13-.6,1.19-1.19a7.26,7.26,0,0,1,.6-2.14l-1.64.43,3.68,1.91a1.22,1.22,0,0,0,1.64-.43c1.87-3.42,1-7.65.57-11.32a41.36,41.36,0,0,0-2.73-11.62,29.35,29.35,0,0,0-13.07-14.08,28.88,28.88,0,0,0-10.68-3.25c-1.53-.16-1.52,2.24,0,2.39Z"/><path class="l" d="M321.85,2575.49c8,15.28,5.68,35.32-5.55,48.4a4.21,4.21,0,0,1-2.24,1.63c-2,.38-3.38-1.94-4.11-3.85-1.61,1.34-4.34,2.56-5.46.78-.39-.62-.4-1.46-.93-2-.84-.83-2.35-.28-3.36-.9s-1.05-1.76-1.09-2.8a62.19,62.19,0,0,1,9.69-35.32c1.9-3,4.16-5.87,7.3-7.47l-7.07,0c-17.23.48-34.24-10.36-41.08-26.19a4.16,4.16,0,0,1-.48-2.72c.54-2,3.22-2.2,5.26-2-.5-2-.4-5,1.69-5.25.73-.08,1.49.28,2.19,0,1.11-.39,1.28-2,2.27-2.63s2.05-.17,3,.25a62.12,62.12,0,0,1,27.51,24.18c1.84,3,3.46,6.31,3.51,9.83l7.84.78c7.14-15.69,24.35-26.21,41.57-25.4a4.22,4.22,0,0,1,2.66.76c1.54,1.36.56,3.86-.51,5.61,2.05.44,4.69,1.85,4,3.82-.25.7-.9,1.23-1,2-.14,1.17,1.22,2,1.36,3.2s-.74,1.91-1.54,2.58a62.07,62.07,0,0,1-33.8,14.09c-3.51.33-7.19.33-10.38-1.16Z"/><path class="k" d="M320.81,2576.09c6.86,13.28,5.87,30-2.13,42.6a29.36,29.36,0,0,1-3.7,4.89c-1.87,1.87-3.21-.54-3.87-2.23a1.22,1.22,0,0,0-2-.53c-.81.65-3,2.17-3.73.74a6.09,6.09,0,0,0-1-1.94,3.57,3.57,0,0,0-2.3-.87c-.87-.08-1.47,0-1.7-1a13.51,13.51,0,0,1-.14-3.05q0-3,.31-6a60.93,60.93,0,0,1,7.53-23.71c2.14-3.8,4.63-7.81,8.59-9.9a1.2,1.2,0,0,0-.6-2.23c-6.62,0-13.13.26-19.56-1.62a44,44,0,0,1-23-16.06,40.62,40.62,0,0,1-4.1-6.93c-.46-1-1.46-2.71-.19-3.49a6.1,6.1,0,0,1,3.51-.4,1.2,1.2,0,0,0,1.15-1.51c-.2-.89-.65-3.38.59-3.74.77-.22,1.64.24,2.46,0a3.4,3.4,0,0,0,1.75-1.53c.43-.67.6-1.39,1.53-1.32a8.81,8.81,0,0,1,2.79,1.15,59.56,59.56,0,0,1,5.32,2.91,60.89,60.89,0,0,1,17.41,16.09c2.78,3.84,5.81,8.28,6,13.17a1.23,1.23,0,0,0,1.19,1.2l7.84.78a1.17,1.17,0,0,0,1-.59,43.59,43.59,0,0,1,34.71-24.67,33.58,33.58,0,0,1,6.18-.13c1.11.11,2,.47,1.89,1.73a7.17,7.17,0,0,1-1.13,2.83,1.2,1.2,0,0,0,.71,1.75c1.12.27,3.86,1.07,3,2.63a4.34,4.34,0,0,0-.87,2.14,4,4,0,0,0,.83,2.19c.56.88.67,1.33-.12,2.13a25.29,25.29,0,0,1-2.67,2.17,61.14,61.14,0,0,1-29.22,11.87,31.21,31.21,0,0,1-7.54.22c-1.87-.23-3.54-1.05-5.37-1.42-1.5-.3-2.14,2-.63,2.31,1.79.36,3.43,1.14,5.26,1.4a29.91,29.91,0,0,0,7.68,0,62.83,62.83,0,0,0,14.07-3.21,62.63,62.63,0,0,0,18.95-10.62c1.58-1.28,3.21-3,2.2-5.11-.22-.46-.54-.85-.8-1.29s-.22-.74.12-1.26a3.52,3.52,0,0,0,.65-2.82c-.54-2.09-3-3.15-4.88-3.59l.72,1.75c.95-1.6,1.87-3.64,1.28-5.53-.66-2.14-2.86-2.58-4.82-2.66a42.86,42.86,0,0,0-12.55,1.44,46.7,46.7,0,0,0-21.59,12.73,43.17,43.17,0,0,0-8.11,11.85l1-.59-7.84-.78,1.2,1.19c-.17-5-2.86-9.45-5.64-13.45a63.27,63.27,0,0,0-9-10.37,64.07,64.07,0,0,0-11-8.19,57.61,57.61,0,0,0-6.06-3.1c-2-.85-3.94-.89-5.21,1.05-.23.34-.39.89-.72,1.15s-1.09.06-1.62,0a3.15,3.15,0,0,0-2.46,1c-1.34,1.51-1.16,3.92-.75,5.74l1.16-1.51c-2.11-.18-4.9,0-6.08,2.08-1.34,2.34.61,5.39,1.71,7.45a44.15,44.15,0,0,0,9.9,12.35,45.88,45.88,0,0,0,28.67,11.43c3.05.08,6.12,0,9.17,0l-.6-2.23c-4,2.09-6.6,5.9-8.83,9.67a63.46,63.46,0,0,0-8.61,27.47,46.62,46.62,0,0,0-.13,7c.14,2,.91,3.66,3,4,.44.07,1.25,0,1.61.22s.44.81.62,1.23a3.17,3.17,0,0,0,2,1.91c2,.57,4.1-.69,5.59-1.89l-2-.52c.66,1.68,1.57,3.55,3.27,4.39,2,1,3.78-.16,5.08-1.64a41.64,41.64,0,0,0,6.77-10.84,47,47,0,0,0,3.38-25.14,43.35,43.35,0,0,0-4.42-13.87C322.17,2573.52,320.11,2574.73,320.81,2576.09Z"/><path class="k" d="M316,2562.56c-1.36-6.82-2.79-14.47,1.28-20.68.85-1.29-1.22-2.49-2.06-1.2-4.44,6.77-3,15.07-1.52,22.52.3,1.51,2.61.87,2.3-.64Z"/><path class="k" d="M320.9,2564.42c1.73-2.89,3.44-5.87,4-9.24.24-1.51-2.06-2.16-2.31-.64-.5,3.19-2.1,5.94-3.73,8.67a1.2,1.2,0,0,0,2.07,1.21Z"/><path class="k" d="M289.09,2587.35c1.78-2.67,4.58-4.33,7.36-5.79,1.54-.81,3.1-1.59,4.65-2.39,1.72-.87,3.5-2,5.46-2.2,1.52-.14,1.54-2.53,0-2.4a16,16,0,0,0-5.84,2.11c-1.83.94-3.66,1.86-5.48,2.81-3.17,1.67-6.2,3.62-8.22,6.65-.86,1.28,1.21,2.48,2.07,1.21Z"/><path class="k" d="M298.56,2589.84a9.38,9.38,0,0,0,4.32-1.25,44.8,44.8,0,0,0,4.1-2.2,1.2,1.2,0,0,0-1.21-2.07c-1.09.66-2.2,1.27-3.34,1.83a8.41,8.41,0,0,1-3.87,1.3c-1.54-.07-1.54,2.33,0,2.39Z"/><path class="k" d="M329.8,2569.75a101.54,101.54,0,0,0,20.2-7.43c1.39-.68.17-2.74-1.2-2.07a99,99,0,0,1-19.64,7.19,1.2,1.2,0,0,0,.64,2.31Z"/><path class="k" d="M323.92,2580a38.77,38.77,0,0,1,8.77,9.17c2.4,3.8,4.46,7.84,6.65,11.76.75,1.35,2.82.14,2.06-1.21-2.25-4-4.36-8.23-6.87-12.12a40.75,40.75,0,0,0-8.92-9.29c-1.19-1-2.89.72-1.69,1.69Z"/><path class="k" d="M310.39,2607.78a50.2,50.2,0,0,0,6.23-20.75c.12-1.53-2.27-1.53-2.39,0a47.37,47.37,0,0,1-5.91,19.54,1.2,1.2,0,0,0,2.07,1.21Z"/><path class="k" d="M280.54,2551.49c3.91,5.08,8.1,10.26,14,13,1.38.65,2.6-1.41,1.2-2.07-5.56-2.6-9.51-7.41-13.18-12.18-.92-1.2-3,0-2.06,1.21Z"/><path class="k" d="M303.24,2563.54a2.24,2.24,0,0,1,2.86-2.54c1.37-2,4.13-2.34,6.54-2.49l2.84-.18a6.54,6.54,0,0,1,2.72.21c.62.23,1.16.64,1.79.84s1.17.2,1.74.37a6.69,6.69,0,0,1,2.46,1.67l.63.58c.46.43.93.86,1.37,1.32a14.87,14.87,0,0,1,2.41,3.38c2.58,5,1.9,11.6-2,15.6a19,19,0,0,1-8.11,4.44c-2,.62-4.68.82-5.67-1-.49.66-1.54.51-2.22.05a14.51,14.51,0,0,0-1.95-1.48,6.3,6.3,0,0,1-1.79-.73c-.55-.48-.65-1.33-1.15-1.86s-1.21-.65-1.8-1a4.77,4.77,0,0,1-1.68-3,35.07,35.07,0,0,1-.76-11.64c.16-1.52.94-3.46,2.46-3.27"/><path class="k" d="M304.4,2563.23c-.16-.78.73-1.28,1.38-1.08a1.23,1.23,0,0,0,1.35-.55c.95-1.26,2.7-1.61,4.17-1.78.84-.1,1.68-.13,2.53-.19a18.38,18.38,0,0,1,3.23-.13,10.74,10.74,0,0,1,2.42,1c1,.37,2,.33,3,1a19.93,19.93,0,0,1,3.88,3.85c4.14,5.51,3.31,13.88-2.6,17.77a21.14,21.14,0,0,1-5.57,2.5c-1.28.37-3.48.91-4.33-.48a1.2,1.2,0,0,0-1.88-.24c-.46.47-2-1.22-2.41-1.46-.87-.51-1.75-.43-2.26-1.38a4,4,0,0,0-2-2,3.26,3.26,0,0,1-1.87-2.56,32.26,32.26,0,0,1-.94-7.89c0-1-.29-5.75,1.44-5.68,1.54.07,1.53-2.33,0-2.39-3-.12-3.62,3.52-3.77,5.81a34,34,0,0,0,1.05,11.14,5.26,5.26,0,0,0,2.4,3.41c.68.37,1.18.51,1.56,1.24a3.56,3.56,0,0,0,1.21,1.58c.61.4,1.35.44,2,.8s1.05.94,1.65,1.32a2.91,2.91,0,0,0,3.67-.24l-1.88-.24c2.25,3.69,7.58,1.59,10.6.23a14.56,14.56,0,0,0,8.33-9,15.48,15.48,0,0,0-1.25-11.79,21.48,21.48,0,0,0-4.68-5.42,7.63,7.63,0,0,0-2.54-1.65c-.55-.19-1.14-.21-1.7-.37s-1.22-.6-1.86-.85a9.27,9.27,0,0,0-3.89-.26c-1.32.08-2.65.14-4,.3a8,8,0,0,0-5.74,2.91l1.36-.55a3.47,3.47,0,0,0-4.33,4c.29,1.51,2.6.87,2.31-.63Z"/><path class="l" d="M308.37,2568v.22a1.21,1.21,0,0,0,.35.84,1.24,1.24,0,0,0,.85.36,1.21,1.21,0,0,0,1.19-1.2V2568a1.21,1.21,0,0,0-.35-.84,1.2,1.2,0,0,0-1.69,0,1.21,1.21,0,0,0-.35.84Z"/><path class="l" d="M315.12,2564.84l-.21.21a1.23,1.23,0,0,0-.35.85,1.25,1.25,0,0,0,.35.85,1.22,1.22,0,0,0,.84.35,1.28,1.28,0,0,0,.85-.35l.22-.22a1.25,1.25,0,0,0,.35-.84,1.21,1.21,0,0,0-.35-.85,1.19,1.19,0,0,0-.85-.35,1.23,1.23,0,0,0-.85.35Z"/><path class="l" d="M311.64,2571.38v.43a1.25,1.25,0,0,0,.35.84,1.21,1.21,0,0,0,1.7,0,1.25,1.25,0,0,0,.35-.84v-.43a1.28,1.28,0,0,0-.35-.85,1.23,1.23,0,0,0-.85-.35,1.2,1.2,0,0,0-1.2,1.2Z"/><path class="k" d="M193,2555.91a25,25,0,0,1-4.63-21.27,27.5,27.5,0,0,1,4.6-9.33c2-2.83,4.73-7.08,8.08-8.38l-1.84-1,1.17,3.65a1.53,1.53,0,0,0,2.2.9,7.15,7.15,0,0,0,2.29-1.31l-1.82-.23a6.14,6.14,0,0,0,1.69,1.31,1.54,1.54,0,0,0,1.82-.23,9.86,9.86,0,0,0,2.84-3.58l-2.36.3c10.62,13.59,4,31-3.93,44.06-1,1.65,1.59,3.16,2.59,1.51,8.81-14.4,15-32.93,3.46-47.69a1.5,1.5,0,0,0-2.35.3,5.81,5.81,0,0,1-2.37,3l1.82-.24-1.09-.84a1.51,1.51,0,0,0-1.81-.24,7.37,7.37,0,0,1-2.29,1.31l2.2.89-1.17-3.65a1.51,1.51,0,0,0-1.85-1c-6.94,2.7-13,12.87-14.77,19.8a28.08,28.08,0,0,0,5.39,24.19c1.19,1.52,3.3-.62,2.13-2.12Z"/><path class="k" d="M191.61,2576.15a24.88,24.88,0,0,1-15.2,15c-5.93,2-17.26,2.43-22.48-1.52l.3,2.35,2.49-2.91a1.54,1.54,0,0,0-.3-2.36A1.7,1.7,0,0,1,155,2585a1.52,1.52,0,0,0-1.1-1.45,9.78,9.78,0,0,0-4.56-.54l1.45,1.9c5.95-16.19,24.25-19.79,39.53-19.85a1.5,1.5,0,0,0,0-3c-16.81.07-36,4.49-42.42,22.05a1.51,1.51,0,0,0,1.44,1.9,5.7,5.7,0,0,1,3.76.44L152,2585l-.19,1.75a1.43,1.43,0,0,0,.74,1.29,7.22,7.22,0,0,1,2.31,1.26l-.3-2.35-2.49,2.91a1.54,1.54,0,0,0,.3,2.36c3.38,2.55,8.21,2.68,12.29,3a30.47,30.47,0,0,0,13.85-1.68A28.09,28.09,0,0,0,194.5,2577c.67-1.81-2.23-2.59-2.89-.8Z"/><path class="k" d="M207.29,2566.78a24.88,24.88,0,0,1,17.63,10.84c3.66,5.54,6.57,16.51,4,22.86l2.2-.9-3.4-1.77a1.54,1.54,0,0,0-2.21.9,7.23,7.23,0,0,0-.7,2.54l1.45-1.1-1.75.21a1.55,1.55,0,0,0-1.5,1.5,9.74,9.74,0,0,0,.51,4.55l1.45-1.9c-17.12-2.16-24.72-19.21-28.23-34.07-.44-1.88-3.34-1.08-2.89.8,3.87,16.42,12.54,33.92,31.12,36.27a1.5,1.5,0,0,0,1.45-1.89,5.77,5.77,0,0,1-.41-3.76l-1.5,1.5,1.75-.21a1.54,1.54,0,0,0,1.44-1.11,7.25,7.25,0,0,1,.71-2.53l-2.21.89,3.41,1.77a1.53,1.53,0,0,0,2.2-.9c1.74-4.21.7-9.17,0-13.55a29.11,29.11,0,0,0-5.05-12.78,28.05,28.05,0,0,0-19.4-11.16c-1.91-.25-1.89,2.76,0,3Z"/><path class="l" d="M203.44,2567.91c7.39,14.14,5.26,32.69-5.13,44.79a3.93,3.93,0,0,1-2.07,1.5c-1.87.36-3.14-1.78-3.8-3.56-1.49,1.25-4,2.37-5.06.73-.36-.58-.37-1.36-.86-1.84-.78-.77-2.18-.26-3.11-.83a3,3,0,0,1-1-2.59,57.58,57.58,0,0,1,9-32.69c1.75-2.74,3.85-5.43,6.75-6.9l-6.54,0c-15.94.45-31.69-9.59-38-24.23a3.94,3.94,0,0,1-.44-2.52c.5-1.83,3-2,4.87-1.86-.47-1.88-.37-4.65,1.56-4.86.68-.07,1.38.26,2,0,1-.36,1.18-1.84,2.1-2.43a3,3,0,0,1,2.78.23,57.5,57.5,0,0,1,25.46,22.37c1.7,2.78,3.19,5.84,3.25,9.1l7.25.72a41.21,41.21,0,0,1,38.47-23.51,4,4,0,0,1,2.46.71c1.42,1.25.51,3.57-.47,5.19,1.89.41,4.34,1.71,3.68,3.54-.23.64-.84,1.13-.92,1.81-.13,1.08,1.13,1.87,1.26,3s-.68,1.77-1.43,2.39a57.54,57.54,0,0,1-31.28,13c-3.24.3-6.65.3-9.6-1.08Z"/><path class="k" d="M202.15,2568.67a39.67,39.67,0,0,1,3.7,23.68,40.12,40.12,0,0,1-3.54,11.51c-1.17,2.39-6,12-8.58,6a1.5,1.5,0,0,0-2-.53c-2.57,1.83-3.7-.36-5.7-1.7-2.41-1.61-2.16-2.2-2.09-5a55.6,55.6,0,0,1,.84-8.15c1.63-9.12,5.75-21.67,14.15-26.71a1.51,1.51,0,0,0-.76-2.79c-7.44,0-14.61.07-21.68-2.76a40.66,40.66,0,0,1-13.21-8.63c-1.35-1.31-12.47-14.51-5.24-14.2a1.52,1.52,0,0,0,1.44-1.9c-.53-3,1-2,2.55-3a18.81,18.81,0,0,1,1.69-1.35c4.05-1.84,9.75,3,12.8,5.31,7.21,5.39,16.37,14.41,17.2,23.86a1.55,1.55,0,0,0,1.5,1.5l7.25.72a1.43,1.43,0,0,0,1.29-.74,40.1,40.1,0,0,1,27.53-21.94c2.55-.56,13.41-2.85,10.34,2.81a1.52,1.52,0,0,0,.9,2.2c2.79.84,1.45,2.41,1.66,3.91.19,1.32.93,3,.27,4.29-.84,1.67-4.7,3.54-6.34,4.54a56.94,56.94,0,0,1-20.22,7.57c-5.19.85-9,.24-14-.77-1.89-.38-2.69,2.52-.8,2.9,2.73.54,5.05,1.47,7.88,1.52a45.14,45.14,0,0,0,10.15-1.21,59,59,0,0,0,19.21-7.86c2.25-1.42,5.75-3.31,7.29-5.64,1.29-1.94.44-2.31.21-4.15-.18-1.55.2-1.38.22-2.61a5.51,5.51,0,0,0-.09-2.18c-.71-1.9-2.88-2.68-4.63-3.2l.89,2.21c7.47-13.77-18.58-6.19-23.61-3.68a43.15,43.15,0,0,0-15,12.36c-1,1.37-2.65,3.17-3.17,4.83-.69,2.23.19,1.35-1.33,1.71s-4.22-.42-5.92-.59l1.5,1.5c-1.1-12.54-13.68-23.91-23.89-29.91-2.08-1.21-5.23-3.42-7.73-3.52s-2.58,1.8-4.47,2.7c-1.47.7-2.5-.22-3.69,1.61-.95,1.45-.63,3.49-.35,5.08l1.45-1.9c-15.55-.66,2.87,19.56,7.25,22.88,9.95,7.55,20.83,8.75,32.88,8.71l-.75-2.8c-10.85,6.51-15.47,23.07-16.34,34.87-.18,2.43-.83,6,.31,8.33.74,1.5,1.63,1.34,2.92,2s2,2.44,3.5,3c1.89.73,4-.52,5.43-1.55l-2.05-.54c5.18,11.88,13.75-5.23,15.65-10.5a43.2,43.2,0,0,0-2-33.75C203.88,2565.42,201.29,2566.94,202.15,2568.67Z"/><path class="k" d="M198.38,2555.84c-1.28-6.38-2.42-13,1.14-18.83a1.5,1.5,0,0,0-2.59-1.51c-4,6.58-2.88,14-1.45,21.14.38,1.89,3.27,1.09,2.9-.8Z"/><path class="k" d="M202.9,2557.87c1.62-2.72,3.19-5.5,3.72-8.65.31-1.89-2.58-2.7-2.89-.8a22.93,22.93,0,0,1-3.42,7.93,1.5,1.5,0,0,0,2.59,1.52Z"/><path class="k" d="M173.46,2579.08c1.89-2.63,4.63-4.15,7.43-5.61s5.69-3.39,8.8-3.86c1.91-.28,1.1-3.17-.79-2.89-3.7.55-7.23,2.93-10.48,4.66a21,21,0,0,0-7.55,6.19c-1.13,1.57,1.48,3.07,2.59,1.51Z"/><path class="k" d="M181.89,2581.58c2.77.08,5.7-1.87,8-3.25a1.5,1.5,0,0,0-1.51-2.59c-1.79,1.07-4.33,2.9-6.48,2.84-1.93,0-1.93,3,0,3Z"/><path class="k" d="M210.9,2563a99,99,0,0,0,18.79-6.92c1.74-.84.22-3.43-1.51-2.59a94.56,94.56,0,0,1-18.08,6.61c-1.87.48-1.07,3.38.8,2.9Z"/><path class="k" d="M205.08,2572.33c6.58,5.36,10.14,12,14.21,19.28.94,1.69,3.53.18,2.59-1.51-4.24-7.59-7.85-14.32-14.68-19.89-1.48-1.22-3.62.89-2.12,2.12Z"/><path class="k" d="M193.17,2598a48.73,48.73,0,0,0,5.83-19.4c.17-1.92-2.83-1.91-3,0a45,45,0,0,1-5.42,17.88c-.92,1.7,1.67,3.22,2.59,1.52Z"/><path class="k" d="M164.87,2545.9c3.7,4.79,7.58,9.52,13.14,12.21,1.73.83,3.25-1.75,1.51-2.59-5.08-2.46-8.67-6.75-12.05-11.14-1.17-1.5-3.77,0-2.6,1.52Z"/><path class="l" d="M186.22,2556.86a2.08,2.08,0,0,1,2.65-2.36c1.27-1.85,3.82-2.16,6-2.3l2.63-.17a6.27,6.27,0,0,1,2.52.19c.57.21,1.07.59,1.65.79s1.08.18,1.61.34a6,6,0,0,1,2.28,1.54l.58.54c.43.39.86.79,1.27,1.22a13.51,13.51,0,0,1,2.23,3.13c2.38,4.6,1.76,10.73-1.88,14.43a17.64,17.64,0,0,1-7.5,4.11c-1.85.57-4.34.76-5.25-1-.45.61-1.43.47-2.05.05a13,13,0,0,0-1.81-1.37,6.1,6.1,0,0,1-1.66-.68c-.51-.45-.59-1.23-1.06-1.73s-1.12-.6-1.66-.95a4.41,4.41,0,0,1-1.56-2.82,32.53,32.53,0,0,1-.7-10.77c.14-1.41.87-3.2,2.27-3"/><path class="k" d="M187.72,2556.86c0-.52,1.73-1,2.21-1.3a10.87,10.87,0,0,1,6.31-1.95,13.2,13.2,0,0,1,10.16,4.1,11.67,11.67,0,0,1,1.8,13.51c-1.55,2.69-9.08,8.46-12.08,5.09a1.56,1.56,0,0,0-1.82-.24c-1.24.54-4.34-3-4.91-3.6-1.54-1.57-2.49-2.56-3-4.77-.31-1.24-1.42-9.68.89-10.18,1.88-.41,1.09-3.3-.8-2.89-5.86,1.27-4,13.88-1.91,17.56a18.15,18.15,0,0,0,4.66,4.67c2.1,1.61,4.16,2.86,6.64,1.8l-1.82-.23c3.74,4.22,11.75.07,14.87-3.16,4.43-4.59,4.85-12.05,1.47-17.36a15.48,15.48,0,0,0-14.76-7.25c-3.71.25-10.63,1.56-10.86,6.2-.09,1.92,2.91,1.92,3,0Z"/><path class="k" d="M190.9,2561v.2a1.18,1.18,0,0,0,2.35,0v-.2a1.18,1.18,0,1,0-2.35,0Z"/><path class="k" d="M197.17,2558l-.2.19a1.2,1.2,0,0,0,0,1.67,1.19,1.19,0,0,0,1.66,0l.2-.2a1.17,1.17,0,0,0-1.66-1.66Z"/><path class="k" d="M194.39,2563.38v.4a1.18,1.18,0,0,0,1.17,1.17,1.2,1.2,0,0,0,1.18-1.17v-.4a1.18,1.18,0,1,0-2.35,0Z"/><path class="k" d="M191.1,2673.78a26,26,0,0,1-3.51-27c1.79-3.84,4.49-7.16,7.17-10.44,1.39-1.71,2.93-3.51,5.06-4.06L201,2636a7.15,7.15,0,0,0,2.29-1.31,3.35,3.35,0,0,0,1.39,1.08,6.66,6.66,0,0,0,2.6-3.27c5.27,6.29,6.83,15.12,5.6,23.24s-5,15.65-9.3,22.63l2.94,3.77a26,26,0,0,1,21.49,16.7c1.44,4,1.86,8.24,2.26,12.45.22,2.19.39,4.56-.73,6.45l-3.4-1.77a7.3,7.3,0,0,0-.71,2.54,3.44,3.44,0,0,0-1.74.21,6.55,6.55,0,0,0,.46,4.16c-8.18-.76-15.5-5.93-20.35-12.56s-7.5-14.61-9.33-22.62l-2.19,5.72a26,26,0,0,1-21.12,17.16,51.16,51.16,0,0,1-12.65-.62c-2.18-.29-4.52-.65-6.11-2.17l2.49-2.92a7.65,7.65,0,0,0-2.31-1.26,3.47,3.47,0,0,0,.19-1.75,6.7,6.7,0,0,0-4.16-.49c2.59-7.79,9.28-13.75,16.83-17s15.93-4,24.15-4Z"/><path class="k" d="M192.16,2672.72a25,25,0,0,1-4.63-21.27,27.47,27.47,0,0,1,4.61-9.32c2-2.84,4.72-7.08,8.08-8.39l-1.85-1,1.18,3.65a1.52,1.52,0,0,0,2.2.89,7.34,7.34,0,0,0,2.29-1.3l-1.82-.24a6.38,6.38,0,0,0,1.69,1.32,1.56,1.56,0,0,0,1.82-.24,9.57,9.57,0,0,0,2.83-3.58l-2.35.31c10.62,13.58,4,31-3.93,44a1.56,1.56,0,0,0,.23,1.82c.88,1.12,1.88,3.11,3.09,3.89s3.25.65,4.73,1.07a24.76,24.76,0,0,1,16.23,14.85c1.85,5,3.63,13,1.52,18.1l2.21-.9-3.41-1.76a1.52,1.52,0,0,0-2.2.9,7.18,7.18,0,0,0-.7,2.53l1.44-1.1-1.74.21a1.56,1.56,0,0,0-1.5,1.5,9.78,9.78,0,0,0,.51,4.56l1.45-1.9c-17.12-2.17-24.73-19.21-28.23-34.07-.37-1.57-2.41-1.28-2.9,0-2.38,6.19-4.46,12.09-9.82,16.46a24,24,0,0,1-13.85,5.46c-4.9.28-12.17.3-16.2-2.74l.31,2.36,2.49-2.92a1.52,1.52,0,0,0-.31-2.35,1.7,1.7,0,0,1-1.37-1.72,1.52,1.52,0,0,0-1.11-1.44,9.87,9.87,0,0,0-4.55-.55l1.45,1.9c5.94-16.18,24.25-19.78,39.53-19.85a1.52,1.52,0,0,0,1.44-1.1l1.53-6.59c.43-1.88-2.46-2.68-2.9-.79l-1.52,6.58,1.45-1.1c-16.81.07-36,4.5-42.43,22.06a1.5,1.5,0,0,0,1.45,1.89,5.77,5.77,0,0,1,3.76.44l-1.1-1.45-.19,1.75a1.43,1.43,0,0,0,.74,1.3,7.22,7.22,0,0,1,2.31,1.26l-.3-2.36-2.49,2.92a1.52,1.52,0,0,0,.3,2.35c4.07,3.08,11,3.2,15.9,3.19a27.37,27.37,0,0,0,15.63-4.72c7-4.84,9.82-11.82,12.75-19.45H193c3.88,16.42,12.54,33.93,31.13,36.28a1.5,1.5,0,0,0,1.44-1.9,5.76,5.76,0,0,1-.4-3.76l-1.5,1.5,1.74-.21a1.55,1.55,0,0,0,1.45-1.1,7.29,7.29,0,0,1,.7-2.54l-2.2.9,3.4,1.77a1.54,1.54,0,0,0,2.21-.9c2-4.8.63-11.29-.53-16.23a27.44,27.44,0,0,0-7.11-13.12,27.83,27.83,0,0,0-11.53-7.08c-1.46-.46-3.58-.49-4.7-1.22-1-.62-1.76-2.27-2.48-3.18l.24,1.82c8.8-14.4,15-32.94,3.46-47.69a1.51,1.51,0,0,0-2.36.3,5.76,5.76,0,0,1-2.36,3l1.81-.23-1.08-.85a1.51,1.51,0,0,0-1.82-.23,7.18,7.18,0,0,1-2.28,1.3l2.2.9-1.17-3.65a1.53,1.53,0,0,0-1.85-1.05c-6.94,2.7-13,12.88-14.78,19.81a28.07,28.07,0,0,0,5.4,24.18C191.23,2676.37,193.33,2674.23,192.16,2672.72Z"/><path class="k" d="M202.66,2684.72a41.23,41.23,0,0,1-5.14,44.8,3.86,3.86,0,0,1-2.07,1.5c-1.86.35-3.13-1.79-3.8-3.56-1.49,1.24-4,2.36-5.05.72-.37-.57-.38-1.35-.86-1.83-.78-.77-2.18-.26-3.11-.83a3,3,0,0,1-1-2.6,57.46,57.46,0,0,1,9-32.68c1.76-2.75,3.85-5.43,6.76-6.91l-6.54,0a41.2,41.2,0,0,1-38-24.23,3.88,3.88,0,0,1-.44-2.52c.5-1.83,3-2,4.86-1.85-.46-1.89-.36-4.65,1.57-4.87.67-.07,1.38.26,2,0,1-.37,1.19-1.85,2.11-2.44s1.89-.16,2.78.23a57.6,57.6,0,0,1,25.45,22.37c1.7,2.79,3.2,5.84,3.25,9.1l7.25.73a41.21,41.21,0,0,1,38.47-23.51,3.88,3.88,0,0,1,2.46.71c1.43,1.25.52,3.57-.47,5.18,1.9.41,4.34,1.72,3.68,3.54-.23.64-.83,1.13-.91,1.81-.13,1.09,1.13,1.88,1.26,3s-.69,1.77-1.43,2.39a57.46,57.46,0,0,1-31.28,13c-3.25.31-6.65.31-9.6-1.07Z"/><path class="k" d="M201.36,2685.48a40.17,40.17,0,0,1,.16,35.19c-1.16,2.4-6,12-8.57,6a1.51,1.51,0,0,0-2.06-.54c-2.57,1.83-3.7-.35-5.7-1.69-2.41-1.61-2.16-2.2-2.08-5a54.52,54.52,0,0,1,.83-8.15c1.63-9.11,5.76-21.66,14.16-26.7a1.52,1.52,0,0,0-.76-2.8c-7.45,0-14.62.08-21.68-2.75a40.55,40.55,0,0,1-13.21-8.63c-1.35-1.32-12.47-14.51-5.25-14.2a1.53,1.53,0,0,0,1.45-1.9c-.53-2.95,1-2,2.54-3,.56-.35,1.18-1.11,1.7-1.35,4.05-1.84,9.75,3,12.8,5.32,7.2,5.39,16.36,14.41,17.19,23.85a1.54,1.54,0,0,0,1.5,1.5l7.25.73a1.49,1.49,0,0,0,1.3-.75,40.14,40.14,0,0,1,27.52-21.93c2.56-.57,13.42-2.85,10.35,2.81a1.52,1.52,0,0,0,.89,2.2c2.8.83,1.45,2.4,1.67,3.9.18,1.32.93,3,.27,4.29-.84,1.67-4.71,3.54-6.34,4.55a57.37,57.37,0,0,1-7.09,3.68,55.24,55.24,0,0,1-13.13,3.89c-5.19.84-9,.24-14-.77-1.89-.38-2.7,2.51-.8,2.89,2.72.55,5,1.47,7.87,1.53a46.25,46.25,0,0,0,10.15-1.21,59,59,0,0,0,19.21-7.86c2.25-1.43,5.75-3.32,7.3-5.64,1.29-1.95.43-2.32.21-4.16-.19-1.54.2-1.38.22-2.6a5.37,5.37,0,0,0-.1-2.19c-.7-1.89-2.87-2.67-4.63-3.19l.9,2.2c7.47-13.76-18.59-6.19-23.61-3.68a43.11,43.11,0,0,0-15,12.37c-1,1.36-2.65,3.16-3.17,4.82-.7,2.24.19,1.35-1.33,1.71s-4.23-.42-5.93-.59l1.5,1.5c-1.1-12.54-13.67-23.9-23.89-29.9-2.07-1.22-5.23-3.42-7.73-3.53s-2.57,1.81-4.47,2.71c-1.46.69-2.49-.22-3.69,1.6-.95,1.46-.63,3.49-.34,5.08l1.44-1.89c-15.54-.66,2.88,19.55,7.26,22.87,9.95,7.55,20.82,8.75,32.88,8.71l-.76-2.79c-10.84,6.51-15.47,23.06-16.33,34.87-.18,2.43-.84,6,.31,8.33.73,1.5,1.62,1.33,2.92,2.05s2,2.44,3.5,3c1.88.74,4-.52,5.43-1.55l-2-.54c5.17,11.88,13.75-5.22,15.64-10.5A43.13,43.13,0,0,0,204,2684C203.09,2682.24,200.5,2683.76,201.36,2685.48Z"/><path class="l" d="M197.59,2672.66c-1.27-6.38-2.42-13,1.14-18.84,1-1.65-1.58-3.16-2.59-1.51-4,6.58-2.87,14-1.44,21.15.38,1.89,3.27,1.09,2.89-.8Z"/><path class="l" d="M202.12,2674.68c1.62-2.71,3.19-5.49,3.72-8.65.31-1.89-2.58-2.7-2.9-.8a22.85,22.85,0,0,1-3.41,7.94,1.5,1.5,0,0,0,2.59,1.51Z"/><path class="l" d="M172.68,2695.9c1.88-2.63,4.62-4.15,7.43-5.61s5.69-3.4,8.8-3.86c1.9-.28,1.09-3.17-.8-2.89-3.69.55-7.23,2.92-10.47,4.66a20.83,20.83,0,0,0-7.55,6.18c-1.13,1.57,1.47,3.07,2.59,1.52Z"/><path class="l" d="M181.11,2698.4c2.77.07,5.69-1.88,8-3.25a1.5,1.5,0,0,0-1.52-2.59c-1.78,1.07-4.32,2.9-6.47,2.84-1.93-.06-1.93,2.94,0,3Z"/><path class="l" d="M210.12,2679.79a99.17,99.17,0,0,0,18.79-6.91c1.74-.85.22-3.43-1.51-2.59a95.24,95.24,0,0,1-18.08,6.61c-1.87.48-1.08,3.37.8,2.89Z"/><path class="l" d="M192.39,2714.8a49,49,0,0,0,5.83-19.39c.16-1.93-2.84-1.92-3,0a45.07,45.07,0,0,1-5.42,17.88c-.93,1.69,1.66,3.21,2.59,1.51Z"/><path class="l" d="M164.09,2662.71c3.69,4.79,7.58,9.53,13.13,12.21,1.73.84,3.26-1.75,1.52-2.59-5.09-2.45-8.68-6.74-12.06-11.13-1.16-1.51-3.77,0-2.59,1.51Z"/><path class="l" d="M204.3,2689.14c6.57,5.37,10.13,12,14.2,19.29.94,1.69,3.53.18,2.59-1.51-4.23-7.59-7.84-14.33-14.67-19.9-1.48-1.21-3.62.9-2.12,2.12Z"/><path class="l" d="M185.44,2673.67a2.08,2.08,0,0,1,2.64-2.36c1.27-1.84,3.82-2.16,6.06-2.3l2.63-.16a5.89,5.89,0,0,1,2.51.19c.58.21,1.08.59,1.65.78s1.09.19,1.62.34a6.19,6.19,0,0,1,2.27,1.54l.59.54c.43.4.86.8,1.27,1.23a14.08,14.08,0,0,1,2.23,3.12c2.38,4.61,1.75,10.74-1.88,14.43a17.55,17.55,0,0,1-7.5,4.12c-1.85.57-4.34.75-5.25-1-.45.61-1.43.47-2.06.05a13.79,13.79,0,0,0-1.8-1.37,6.42,6.42,0,0,1-1.66-.67c-.51-.45-.6-1.23-1.06-1.73s-1.13-.6-1.67-.95a4.39,4.39,0,0,1-1.55-2.83,32.23,32.23,0,0,1-.71-10.77c.15-1.4.87-3.2,2.28-3"/><path class="k" d="M186.94,2673.67c0-.52,1.72-1,2.2-1.3a10.83,10.83,0,0,1,6.31-1.94,13.15,13.15,0,0,1,10.17,4.1,11.67,11.67,0,0,1,1.8,13.5c-1.55,2.69-9.09,8.47-12.08,5.09a1.56,1.56,0,0,0-1.82-.23c-1.25.53-4.35-3-4.91-3.61-1.54-1.57-2.49-2.56-3.05-4.76-.31-1.24-1.42-9.69.88-10.19,1.89-.41,1.09-3.3-.79-2.89-5.87,1.27-4,13.88-1.91,17.57a18.31,18.31,0,0,0,4.66,4.67c2.09,1.6,4.15,2.86,6.63,1.8l-1.81-.23c3.74,4.21,11.75.06,14.87-3.17,4.43-4.59,4.85-12,1.47-17.35a15.49,15.49,0,0,0-14.76-7.26c-3.71.25-10.63,1.56-10.86,6.2-.1,1.93,2.9,1.92,3,0Z"/><path class="k" d="M196.39,2674.82l-.2.2a1.17,1.17,0,1,0,1.66,1.66l.2-.2a1.17,1.17,0,0,0-1.66-1.66Z"/><path class="k" d="M193.6,2680.2v.39a1.18,1.18,0,1,0,2.35,0v-.39a1.19,1.19,0,0,0-1.17-1.18,1.2,1.2,0,0,0-1.18,1.18Z"/><path class="k" d="M190.47,2676.28v.39a1.18,1.18,0,1,0,2.35,0v-.39a1.18,1.18,0,1,0-2.35,0Z"/><path class="k" d="M312.11,2681.35a25,25,0,0,1-4.62-21.27,27.31,27.31,0,0,1,4.6-9.33c2-2.84,4.72-7.08,8.08-8.38l-1.85-1,1.18,3.65a1.53,1.53,0,0,0,2.2.9,7.37,7.37,0,0,0,2.29-1.31l-1.82-.23a6.14,6.14,0,0,0,1.69,1.31,1.54,1.54,0,0,0,1.82-.23,9.73,9.73,0,0,0,2.83-3.58l-2.35.3c10.62,13.59,4,31-3.93,44.06-1,1.65,1.58,3.16,2.59,1.51,8.8-14.4,15-32.93,3.46-47.69a1.51,1.51,0,0,0-2.36.3,5.74,5.74,0,0,1-2.36,3l1.82-.24-1.09-.84a1.53,1.53,0,0,0-1.82-.24,7.21,7.21,0,0,1-2.28,1.31l2.2.89-1.17-3.65a1.51,1.51,0,0,0-1.85-1c-6.94,2.7-13,12.87-14.78,19.8a28.12,28.12,0,0,0,5.4,24.19c1.19,1.52,3.3-.62,2.12-2.12Z"/><path class="k" d="M310.77,2701.59a24.88,24.88,0,0,1-15.2,15c-5.93,2-17.25,2.42-22.47-1.52l.3,2.35,2.49-2.91a1.53,1.53,0,0,0-.31-2.36,1.69,1.69,0,0,1-1.37-1.71,1.53,1.53,0,0,0-1.1-1.45,9.79,9.79,0,0,0-4.56-.54l1.45,1.9c5.94-16.19,24.25-19.79,39.53-19.86a1.5,1.5,0,0,0,0-3c-16.81.08-36,4.5-42.42,22.06a1.51,1.51,0,0,0,1.44,1.9,5.71,5.71,0,0,1,3.76.44l-1.1-1.45-.19,1.75a1.43,1.43,0,0,0,.74,1.29,7.22,7.22,0,0,1,2.31,1.26l-.3-2.35-2.49,2.91a1.54,1.54,0,0,0,.3,2.36c3.38,2.55,8.21,2.68,12.29,3a30.28,30.28,0,0,0,13.84-1.69,28,28,0,0,0,16-16.59c.67-1.81-2.23-2.6-2.9-.8Z"/><path class="k" d="M326.46,2692.22a24.9,24.9,0,0,1,17.63,10.84c3.66,5.54,6.57,16.51,3.94,22.86l2.21-.9-3.41-1.77a1.53,1.53,0,0,0-2.2.9,7.23,7.23,0,0,0-.7,2.54l1.44-1.11-1.74.21a1.56,1.56,0,0,0-1.5,1.5,9.78,9.78,0,0,0,.51,4.56l1.45-1.9c-17.12-2.16-24.72-19.21-28.23-34.07-.45-1.88-3.34-1.08-2.9.8,3.88,16.42,12.54,33.92,31.13,36.27a1.5,1.5,0,0,0,1.44-1.9,5.75,5.75,0,0,1-.4-3.76l-1.5,1.5,1.74-.21a1.55,1.55,0,0,0,1.45-1.1,7.18,7.18,0,0,1,.7-2.53l-2.2.89,3.4,1.77a1.53,1.53,0,0,0,2.21-.9c1.74-4.22.69-9.17,0-13.56a29.12,29.12,0,0,0-5.05-12.77,28.08,28.08,0,0,0-19.4-11.16c-1.91-.25-1.89,2.76,0,3Z"/><path class="l" d="M322.61,2693.35c7.39,14.14,5.26,32.69-5.13,44.79a3.92,3.92,0,0,1-2.08,1.5c-1.86.35-3.13-1.79-3.8-3.56-1.49,1.24-4,2.37-5.05.73-.36-.58-.38-1.36-.86-1.84-.78-.77-2.18-.26-3.11-.83a3,3,0,0,1-1-2.6,57.46,57.46,0,0,1,9-32.68c1.76-2.74,3.85-5.43,6.76-6.9l-6.54,0c-15.95.45-31.69-9.59-38-24.23a3.94,3.94,0,0,1-.44-2.52c.5-1.83,3-2,4.87-1.86-.47-1.88-.37-4.65,1.56-4.86.67-.08,1.38.25,2,0,1-.36,1.18-1.84,2.1-2.44a3,3,0,0,1,2.78.24,57.48,57.48,0,0,1,25.45,22.37c1.7,2.78,3.2,5.84,3.25,9.1l7.25.72c6.61-14.52,22.54-24.26,38.48-23.51a3.93,3.93,0,0,1,2.45.71c1.43,1.25.52,3.57-.47,5.19,1.9.41,4.34,1.71,3.69,3.54-.24.64-.84,1.13-.92,1.8-.13,1.09,1.13,1.88,1.26,3s-.68,1.78-1.43,2.4a57.61,57.61,0,0,1-31.28,13c-3.25.3-6.65.3-9.6-1.08Z"/><path class="k" d="M321.31,2694.11a40.07,40.07,0,0,1,.16,35.19c-1.16,2.39-6,12-8.57,6a1.5,1.5,0,0,0-2-.53c-2.57,1.83-3.71-.36-5.71-1.7-2.4-1.61-2.16-2.2-2.08-5a55.58,55.58,0,0,1,.83-8.15c1.64-9.12,5.76-21.67,14.16-26.71a1.51,1.51,0,0,0-.76-2.79c-7.44,0-14.62.07-21.68-2.76a40.55,40.55,0,0,1-13.21-8.63c-1.35-1.31-12.47-14.51-5.24-14.2a1.52,1.52,0,0,0,1.44-1.9c-.53-2.95,1-2,2.54-3a20.4,20.4,0,0,1,1.7-1.35c4.05-1.84,9.75,3,12.8,5.31,7.2,5.39,16.36,14.41,17.19,23.86a1.56,1.56,0,0,0,1.5,1.5l7.25.72a1.46,1.46,0,0,0,1.3-.74,39.9,39.9,0,0,1,16.45-17.68,40.37,40.37,0,0,1,11.07-4.26c2.56-.56,13.42-2.85,10.35,2.81a1.52,1.52,0,0,0,.9,2.2c2.79.84,1.44,2.41,1.66,3.9.19,1.32.93,3,.27,4.3-.84,1.67-4.71,3.54-6.34,4.54a56.94,56.94,0,0,1-20.22,7.57c-5.19.85-9,.24-14-.77-1.89-.38-2.7,2.51-.8,2.89,2.72.55,5,1.48,7.87,1.53a45.07,45.07,0,0,0,10.15-1.21,59.14,59.14,0,0,0,19.22-7.86c2.24-1.43,5.74-3.31,7.29-5.64,1.29-2,.43-2.31.21-4.15-.19-1.55.2-1.38.22-2.61a5.32,5.32,0,0,0-.1-2.18c-.7-1.9-2.87-2.68-4.63-3.2l.9,2.2c7.47-13.76-18.59-6.18-23.61-3.67a43.06,43.06,0,0,0-15,12.36c-1,1.37-2.65,3.17-3.17,4.83-.69,2.23.19,1.35-1.33,1.71s-4.23-.42-5.93-.59l1.5,1.5c-1.1-12.54-13.67-23.91-23.89-29.91-2.07-1.21-5.23-3.42-7.73-3.53s-2.57,1.81-4.47,2.71c-1.46.7-2.49-.22-3.68,1.61-1,1.45-.64,3.49-.35,5.08l1.45-1.9c-15.55-.66,2.87,19.55,7.25,22.87,9.95,7.55,20.82,8.76,32.88,8.72l-.76-2.8c-10.84,6.51-15.46,23.07-16.33,34.87-.18,2.43-.84,6,.31,8.33.73,1.5,1.62,1.34,2.92,2s2,2.44,3.5,3c1.88.73,4-.52,5.43-1.55l-2.05-.54c5.17,11.88,13.75-5.23,15.64-10.5a43.16,43.16,0,0,0-2.05-33.75C323,2690.86,320.46,2692.38,321.31,2694.11Z"/><path class="k" d="M317.54,2681.28c-1.27-6.38-2.41-13,1.15-18.83a1.5,1.5,0,0,0-2.59-1.52c-4,6.59-2.88,14-1.45,21.15.38,1.89,3.27,1.09,2.89-.8Z"/><path class="k" d="M322.07,2683.31c1.62-2.72,3.19-5.5,3.72-8.65.31-1.89-2.58-2.71-2.9-.8a22.73,22.73,0,0,1-3.41,7.93,1.5,1.5,0,0,0,2.59,1.52Z"/><path class="k" d="M292.63,2704.52c1.89-2.63,4.62-4.15,7.43-5.61s5.69-3.39,8.8-3.86c1.9-.28,1.1-3.17-.8-2.89-3.69.55-7.22,2.93-10.47,4.66A20.94,20.94,0,0,0,290,2703c-1.13,1.57,1.47,3.07,2.59,1.51Z"/><path class="k" d="M301.06,2707c2.77.08,5.69-1.87,8-3.25a1.5,1.5,0,0,0-1.52-2.59c-1.78,1.07-4.32,2.9-6.47,2.84-1.93-.05-1.93,2.95,0,3Z"/><path class="k" d="M330.07,2688.42a99,99,0,0,0,18.79-6.92c1.74-.84.22-3.43-1.51-2.59a94.56,94.56,0,0,1-18.08,6.61c-1.87.48-1.08,3.38.8,2.9Z"/><path class="k" d="M324.25,2697.77c6.57,5.36,10.14,12,14.2,19.28.94,1.69,3.54.18,2.59-1.51-4.23-7.59-7.84-14.32-14.67-19.9-1.48-1.21-3.62.9-2.12,2.13Z"/><path class="k" d="M312.34,2723.43a48.89,48.89,0,0,0,5.83-19.4c.16-1.92-2.84-1.91-3,0a45,45,0,0,1-5.42,17.88c-.93,1.7,1.66,3.21,2.59,1.52Z"/><path class="k" d="M284,2671.34c3.69,4.79,7.58,9.52,13.13,12.21,1.73.83,3.26-1.75,1.52-2.59-5.08-2.46-8.68-6.75-12.06-11.14-1.16-1.5-3.77,0-2.59,1.52Z"/><path class="l" d="M305.39,2682.29a2.07,2.07,0,0,1,2.64-2.35c1.27-1.85,3.83-2.16,6.06-2.3l2.63-.17a6.23,6.23,0,0,1,2.51.19c.58.21,1.08.59,1.66.78s1.08.19,1.61.35a6.08,6.08,0,0,1,2.27,1.53l.59.54c.43.4.86.8,1.27,1.23a13.82,13.82,0,0,1,2.23,3.13c2.38,4.6,1.75,10.73-1.88,14.43a17.64,17.64,0,0,1-7.5,4.11c-1.85.57-4.34.76-5.25-1-.45.61-1.43.47-2.06,0a12.32,12.32,0,0,0-1.8-1.36,6.1,6.1,0,0,1-1.66-.68c-.51-.45-.6-1.23-1.06-1.73s-1.13-.6-1.67-.95a4.44,4.44,0,0,1-1.55-2.82,32.53,32.53,0,0,1-.71-10.77c.15-1.41.88-3.21,2.28-3"/><path class="k" d="M306.89,2682.29c0-.51,1.72-1,2.2-1.29a10.91,10.91,0,0,1,6.31-1.95,13.19,13.19,0,0,1,10.17,4.1,11.68,11.68,0,0,1,1.8,13.51c-1.55,2.69-9.09,8.46-12.08,5.09a1.56,1.56,0,0,0-1.82-.24c-1.24.53-4.34-3-4.91-3.6-1.54-1.57-2.49-2.56-3.05-4.77-.31-1.24-1.42-9.68.89-10.18,1.88-.41,1.08-3.3-.8-2.9-5.87,1.28-4,13.89-1.91,17.57a18.15,18.15,0,0,0,4.66,4.67c2.1,1.61,4.15,2.86,6.64,1.8l-1.82-.23c3.74,4.22,11.75.07,14.87-3.16,4.43-4.59,4.85-12.05,1.47-17.36a15.5,15.5,0,0,0-14.76-7.26c-3.71.26-10.63,1.57-10.86,6.2-.09,1.93,2.91,1.93,3,0Z"/><path class="k" d="M310.07,2686.45v.2a1.18,1.18,0,0,0,2.35,0v-.2a1.18,1.18,0,1,0-2.35,0Z"/><path class="k" d="M316.34,2683.44l-.2.2a1.2,1.2,0,0,0,0,1.67,1.19,1.19,0,0,0,1.66,0l.2-.2a1.2,1.2,0,0,0,0-1.67,1.19,1.19,0,0,0-1.66,0Z"/><path class="k" d="M313.55,2688.82v.39a1.18,1.18,0,1,0,2.35,0v-.39a1.19,1.19,0,0,0-1.17-1.18,1.2,1.2,0,0,0-1.18,1.18Z"/><path class="k" d="M333.71,2981.15a21.87,21.87,0,0,1-4.36-17.87,24.09,24.09,0,0,1,4.29-9.25c1.09-1.51,2.27-3,3.46-4.41a8.27,8.27,0,0,1,3.79-3.06l-1.19-.67,1,3.18a1,1,0,0,0,1.19.68,8.71,8.71,0,0,0,2.42-1.39H343a4.31,4.31,0,0,0,1.41,1.1,1,1,0,0,0,1,0,7.29,7.29,0,0,0,2.71-3.44l-1.62.42c4.25,5.16,5.53,12.18,4.73,18.69-.89,7.28-4.28,14-8.1,20.17-.66,1.07,1,2,1.67,1,6.06-9.79,10.94-21.56,7.38-33.16a23.27,23.27,0,0,0-4.31-8c-.51-.62-1.38-.18-1.62.42a4.94,4.94,0,0,1-1.82,2.29h1a2.86,2.86,0,0,1-1-.8,1,1,0,0,0-1.37,0,5.54,5.54,0,0,1-1.57.89l1.19.68-1-3.19a1,1,0,0,0-1.19-.67c-2.84.83-4.62,3.47-6.37,5.68a36.21,36.21,0,0,0-5.12,7.95,23.73,23.73,0,0,0-.89,16,23.45,23.45,0,0,0,4.35,8.17c.78,1,2.15-.41,1.36-1.37Z"/><path class="k" d="M333.11,2998.67a21.55,21.55,0,0,1-8.58,10.92c-4.62,3-9.77,3.82-15.2,3.36-1.75-.15-3.51-.36-5.25-.62a7.65,7.65,0,0,1-4.15-1.55v1.37l2.17-2.54a1,1,0,0,0-.2-1.52,8.08,8.08,0,0,0-2.24-1.2l.67,1.19a4,4,0,0,0,.2-1.78,1,1,0,0,0-.48-.84,7.28,7.28,0,0,0-4.37-.52l1.19,1.19c3.53-10.38,14.35-15.52,24.51-17a72.57,72.57,0,0,1,10.32-.61,1,1,0,0,0,0-1.93c-11.6,0-24.36,2-32.31,11.35a23.11,23.11,0,0,0-4.38,7.64c-.26.76.52,1.31,1.19,1.19a5,5,0,0,1,2.88.33l-.48-.83a2.89,2.89,0,0,1-.13,1.27,1,1,0,0,0,.67,1.18,6.6,6.6,0,0,1,1.79,1l-.2-1.52-2.17,2.54a1,1,0,0,0,0,1.37c2.24,2,5.45,2.13,8.3,2.47a33.94,33.94,0,0,0,10.26,0,23.6,23.6,0,0,0,13.43-7.78,23.15,23.15,0,0,0,4.43-7.68c.4-1.18-1.46-1.68-1.87-.51Z"/><path class="k" d="M346.48,2990.05a21.62,21.62,0,0,1,12.66,6c3.86,3.73,5.78,8.47,6.56,13.73.26,1.73.43,3.47.58,5.2a8,8,0,0,1-.55,4.66l1.32-.34-3-1.55a1,1,0,0,0-1.32.35,8.76,8.76,0,0,0-.75,2.7l1-1a4.12,4.12,0,0,0-1.78.21,1,1,0,0,0-.68.68,7.37,7.37,0,0,0,.5,4.37l.84-1.45c-11.1-1.11-18.62-10.85-22.24-20.61a76.26,76.26,0,0,1-2.73-9.38c-.28-1.21-2.14-.7-1.86.52,2.59,11.24,7.44,23.07,18.17,28.77a23.42,23.42,0,0,0,8.66,2.63c.81.08,1.09-.86.83-1.45a5,5,0,0,1-.3-2.89l-.68.68a2.89,2.89,0,0,1,1.27-.15c.56.05.91-.49,1-1a5.72,5.72,0,0,1,.48-1.72l-1.32.34,3,1.55a1,1,0,0,0,1.32-.35c1.51-2.76.8-6.18.46-9.14a33.49,33.49,0,0,0-2.2-9.38,23.66,23.66,0,0,0-10.56-11.37,23.22,23.22,0,0,0-8.62-2.63c-1.24-.13-1.23,1.81,0,1.93Z"/><path class="l" d="M343.11,2991.38a35.94,35.94,0,0,1-4.48,39.09,3.38,3.38,0,0,1-1.8,1.31c-1.63.31-2.74-1.56-3.32-3.11-1.3,1.09-3.51,2.07-4.41.64-.32-.51-.33-1.19-.75-1.61-.68-.67-1.9-.22-2.72-.72a2.63,2.63,0,0,1-.88-2.26,50.22,50.22,0,0,1,7.83-28.53c1.53-2.39,3.36-4.74,5.89-6l-5.7,0A36,36,0,0,1,299.59,2969a3.44,3.44,0,0,1-.39-2.2c.44-1.6,2.6-1.77,4.25-1.62-.41-1.64-.32-4.06,1.36-4.24.59-.07,1.21.22,1.77,0,.9-.31,1-1.6,1.84-2.12a2.63,2.63,0,0,1,2.42.2,50.24,50.24,0,0,1,22.22,19.53c1.48,2.42,2.78,5.09,2.83,7.94l6.33.63a36,36,0,0,1,33.57-20.52,3.47,3.47,0,0,1,2.15.62c1.24,1.09.45,3.11-.41,4.53,1.65.35,3.79,1.49,3.21,3.08-.2.56-.73,1-.8,1.58-.11,1,1,1.64,1.1,2.59s-.6,1.54-1.25,2.08a50.11,50.11,0,0,1-27.29,11.38c-2.84.27-5.81.27-8.38-.94Z"/><path class="k" d="M342.28,2991.87a35.14,35.14,0,0,1-1.73,34.4,22.92,22.92,0,0,1-3,3.95c-1.5,1.51-2.59-.44-3.12-1.8a1,1,0,0,0-1.61-.43c-.66.52-2.45,1.75-3,.6A5,5,0,0,0,329,3027a2.85,2.85,0,0,0-1.85-.7c-.71-.07-1.19,0-1.38-.82a10.72,10.72,0,0,1-.11-2.47c0-1.63.09-3.26.25-4.88A49.14,49.14,0,0,1,332,2999c1.73-3.06,3.74-6.3,6.94-8a1,1,0,0,0-.49-1.8c-5.34,0-10.6.21-15.79-1.31a35.6,35.6,0,0,1-18.6-13,32.85,32.85,0,0,1-3.31-5.6c-.38-.81-1.18-2.19-.15-2.82a4.88,4.88,0,0,1,2.83-.32,1,1,0,0,0,.93-1.23c-.16-.71-.52-2.72.48-3,.62-.18,1.32.19,2,0a2.71,2.71,0,0,0,1.41-1.24c.35-.54.49-1.12,1.24-1.06a7.22,7.22,0,0,1,2.25.92c1.47.72,2.91,1.5,4.3,2.36a49.22,49.22,0,0,1,14.06,13c2.24,3.1,4.69,6.69,4.82,10.64a1,1,0,0,0,1,1l6.33.63a1,1,0,0,0,.84-.47,35.16,35.16,0,0,1,28-19.92,26.85,26.85,0,0,1,5-.11c.89.09,1.62.38,1.53,1.4a5.75,5.75,0,0,1-.92,2.28,1,1,0,0,0,.58,1.42c.9.21,3.11.86,2.4,2.12a3.52,3.52,0,0,0-.7,1.73,3.22,3.22,0,0,0,.67,1.77c.46.71.54,1.07-.1,1.72a19.09,19.09,0,0,1-2.15,1.75,47.3,47.3,0,0,1-4.19,2.83,49,49,0,0,1-19.41,6.76,25.34,25.34,0,0,1-6.09.17c-1.51-.19-2.85-.84-4.33-1.14-1.22-.24-1.74,1.62-.51,1.86,1.44.29,2.77.92,4.25,1.14a24.28,24.28,0,0,0,6.2,0,50.86,50.86,0,0,0,11.36-2.59,51.69,51.69,0,0,0,10.62-5.18,50.28,50.28,0,0,0,4.68-3.4c1.28-1,2.59-2.38,1.78-4.13-.18-.37-.44-.68-.64-1s-.18-.59.09-1a2.81,2.81,0,0,0,.53-2.27c-.44-1.69-2.41-2.54-3.94-2.91l.57,1.42c.77-1.29,1.52-2.94,1-4.47-.53-1.73-2.31-2.08-3.89-2.14a34.66,34.66,0,0,0-10.14,1.16,37.78,37.78,0,0,0-17.43,10.28,34.85,34.85,0,0,0-6.55,9.57l.83-.48-6.33-.63,1,1c-.14-4-2.31-7.64-4.56-10.87a51.48,51.48,0,0,0-16.2-15,46.17,46.17,0,0,0-4.9-2.51c-1.59-.69-3.18-.72-4.21.85-.18.27-.31.72-.57.93s-.89,0-1.31,0a2.58,2.58,0,0,0-2,.84c-1.09,1.22-.94,3.17-.6,4.64l.93-1.23c-1.71-.14-4,0-4.91,1.68-1.08,1.89.49,4.36,1.38,6a35.6,35.6,0,0,0,8,10,37.09,37.09,0,0,0,23.14,9.23c2.47.06,4.95,0,7.41,0l-.49-1.8c-3.2,1.69-5.32,4.77-7.12,7.81a51.4,51.4,0,0,0-7,22.18,39.48,39.48,0,0,0-.1,5.65c.11,1.57.74,3,2.44,3.2.36,0,1,0,1.31.17s.35.66.5,1a2.52,2.52,0,0,0,1.63,1.54c1.61.46,3.31-.55,4.51-1.52l-1.61-.43a6.2,6.2,0,0,0,2.64,3.55c1.58.78,3-.13,4.1-1.32a33.74,33.74,0,0,0,5.47-8.76,38,38,0,0,0,2.73-20.3,35.15,35.15,0,0,0-3.57-11.21C343.38,2989.79,341.71,2990.76,342.28,2991.87Z"/><path class="k" d="M338.36,2980.94c-1.1-5.5-2.25-11.68,1-16.7.68-1-1-2-1.67-1-3.59,5.47-2.44,12.17-1.23,18.19.24,1.22,2.11.7,1.86-.52Z"/><path class="k" d="M342.35,2982.45a21.73,21.73,0,0,0,3.21-7.47c.19-1.22-1.67-1.74-1.87-.52a20.12,20.12,0,0,1-3,7,1,1,0,0,0,1.67,1Z"/><path class="k" d="M316.66,3001c1.43-2.16,3.7-3.49,5.94-4.68,1.25-.65,2.51-1.28,3.76-1.92a12.82,12.82,0,0,1,4.41-1.79c1.23-.1,1.24-2,0-1.93a13,13,0,0,0-4.72,1.7c-1.47.76-3,1.5-4.42,2.28A17.13,17.13,0,0,0,315,3000c-.7,1,1,2,1.67,1Z"/><path class="k" d="M324.31,3003a7.53,7.53,0,0,0,3.49-1,36.42,36.42,0,0,0,3.31-1.78,1,1,0,0,0-1-1.67c-.88.53-1.77,1-2.69,1.48a6.78,6.78,0,0,1-3.13,1.05c-1.25-.05-1.24,1.88,0,1.93Z"/><path class="k" d="M349.53,2986.75a82.32,82.32,0,0,0,16.32-6c1.12-.55.14-2.22-1-1.67a79.93,79.93,0,0,1-15.86,5.8,1,1,0,0,0,.51,1.87Z"/><path class="k" d="M344.79,2995a31.34,31.34,0,0,1,7.08,7.41c1.94,3.07,3.6,6.33,5.37,9.5.6,1.08,2.27.11,1.67-1-1.82-3.26-3.52-6.65-5.56-9.79a32.44,32.44,0,0,0-7.2-7.5c-1-.78-2.33.58-1.36,1.36Z"/><path class="k" d="M333.86,3017.46a40.67,40.67,0,0,0,5-16.76c.09-1.24-1.84-1.23-1.94,0a38.28,38.28,0,0,1-4.77,15.78c-.61,1.09,1.06,2.07,1.67,1Z"/><path class="k" d="M309.75,2972c3.16,4.11,6.54,8.29,11.34,10.53,1.12.53,2.1-1.14,1-1.67-4.5-2.1-7.69-6-10.65-9.84-.75-1-2.43,0-1.67,1Z"/><path class="k" d="M328.09,2981.74a1.81,1.81,0,0,1,2.3-2.06c1.11-1.61,3.34-1.89,5.29-2l2.29-.14a5.41,5.41,0,0,1,2.2.16c.5.19.94.52,1.44.69s.95.16,1.41.29a5.42,5.42,0,0,1,2,1.35l.51.47c.38.35.76.69,1.11,1.07a12,12,0,0,1,1.95,2.73,11.12,11.12,0,0,1-1.64,12.59,15.43,15.43,0,0,1-6.55,3.59c-1.61.5-3.78.66-4.58-.83-.39.53-1.24.41-1.79,0a11.34,11.34,0,0,0-1.58-1.2,5.14,5.14,0,0,1-1.45-.59c-.44-.39-.52-1.07-.92-1.5a6.66,6.66,0,0,0-1.45-.83,3.84,3.84,0,0,1-1.36-2.47,28.31,28.31,0,0,1-.62-9.4c.13-1.22.76-2.79,2-2.64"/><path class="k" d="M329,2981.48c-.12-.62.6-1,1.12-.87a1,1,0,0,0,1.09-.44,4.68,4.68,0,0,1,3.37-1.44c.67-.08,1.36-.11,2-.15a14.26,14.26,0,0,1,2.61-.11,9.11,9.11,0,0,1,2,.78,8.27,8.27,0,0,1,2.38.81,16,16,0,0,1,3.14,3.11c3.34,4.45,2.67,11.21-2.11,14.35a16.73,16.73,0,0,1-4.5,2c-1,.3-2.8.73-3.48-.39a1,1,0,0,0-1.52-.2c-.38.39-1.62-1-1.95-1.17-.7-.42-1.42-.35-1.83-1.11a3.2,3.2,0,0,0-1.61-1.63,2.64,2.64,0,0,1-1.51-2.06,26.4,26.4,0,0,1-.77-6.38c0-.79-.23-4.64,1.17-4.58,1.24.05,1.24-1.88,0-1.94-2.46-.1-2.93,2.85-3,4.7a27.23,27.23,0,0,0,.85,9,4.28,4.28,0,0,0,1.93,2.76c.55.3,1,.4,1.26,1a3,3,0,0,0,1,1.27c.49.33,1.09.36,1.59.65s.85.76,1.33,1.06a2.32,2.32,0,0,0,3-.19l-1.51-.19c1.81,3,6.12,1.28,8.56.19a11.77,11.77,0,0,0,6.72-7.3,12.44,12.44,0,0,0-1-9.52,17.17,17.17,0,0,0-3.78-4.37,6,6,0,0,0-2-1.34c-.45-.15-.93-.17-1.38-.3s-1-.48-1.5-.68a7.4,7.4,0,0,0-3.14-.22c-1.07.07-2.14.12-3.2.25a6.42,6.42,0,0,0-4.64,2.35l1.09-.44a2.79,2.79,0,0,0-3.49,3.24c.23,1.22,2.1.71,1.86-.51Z"/><path class="l" d="M332.23,2985.36v.17a1,1,0,0,0,.28.69,1,1,0,0,0,1.37,0,1,1,0,0,0,.28-.69v-.17a1,1,0,0,0-.28-.68,1,1,0,0,0-1.37,0,1,1,0,0,0-.28.68Z"/><path class="l" d="M337.68,2982.78l-.17.17a1,1,0,0,0-.28.69,1,1,0,0,0,.28.68.93.93,0,0,0,.68.28,1,1,0,0,0,.69-.28l.17-.17a1,1,0,0,0,.28-.69,1,1,0,0,0-1-1,1,1,0,0,0-.69.28Z"/><path class="l" d="M334.87,2988.06v.35a1,1,0,0,0,.29.68.91.91,0,0,0,.68.28,1,1,0,0,0,.68-.28,1,1,0,0,0,.29-.68v-.35a1,1,0,0,0-.29-.68.91.91,0,0,0-.68-.28,1,1,0,0,0-.68.28,1,1,0,0,0-.29.68Z"/><path class="k" d="M278.81,2990a.57.57,0,0,0-.79.12c-4.28,5.67-11.65,7.33-16.72,12.07-2.71,2.55-3.89,5.66-4.91,9.17a26,26,0,0,1-3.68,7.87,20.39,20.39,0,0,1,.8-4.47c.11-.36-.16-.9-.61-.77-2.52.72-5.44,1.74-6.37,4.46a18,18,0,0,0-.55,5.28c0,.9,0,1.79,0,2.68-.95.86-1.91,1.71-2.87,2.55a33.76,33.76,0,0,1-.06-3.78c0-1.12.28-2.67-.87-3.35-2.15-1.28-5.37,2.73-6.48,4.14a24.85,24.85,0,0,0-4.46,9.48,15.82,15.82,0,0,0-.72,4.82,5.46,5.46,0,0,0,.32,1.41c-1.26,1.69-2.43,3.43-3.53,5.23-.61-1.64-1.12-3.33-2.56-4.32-2.57-1.77-4.12,1.7-4.73,3.63a74.34,74.34,0,0,0-2.69,11.4,11,11,0,0,0,1.28,7.48,5.07,5.07,0,0,1,.13,2.54c-1.26,4.63-2.41,8.58-2.73,13.36a1.69,1.69,0,0,0,.78,1.53h0a.62.62,0,0,0,.88-.21c1.31-2.31,1.24-5.09,2.44-7.47,2.67-5.33,3.09-5.56,6.23-6.85,6.13-2.49,13.27-1.33,19.7-1.54a97.89,97.89,0,0,0,12.44-1.19c2.65-.43,7-.56,8.92-2.76a3.35,3.35,0,0,0-.57-4.85c-2.15-1.92-5.17-2.09-7.91-2.18-6.71-.24-14.39,1.09-20.22-3,6.21-5.46,15.84-3.28,23.35-4.9a15.87,15.87,0,0,0,5-1.88c1-.6,3.14-2,3.43-3.26s-1.62-2.91-2.53-3.49a10.59,10.59,0,0,0-5.18-1.46c-5.27-.28-11.1,3.07-16.09.53,7.64-9.51,24.85-3.19,31.09-14.64a.54.54,0,0,0-.09-.57c-5.9-6.41-14.23,2.86-20.86.28a27.48,27.48,0,0,0,8.12-6.5c2.51-3,4-6.41,5.53-9.95a34.33,34.33,0,0,1,2.67-5.36,20.07,20.07,0,0,1,4.41-4.51C279.56,2995.12,281.29,2992.05,278.81,2990Z"/><path class="l" d="M265.67,3003.29c-4.75,4.74-7.18,10.89-11,16.32-4.23,6.07-10.64,10.58-15.79,15.84-9.85,10.05-18.22,21.6-23,35-.49,1.37,1.69,2,2.17.6,5-14.08,14.22-26,24.81-36.37,4.27-4.18,9.23-7.88,12.85-12.67,4.16-5.53,6.52-12.13,11.48-17.08a1.12,1.12,0,0,0-1.59-1.59Z"/><path class="l" d="M223.1,3053.66a20,20,0,0,1,.56-6.4c.34-1.41-1.83-2-2.17-.6a22.3,22.3,0,0,0-.64,7c.1,1.44,2.35,1.45,2.25,0Z"/><path class="l" d="M237.42,3034.62a20.11,20.11,0,0,1,1.09-6.62c.47-1.38-1.7-2-2.17-.6a22.15,22.15,0,0,0-1.17,7.22,1.13,1.13,0,0,0,2.25,0Z"/><path class="l" d="M249.87,3022.72a23.16,23.16,0,0,1,.29-4.16c.23-1.41-1.94-2-2.17-.59a26,26,0,0,0-.37,4.75,1.13,1.13,0,0,0,2.25,0Z"/><path class="l" d="M244.28,3033.44c5.92-4.35,12.62-3.45,19.29-5.26a1.13,1.13,0,0,0-.6-2.17c-6.87,1.87-13.76,1-19.82,5.48-1.16.85,0,2.81,1.13,2Z"/><path class="l" d="M230.12,3049.1c5.91-3.46,14.15-3.52,20.86-3.69a1.13,1.13,0,0,0,0-2.25c-7.07.18-15.75.34-22,4a1.13,1.13,0,0,0,1.14,1.94Z"/><path class="l" d="M221.19,3063.52c4.52-7.8,17.81-2.36,24.88-2.59,1.45,0,1.45-2.3,0-2.25-7.9.26-21.63-5.25-26.82,3.7a1.13,1.13,0,0,0,1.94,1.14Z"/><path class="k" d="M174.44,3076.57c-5.34-3.41-11.43-6.91-17.91-7.19a24.11,24.11,0,0,0-10.22,2.21,95.58,95.58,0,0,0-10.35,5c-6,3.38-11.62,7.73-15.51,13.5-1.78,2.65-3.36,5.47-3.37,8.76,0,2.8,4.4,4.92,4.58,4.95,5.12.89,10-1,14.58-3h0l.48-.21q-1.19,4.78-2.38,9.56a.61.61,0,0,0,.85.73,7.06,7.06,0,0,1,2.27-.62c-.58,5.25-1.21,10.51-1.74,15.77a23.58,23.58,0,0,0,.34,7.43.48.48,0,0,0-.44.4c-.72,2.92-1.17,7.45,2.56,8.42a4.64,4.64,0,0,0,3.24,2.2.54.54,0,0,0,.18,0,7.32,7.32,0,0,0,6.58.35.44.44,0,0,0,.22.09c4.88,1,9.19-2.95,10-7.61.55-3.08-.44-6.19-1.2-9.15q-1.37-5.36-2.74-10.71a.62.62,0,0,0,.05-.39,35.16,35.16,0,0,1-.65-5.7,5.63,5.63,0,0,1,1.25-.21,8.52,8.52,0,0,0,2,.08c.9-.26,1-.95,1-1.81a51,51,0,0,0-.64-6.29c-.2-1.56-.71-3.37-.85-5.09a70.67,70.67,0,0,0,16.1-1.18,66.51,66.51,0,0,0,8.08-2.08c1.23-.4,2.42-.89,2.65-2.17a.58.58,0,0,0,.3-.44C185,3085.23,179.77,3080,174.44,3076.57Zm-36.82,62.59a4.39,4.39,0,0,0,0,1.49c-1.58-1.11-1.44-3.52-1.05-5.46a19.59,19.59,0,0,0,1.49,3.49A.61.61,0,0,0,137.62,3139.16Zm45-47.64a.49.49,0,0,0-.34.5,1.58,1.58,0,0,1-.9,1.25c-2.16-3-5.1-4-8.6-4.93-.75-.21-1.14.93-.39,1.14,3.1.84,5.94,1.61,7.9,4.31a28,28,0,0,1-3.79.94.67.67,0,0,0,0-1,22.4,22.4,0,0,0-9.61-4.84c-.75-.17-1.14,1-.39,1.14a21.76,21.76,0,0,1,9.34,4.7.65.65,0,0,0,.15.1c-1.42.35-2.85.65-4.29.92a.31.31,0,0,0-.09-.11,18.41,18.41,0,0,0-10.25-4.84c-.76-.11-.84,1.1-.08,1.2a17,17,0,0,1,8.92,4l-.32,0c-2.06.32-4.13.53-6.2.65,0,0,0-.09,0-.14,0-1.12-1.6-2.13-2.42-2.73a15.32,15.32,0,0,0-4-2.08.6.6,0,0,0-.39,1.13,14.7,14.7,0,0,1,3.21,1.57,13.58,13.58,0,0,1,1.29,1c.24.2.48.41.7.63s.44.54.45.43a.49.49,0,0,0,0,.27c-1,0-2,.07-3,.07a.66.66,0,0,0,0-.14c-.37-2.31-2.63-3.05-4.09-4.56-.53-.55-1.43.25-.89.81,1.22,1.25,3.4,2,3.78,3.88l-1.76-.05a6.17,6.17,0,0,1,.18-1.29c.19-.74-.95-1.14-1.14-.38a10.1,10.1,0,0,0,.1,4.34c.35,2.18.65,4.37.88,6.57.1,1,.49,2.4,0,3.33s-.35.54-1.18.52a5.1,5.1,0,0,0-.78,0,5.92,5.92,0,0,0-1.34.29.72.72,0,0,0-.41.07c.76-3.85-.37-8.37-1.52-12-.23-.73-1.41-.5-1.18.24,1.17,3.63,2.42,8.28,1.39,12.1a6.12,6.12,0,0,1-1.76.93c-.39.05,0,.09-.35-.08a5.4,5.4,0,0,0-.47-.3,1.58,1.58,0,0,0-1.05,0,.73.73,0,0,0-.29.19c0-.24-.06-.48-.09-.58a7.65,7.65,0,0,0-.48-1.23c-.33-.7-1.4-.16-1.07.54a6.3,6.3,0,0,1,.55,1.74,1.3,1.3,0,0,0,.37.94.62.62,0,0,0,.72.13c.41-.18.56-.66,1.08-.44.3.13.41.41.79.44a2.3,2.3,0,0,0,1.19-.35.55.55,0,0,0,.85.09,6.82,6.82,0,0,1,1.11-.85,38.18,38.18,0,0,0,.63,5.33.58.58,0,0,0-.05.42c1.28,5,2.84,10,3.8,15a10.42,10.42,0,0,1-1,7.45,7.34,7.34,0,0,1-6.36,3.8c.53-.47-.24-1.3-.84-.86a6.12,6.12,0,0,1-7.07.18.56.56,0,0,0-.63,0,3.23,3.23,0,0,1-2-1.58.46.46,0,0,0-.15-.31,3.46,3.46,0,0,1-.26-1.78.58.58,0,0,0,.62-.84c-2.64-4.5-2.88-9.05-2.32-14.11l1.59-14.33a7.37,7.37,0,0,1,1,.17s0,0,0,0c.11.83.44,1.55,1.41,1.67a2.17,2.17,0,0,1,.65.09c.12.05.14.27.27.33a1.05,1.05,0,0,0,.93.07c2.88-.81,3.71-5,4.24-7.48.16-.75-1-1.15-1.14-.39-.4,1.84-.89,4.62-2.3,6a11,11,0,0,0-1,.87s-.33-.5-.38-.53c-.5-.39-1.47.09-1.53-.95a.09.09,0,0,0,0-.05q2-5.32,3.59-10.76c.22-.74-.91-1.13-1.13-.38q-1.56,5.22-3.44,10.33a8,8,0,0,0-4.12.16q1.34-5.39,2.68-10.77a.6.6,0,0,0-.1-.52,25.91,25.91,0,0,1,2.82-2.92.61.61,0,0,0-.81-.9,28.33,28.33,0,0,0-4.76,5.49l-1.92.83c1.34-2.06,3.36-3.5,5.27-5.07.6-.49-.2-1.39-.8-.89-2.42,2-4.79,3.73-6.2,6.59a.43.43,0,0,1,0,.05,27.52,27.52,0,0,1-4.2,1.22,21.62,21.62,0,0,1,6.54-6.41c.65-.41.11-1.49-.55-1.08a23.3,23.3,0,0,0-7.52,7.62l0,.11a16.4,16.4,0,0,1-3.06.06c.14-.21.26-.44.42-.65a11.42,11.42,0,0,1,1.5-1.45l3.42-3c.59-.5-.22-1.4-.8-.89l-3.42,3a16,16,0,0,0-1.29,1.18c-.4.42-.64,1-1,1.44h0a9,9,0,0,1-2.51-.35c-2-.66-1.94-2.34-1.46-4a25.14,25.14,0,0,1,2.21-5.11,34.59,34.59,0,0,1,6.66-8.33c5.73-5.31,12.91-8.95,20.08-11.91,3.8-1.57,7.69-2.53,11.81-1.87a33.19,33.19,0,0,1,10.56,4.08C175.43,3078.32,183.75,3083.31,182.67,3091.52Z"/><path class="k" d="M148.22,3099.55a.6.6,0,0,0-1.07.54c1,2,2.24,4.77,1.77,7.1-.14.76,1.06.83,1.21.08C150.63,3104.73,149.33,3101.78,148.22,3099.55Z"/><path class="k" d="M148.13,3139.43a.62.62,0,0,0-.71-.47.6.6,0,0,0-.47.71,1.74,1.74,0,0,1-.34,1.76.6.6,0,0,0,.17.83.61.61,0,0,0,.83-.17A2.79,2.79,0,0,0,148.13,3139.43Z"/><path class="k" d="M185.7,3081c-1.28-5.53-4.31-10.86-9.17-14s-10.74-3.92-16.35-4.11c-12.6-.44-24.61,3.41-33.22,12.87-4.38,4.81-8.18,10.4-10,16.7-.81,2.78-1.69,6.43.08,9,1.2,1.74,4.47,3,5.89,1.9.36-.29-.18-.94-.41-1.21a33.91,33.91,0,0,1,7.17-4.83c3.33-1.56,6.91-1.66,10.51-1.95,7.33-.59,14.49-2.31,21.65-3.91,3.51-.78,7-1.43,10.61-.88,3.22.5,6.15,2.11,9.32,2.63C187.66,3094.22,186.46,3084.26,185.7,3081Z"/><polyline class="m" points="237.37 3092.7 237.37 3118.45 338.74 3118.45 338.74 3050.07"/><polyline class="m" points="146.47 3151.43 146.47 3165.91 288.05 3165.91 288.05 3118.45"/><text class="n" transform="translate(190.8 1981.68)">Diagnosis</text><text class="n" transform="translate(189.8 2427.68)">Diversity</text><text class="n" transform="translate(182.8 2880.68)">Evolution</text><text class="o" transform="translate(405 2091.6)">A sample of DNA can be compa<tspan class="p" x="519.71" y="0">r</tspan><tspan x="533.12" y="0">ed to kn</tspan><tspan class="q" x="668.16" y="0">o</tspan><tspan x="688.72" y="0">wn </tspan><tspan x="0" y="46.8">sequences of DNA to establish the sampl</tspan><tspan class="r" x="674.15" y="46.8">e</tspan><tspan x="693.75" y="46.8">s type, </tspan><tspan x="0" y="93.6">for </tspan><tspan class="p" x="56.82" y="93.6">e</tspan><tspan x="76.05" y="93.6">xample to determine if a patien</tspan><tspan class="s" x="591.71" y="93.6">t</tspan><tspan x="604.61" y="93.6">s DNA is </tspan><tspan x="0" y="140.4">similar to the DNA of a person with a genetic </tspan><tspan x="0" y="187.2">disease. </tspan></text><text class="o" transform="translate(408.62 2518.6)">DNA f<tspan class="p" x="95.05" y="0">r</tspan><tspan x="108.46" y="0">om many members of a population can be </tspan><tspan x="0" y="46.8">compa</tspan><tspan class="p" x="111.52" y="46.8">r</tspan><tspan x="124.92" y="46.8">ed to determine h</tspan><tspan class="q" x="422.39" y="46.8">o</tspan><tspan x="442.95" y="46.8">w similar members a</tspan><tspan class="p" x="783.77" y="46.8">r</tspan><tspan x="797.18" y="46.8">e </tspan><tspan x="0" y="93.6">to each other, i.e. h</tspan><tspan class="p" x="316.98" y="93.6">o</tspan><tspan x="337.55" y="93.6">w diverse the population is. </tspan><tspan x="0" y="140.4">Populations with high diversity a</tspan><tspan class="p" x="527.14" y="140.4">r</tspan><tspan x="540.55" y="140.4">e mo</tspan><tspan class="q" x="624.36" y="140.4">r</tspan><tspan x="637.77" y="140.4">e </tspan><tspan class="p" x="668.21" y="140.4">r</tspan><tspan x="681.62" y="140.4">esilient, </tspan><tspan x="0" y="187.2">so diversity can be used to determine which</tspan><tspan x="0" y="234">populations a</tspan><tspan class="p" x="223.23" y="234">r</tspan><tspan x="236.64" y="234">e susceptible to th</tspan><tspan class="q" x="539.46" y="234">r</tspan><tspan x="552.87" y="234">eats.</tspan></text><text class="o" transform="translate(410.62 2973.6)">DNA f<tspan class="p" x="95.05" y="0">r</tspan><tspan x="108.46" y="0">om diffe</tspan><tspan class="q" x="243.94" y="0">r</tspan><tspan x="257.34" y="0">ent o</tspan><tspan class="r" x="342.68" y="0">r</tspan><tspan x="356.46" y="0">ganisms can be used to </tspan><tspan x="0" y="46.8">estimate </tspan><tspan class="p" x="151.21" y="46.8">e</tspan><tspan x="170.43" y="46.8">volutionary </tspan><tspan class="q" x="361.72" y="46.8">r</tspan><tspan x="375.13" y="46.8">elationships, </tspan><tspan class="p" x="589.11" y="46.8">b</tspan><tspan x="610.01" y="46.8">y turning </tspan><tspan x="0" y="93.6">the similarity between any two samples into a</tspan><tspan x="0" y="140.4">measu</tspan><tspan class="p" x="109.64" y="140.4">r</tspan><tspan x="123.05" y="140.4">e of distance, so that samples which a</tspan><tspan class="q" x="745.4" y="140.4">r</tspan><tspan x="758.81" y="140.4">e </tspan><tspan x="0" y="187.2">close together a</tspan><tspan class="p" x="264" y="187.2">r</tspan><tspan x="277.41" y="187.2">e thought to be close </tspan><tspan class="q" x="637.46" y="187.2">r</tspan><tspan x="650.86" y="187.2">elations. </tspan></text></svg>