<?xml version="1.0" encoding="UTF-8"?><svg xmlns="http://www.w3.org/2000/svg" width="2.03in" height="1.79in" xmlns:xlink="http://www.w3.org/1999/xlink" viewBox="0 0 145.87 129.09"><defs><style>.h,.i,.j,.k,.l,.m,.n{fill:none;}.h,.i,.j,.l,.m{stroke:#1d1d1b;stroke-linejoin:round;}.h,.i,.j,.m{stroke-linecap:round;}.i{stroke-dasharray:0 0 6.02 3.01;}.i,.m{stroke-width:.5px;}.j,.l{stroke-width:.75px;}.k{isolation:isolate;}.o{fill:#fff;}.p{fill:#1d1d1b;}.q{fill:#575756;}.n{mix-blend-mode:multiply;}</style><symbol id="a" viewBox="0 0 6.57 5.64"><polyline class="h" points="6.07 4.22 1.43 5.14 .5 .5"/></symbol></defs><g class="k"><g id="g"><rect class="o" x="14.29" y="4.94" width="117.69" height="117.69"/><path class="p" d="m131.98,122.88H14.29c-.14,0-.25-.11-.25-.25V4.94c0-.14.11-.25.25-.25h117.69c.14,0,.25.11.25.25v117.69c0,.14-.11.25-.25.25Zm-117.44-.5h117.19V5.19H14.54v117.19Z"/><line class="m" x1="43.72" y1="5.09" x2="43.72" y2="8.09"/><line class="i" x1="43.72" y1="11.1" x2="43.72" y2="117.98"/><line class="m" x1="43.72" y1="119.49" x2="43.72" y2="122.49"/><line class="m" x1="102.56" y1="5.09" x2="102.56" y2="8.09"/><line class="i" x1="102.56" y1="11.1" x2="102.56" y2="117.98"/><line class="m" x1="102.56" y1="119.49" x2="102.56" y2="122.49"/><g class="n"><rect class="q" x="-10.08" y="63.66" width="166.44" height=".25" transform="translate(-23.68 70.4) rotate(-45)"/></g><g class="n"><rect class="q" x="72.76" y="-19.33" width=".25" height="165.71" transform="translate(-23.58 70.14) rotate(-45)"/></g><line class="m" x1="131.84" y1="34.37" x2="128.84" y2="34.37"/><line class="i" x1="125.83" y1="34.37" x2="18.94" y2="34.37"/><line class="m" x1="17.44" y1="34.37" x2="14.44" y2="34.37"/><line class="m" x1="131.84" y1="93.21" x2="128.84" y2="93.21"/><line class="i" x1="125.83" y1="93.21" x2="18.94" y2="93.21"/><line class="m" x1="17.44" y1="93.21" x2="14.44" y2="93.21"/><path class="l" d="m71.8,30.15c2.4,0,4.35,1.95,4.35,4.35s-1.95,4.35-4.35,4.35"/><polyline class="j" points="73.98 28.64 71.77 30.11 73.24 32.33"/><use width="6.57" height="5.64" transform="translate(73.24 36.29) rotate(45) scale(.56)" xlink:href="#a"/><path class="l" d="m71.8,88.88c2.4,0,4.35,1.95,4.35,4.35s-1.95,4.35-4.35,4.35"/><polyline class="j" points="73.98 87.37 71.77 88.85 73.24 91.06"/><use width="6.57" height="5.64" transform="translate(73.24 95.03) rotate(45) scale(.56)" xlink:href="#a"/><path class="l" d="m39.41,65.69c0-2.4,1.95-4.35,4.35-4.35s4.35,1.95,4.35,4.35"/><polyline class="j" points="37.9 63.51 39.38 65.72 41.59 64.25"/><use width="6.57" height="5.64" transform="translate(45.56 64.25) rotate(-45) scale(.56)" xlink:href="#a"/><path class="l" d="m98.14,65.69c0-2.4,1.95-4.35,4.35-4.35s4.35,1.95,4.35,4.35"/><polyline class="j" points="96.64 63.51 98.11 65.72 100.32 64.25"/><use width="6.57" height="5.64" transform="translate(104.29 64.25) rotate(-45) scale(.56)" xlink:href="#a"/></g></g></svg>