<?xml version="1.0" encoding="UTF-8"?><svg xmlns="http://www.w3.org/2000/svg" width="2.03in" height="1.79in" viewBox="0 0 145.87 129.09"><defs><style>.g{isolation:isolate;}.g,.h,.i,.j{fill:none;}.k{fill:#fff;}.l{fill:#1d1d1b;}.m{fill:#86a344;}.n{fill:#575756;}.h,.j{stroke:#1d1d1b;stroke-linecap:round;stroke-linejoin:round;stroke-width:.5px;}.i{mix-blend-mode:multiply;}.j{stroke-dasharray:0 0 6.76 3.38;}</style></defs><g class="g"><g id="f"><polygon class="m" points="101.06 92.81 44.94 92.81 44.94 64.54 72.95 36.28 101.06 36.28 101.06 92.81"/><path class="l" d="m101.06,93.06h-56.12c-.14,0-.25-.11-.25-.25v-28.27c0-.07.03-.13.07-.18l28-28.27s.11-.07.18-.07h28.12c.14,0,.25.11.25.25v56.53c0,.14-.11.25-.25.25Zm-55.87-.5h55.62v-56.03h-27.76l-27.86,28.12v27.91Z"/><polygon class="k" points="73.91 121.08 101.06 92.81 101.06 36.28 72.95 36.28 72.95 64.54 73.91 92.81 73.91 121.08"/><path class="l" d="m73.91,121.33s-.06,0-.09-.02c-.09-.04-.16-.13-.16-.23v-28.27l-.97-28.26v-28.27c0-.14.11-.25.25-.25h28.12c.14,0,.25.11.25.25v56.53c0,.06-.02.13-.07.17l-27.15,28.27s-.11.08-.18.08Zm-.72-84.8v28.02l.97,28.26v27.65l26.65-27.75v-56.18h-27.62Z"/><polygon class="m" points="73.91 121.08 101.06 92.81 101.06 64.54 72.95 64.54 75.44 92.81 73.91 121.08"/><path class="l" d="m73.91,121.33s-.07,0-.1-.02c-.1-.04-.16-.14-.15-.24l1.53-28.27-2.5-28.23c0-.07.02-.14.06-.19s.11-.08.18-.08h28.12c.14,0,.25.11.25.25v28.27c0,.06-.02.13-.07.17l-27.15,28.27s-.11.08-.18.08Zm-.69-56.53l2.47,27.99-1.49,27.63,26.61-27.71v-27.92h-27.59Z"/><g class="i"><rect class="n" x="76.51" y="92.68" width="22.5" height=".25"/></g><g class="i"><rect class="n" x="76.51" y="36.15" width="22.5" height=".25"/></g><g class="i"><polygon class="n" points="96.02 87.04 80.11 70.48 80.3 70.31 96.2 86.87 96.02 87.04"/></g><rect class="l" x="67.31" y="50.72" width="38.33" height=".5" transform="translate(-10.66 76.28) rotate(-45.12)"/><polygon class="m" points="101.06 64.54 73.87 63.65 72.95 36.28 101.06 36.28 101.06 64.54"/><path class="l" d="m101.06,64.79h0l-27.19-.89c-.13,0-.24-.11-.24-.24l-.92-27.38c0-.07.02-.13.07-.18.05-.05.11-.08.18-.08h28.12c.14,0,.25.11.25.25v28.27c0,.07-.03.13-.08.18-.05.04-.11.07-.17.07Zm-26.95-1.38l26.7.87v-27.76h-27.61l.91,26.88Z"/><g class="i"><rect class="n" x="76.02" y="50.06" width="23.02" height=".25" transform="translate(-10.13 75.51) rotate(-44.37)"/></g><rect class="l" x="72.95" y="64.42" width="28.12" height=".25"/><polygon class="k" points="72.09 121.08 44.94 92.81 44.94 64.54 73.06 64.54 73.06 64.54 72.09 92.81 72.09 121.08"/><path class="l" d="m72.09,121.33c-.07,0-.13-.03-.18-.08l-27.15-28.27s-.07-.11-.07-.17v-28.27c0-.14.11-.25.25-.25h28.12c.07,0,.13.03.18.08.05.05.07.11.07.18l-.97,28.27v28.26c0,.1-.06.19-.16.23-.03.01-.06.02-.09.02Zm-26.9-28.62l26.65,27.75v-27.65l.96-28.02h-27.61v27.92Z"/><polygon class="m" points="72.09 121.08 44.94 92.81 44.94 64.54 73.06 64.54 70.56 92.81 72.09 121.08"/><path class="l" d="m72.09,121.33c-.07,0-.13-.03-.18-.08l-27.15-28.27s-.07-.11-.07-.17v-28.27c0-.14.11-.25.25-.25h28.12c.07,0,.14.03.18.08s.07.12.06.19l-2.5,28.27,1.53,28.23c0,.1-.05.2-.15.24-.03.01-.07.02-.1.02Zm-26.9-28.62l26.61,27.71-1.49-27.59,2.47-28.03h-27.59v27.92Z"/><g class="i"><rect class="n" x="47" y="92.68" width="22.5" height=".25"/></g><g class="i"><rect class="n" x="46.59" y="78.72" width="23.21" height=".25" transform="translate(-38.54 63.17) rotate(-44.37)"/></g><polygon class="k" points="73.06 64.39 44.94 64.39 73.06 36.28 73.06 64.39"/><path class="l" d="m73.06,64.64h-28.12c-.1,0-.19-.06-.23-.15s-.02-.2.05-.27l28.12-28.12c.07-.07.18-.09.27-.05.09.04.15.13.15.23v28.12c0,.14-.11.25-.25.25Zm-27.51-.5h27.26v-27.26l-27.26,27.26Z"/><rect class="l" x="69.07" y="55.51" width=".5" height="10.58" transform="translate(-22.69 66.83) rotate(-45)"/><polygon class="k" points="72.57 63.72 45.24 63.45 44.94 36.28 72.3 36.28 72.57 63.72"/><path class="l" d="m72.57,63.97h0l-27.33-.27c-.14,0-.25-.11-.25-.25l-.3-27.17c0-.07.03-.13.07-.18s.11-.07.18-.07h27.35c.14,0,.25.11.25.25l.27,27.45c0,.07-.03.13-.07.18s-.11.07-.18.07Zm-27.08-.77l26.83.27-.27-26.94h-26.85l.29,26.68Z"/><g class="i"><rect class="n" x="42.3" y="49.9" width="32.73" height=".25" transform="translate(-18.19 56.13) rotate(-45)"/></g><g class="i"><rect class="n" x="58.54" y="33.66" width=".25" height="32.73" transform="translate(-18.19 56.13) rotate(-45)"/></g><line class="h" x1="45.06" y1="52.25" x2="47.83" y2="53.4"/><line class="j" x1="50.96" y1="54.69" x2="68.14" y2="61.81"/><line class="h" x1="69.71" y1="62.46" x2="72.48" y2="63.6"/><line class="h" x1="61.07" y1="36.48" x2="62.22" y2="39.25"/><line class="j" x1="63.52" y1="42.37" x2="70.64" y2="59.56"/><line class="h" x1="71.28" y1="61.12" x2="72.43" y2="63.89"/><g class="i"><polygon class="n" points="92.43 91.24 92.37 84.92 92.62 84.92 92.68 91.23 92.43 91.24"/><path class="n" d="m91.65,85.89l-.19-.17.89-.99c.05-.05.13-.05.18,0l.99.89-.17.19-.9-.8-.8.9Z"/></g></g></g></svg>