<?xml version="1.0" encoding="UTF-8"?><svg xmlns="http://www.w3.org/2000/svg" width="2.03in" height="1.79in" viewBox="0 0 145.87 129.09"><defs><style>.g{isolation:isolate;}.g,.h,.i,.j{fill:none;}.k{fill:#fff;}.l{fill:#1d1d1b;}.m{fill:#86a344;}.n{fill:#575756;}.h{stroke-dasharray:0 0 6.07 3.03;}.h,.i{stroke:#1d1d1b;stroke-linecap:round;stroke-linejoin:round;stroke-width:.5px;}.j{mix-blend-mode:multiply;}</style></defs><g class="g"><g id="f"><rect class="m" x="54.24" y="64.54" width="37.21" height="28.27"/><path class="l" d="m91.45,93.06h-37.21c-.14,0-.25-.11-.25-.25v-28.27c0-.14.11-.25.25-.25h37.21c.14,0,.25.11.25.25v28.27c0,.14-.11.25-.25.25Zm-36.96-.5h36.71v-27.77h-36.71v27.77Z"/><polygon class="k" points="71.93 121.07 54.76 102.12 55.19 64.54 72.9 64.54 72.9 64.54 71.93 92.81 71.93 121.07"/><path class="l" d="m71.93,121.32c-.07,0-.14-.03-.19-.08l-17.17-18.95s-.07-.11-.06-.17l.43-37.58c0-.14.11-.25.25-.25h17.71c.07,0,.13.03.18.08s.07.11.07.18l-.97,28.27v28.26c0,.1-.06.2-.16.23-.03.01-.06.02-.09.02Zm-16.92-19.3l16.67,18.4v-27.62l.96-28.02h-17.21l-.42,37.23Z"/><polygon class="m" points="72.9 64.39 72.81 64.54 72.9 64.54 70.4 92.81 71.93 121.08 52.96 101.12 53.01 64.54 57.28 64.54 53.01 56.17 72.9 36.28 72.9 64.39"/><path class="l" d="m71.94,121.33c-.07,0-.13-.03-.18-.08l-18.98-19.96s-.07-.11-.07-.17l.05-36.58c0-.14.11-.25.25-.25h3.87l-4.09-8.01c-.05-.1-.03-.21.05-.29l19.89-19.89c.07-.07.18-.09.27-.05.09.04.15.13.15.23v28.11s0,.05-.01.08c0,.03.01.06.01.1l-2.5,28.27,1.53,28.23c0,.1-.05.2-.15.24-.03.01-.07.02-.1.02Zm-18.73-20.31l18.44,19.39-1.5-27.59,2.48-28.1s-.03-.03-.04-.05c-.04-.08-.04-.17,0-.25l.05-.09v-27.44l-19.34,19.34,4.19,8.21c.04.08.04.17,0,.24-.04.07-.13.12-.21.12h-4.02l-.05,36.23Z"/><g class="j"><rect class="n" x="56.64" y="92.68" width="12.7" height=".25"/></g><g class="j"><rect class="n" x="52.93" y="76.03" width="15.59" height=".25" transform="translate(-35.87 63.64) rotate(-44.05)"/></g><rect class="l" x="68.91" y="55.51" width=".5" height="10.58" transform="translate(-22.74 66.71) rotate(-45)"/><polygon class="k" points="72.41 63.72 52.85 55.53 44.78 36.28 60.76 36.28 72.41 63.72"/><path class="l" d="m72.41,63.97s-.07,0-.1-.02l-19.56-8.19c-.06-.03-.11-.07-.13-.13l-8.06-19.25c-.03-.08-.02-.17.02-.24.05-.07.12-.11.21-.11h15.97c.1,0,.19.06.23.15l11.66,27.45c.04.09.02.2-.05.27-.05.05-.11.07-.18.07Zm-19.37-8.64l18.9,7.92-11.35-26.73h-15.43l7.88,18.81Z"/><polygon class="m" points="49.54 47.64 52.53 44.65 72.41 63.72 52.85 55.53 49.54 47.64"/><path class="l" d="m72.41,63.97s-.07,0-.1-.02l-19.56-8.19c-.06-.03-.11-.07-.13-.13l-3.3-7.89c-.04-.09-.02-.2.05-.27l2.99-2.99c.1-.1.25-.1.35,0l19.88,19.07c.09.08.1.22.04.32-.05.07-.13.11-.21.11Zm-19.37-8.64l18.23,7.64-18.73-17.97-2.7,2.7,3.2,7.64Z"/><polygon class="m" points="60.91 36.27 53.34 43.85 72.41 63.73 60.91 36.27"/><path class="l" d="m72.41,63.98c-.07,0-.13-.03-.18-.08l-19.07-19.88c-.09-.1-.09-.25,0-.35l7.58-7.58c.06-.06.14-.09.22-.07.08.02.15.07.18.15l11.5,27.45c.05.11,0,.24-.09.31-.04.03-.09.04-.14.04Zm-18.72-20.12l17.97,18.73-10.84-25.87-7.14,7.14Z"/><rect class="l" x="58.48" y="38.51" width=".5" height="10.98" transform="translate(13.08 101.47) rotate(-88.38)"/><polygon class="m" points="44.78 36.28 55.6 47.59 52.85 55.53 44.78 36.28"/><path class="l" d="m52.85,55.78c-.1,0-.19-.06-.23-.15l-8.06-19.25c-.05-.11,0-.24.09-.31.1-.07.23-.05.32.04l10.82,11.31c.06.07.09.17.06.25l-2.75,7.94c-.03.1-.12.16-.23.17h0Zm-7.31-18.35l7.29,17.41,2.49-7.18-9.78-10.23Z"/><polygon class="m" points="52.96 101.12 61.41 92.75 61.41 64.39 52.96 56.12 52.96 101.12"/><path class="l" d="m52.96,101.37s-.07,0-.1-.02c-.09-.04-.15-.13-.15-.23v-45c0-.1.06-.19.15-.23.09-.04.2-.02.27.05l8.45,8.27s.08.11.08.18v28.36c0,.07-.03.13-.07.18l-8.45,8.37s-.11.07-.18.07Zm.25-44.65v43.8l7.95-7.88v-28.15l-7.95-7.78Z"/><rect class="l" x="52.97" y="92.5" width="8.44" height=".5"/><line class="i" x1="72.31" y1="73.47" x2="70.19" y2="75.59"/><line class="h" x1="68.05" y1="77.74" x2="56.25" y2="89.54"/><line class="i" x1="55.18" y1="90.61" x2="53.05" y2="92.73"/><polygon class="k" points="73.94 121.07 91.11 102.12 90.69 64.54 72.97 64.54 72.97 64.54 73.94 92.81 73.94 121.07"/><path class="l" d="m73.94,121.32s-.06,0-.09-.02c-.1-.04-.16-.13-.16-.23v-28.27l-.97-28.26c0-.07.02-.13.07-.18s.11-.08.18-.08h17.71c.14,0,.25.11.25.25l.43,37.58c0,.06-.02.12-.06.17l-17.17,18.95c-.05.05-.12.08-.19.08Zm-.71-56.53l.96,28.01v27.63l16.67-18.4-.42-37.23h-17.21Z"/><polygon class="m" points="92.92 101.12 92.87 64.54 90.86 64.54 92.87 56.17 72.97 36.28 72.97 64.39 73.09 64.54 72.97 64.54 75.47 92.81 73.94 121.07 92.92 101.12"/><path class="l" d="m73.94,121.32s-.07,0-.1-.02c-.1-.04-.16-.14-.15-.24l1.53-28.27-2.5-28.23s0-.07.01-.1c0-.02-.01-.05-.01-.07v-28.12c0-.1.06-.19.15-.23.09-.04.2-.02.27.05l19.9,19.9c.06.06.09.15.07.23l-1.93,8.06h1.69c.14,0,.25.11.25.25l.05,36.58c0,.06-.02.13-.07.17l-18.98,19.95c-.05.05-.11.08-.18.08Zm-.7-56.58l2.48,28.05-1.49,27.62,18.44-19.39-.05-36.23h-1.76c-.08,0-.15-.04-.2-.1s-.06-.14-.05-.21l1.97-8.24-19.37-19.37v27.43l.06.08c.06.08.07.18.03.26-.02.04-.04.07-.07.09Z"/><g class="j"><rect class="n" x="76.54" y="92.68" width="12.7" height=".25"/></g><g class="j"><rect class="n" x="85.02" y="68.36" width=".25" height="15.59" transform="translate(-28.78 84.48) rotate(-45.99)"/></g><rect class="l" x="71.42" y="60.55" width="10.58" height=".5" transform="translate(-20.52 72.05) rotate(-45)"/><polygon class="k" points="73.46 63.72 93.03 55.53 101.09 36.28 85.12 36.28 73.46 63.72"/><path class="l" d="m73.46,63.97c-.07,0-.13-.03-.18-.07-.07-.07-.09-.18-.05-.27l11.66-27.45c.04-.09.13-.15.23-.15h15.97c.08,0,.16.04.21.11.05.07.05.16.02.24l-8.06,19.25c-.03.06-.07.11-.13.13l-19.56,8.19s-.06.02-.1.02Zm11.82-27.45l-11.35,26.73,18.9-7.92,7.88-18.81h-15.43Z"/><polygon class="m" points="96.33 47.64 93.34 44.65 73.46 63.72 93.03 55.53 96.33 47.64"/><path class="l" d="m73.46,63.97c-.08,0-.16-.04-.21-.11-.07-.1-.05-.23.04-.32l19.88-19.07c.1-.09.25-.09.35,0l2.99,2.99c.07.07.09.18.05.27l-3.3,7.89c-.03.06-.07.11-.13.13l-19.56,8.19s-.06.02-.1.02Zm19.87-18.97l-18.73,17.97,18.23-7.64,3.2-7.64-2.7-2.7Z"/><polygon class="m" points="84.96 36.27 92.54 43.85 73.46 63.73 84.96 36.27"/><path class="l" d="m73.46,63.98s-.09-.01-.14-.04c-.1-.07-.14-.19-.09-.31l11.5-27.45c.03-.08.1-.13.18-.15.08-.02.17,0,.22.07l7.58,7.58c.1.1.1.25,0,.35l-19.07,19.88c-.05.05-.11.08-.18.08Zm11.58-27.26l-10.84,25.87,17.98-18.73-7.14-7.14Z"/><rect class="l" x="81.66" y="43.76" width="10.98" height=".5" transform="translate(-1.17 2.4) rotate(-1.57)"/><polygon class="m" points="101.09 36.28 90.28 47.59 93.03 55.53 101.09 36.28"/><path class="l" d="m93.03,55.78h0c-.1,0-.19-.07-.23-.17l-2.75-7.94c-.03-.09,0-.19.06-.25l10.81-11.31c.08-.09.22-.1.32-.04.1.07.14.19.09.31l-8.06,19.25c-.04.09-.13.15-.23.15Zm-2.46-8.13l2.49,7.18,7.29-17.41-9.78,10.23Z"/><polygon class="m" points="92.92 101.12 84.46 92.75 84.46 64.39 92.92 56.12 92.92 101.12"/><path class="l" d="m92.92,101.37c-.06,0-.13-.02-.18-.07l-8.45-8.37s-.07-.11-.07-.18v-28.36c0-.07.03-.13.08-.18l8.45-8.27c.07-.07.18-.09.27-.05.09.04.15.13.15.23v45c0,.1-.06.19-.15.23-.03.01-.06.02-.1.02Zm-8.2-8.72l7.95,7.88v-43.8l-7.95,7.78v28.15Z"/><rect class="l" x="84.46" y="92.5" width="8.44" height=".5"/><line class="i" x1="73.56" y1="73.47" x2="75.68" y2="75.59"/><line class="h" x1="77.83" y1="77.74" x2="89.63" y2="89.54"/><line class="i" x1="90.7" y1="90.61" x2="92.82" y2="92.73"/></g></g></svg>