<?xml version="1.0" encoding="UTF-8"?><svg xmlns="http://www.w3.org/2000/svg" width="2.03in" height="1.79in" viewBox="0 0 145.87 129.09"><defs><style>.g,.h,.i,.j,.k,.l,.m,.n{fill:none;}.g,.i,.o,.j,.k,.l,.n{stroke:#1d1d1b;stroke-linejoin:round;}.g,.i,.j,.k,.l,.n{stroke-linecap:round;}.g,.o{stroke-width:.75px;}.h{isolation:isolate;}.p,.o{fill:#fff;}.q{fill:#1d1d1b;}.r{fill:#86a344;}.s{fill:#575756;}.i{stroke-dasharray:0 0 5.89 2.94;}.i,.j,.k,.l,.n{stroke-width:.5px;}.j{stroke-dasharray:0 0 0 0 4.62 2.31 .87 2.31;}.l{stroke-dasharray:0 0 .87 2.31;}.m{mix-blend-mode:multiply;}.n{stroke-dasharray:0 0 6.76 3.38;}</style></defs><g class="h"><g id="f"><rect class="r" x="46.97" y="36.28" width="55.38" height="56.53"/><path class="q" d="m102.35,93.06h-55.38c-.14,0-.25-.11-.25-.25v-56.53c0-.14.11-.25.25-.25h55.38c.14,0,.25.11.25.25v56.53c0,.14-.11.25-.25.25Zm-55.13-.5h54.88v-56.03h-54.88v56.03Z"/><polygon class="p" points="72.22 23.88 45.38 36.28 45.38 92.81 73.64 121.08 73.64 92.81 74.23 64.54 74.02 36.28 72.22 23.88"/><path class="q" d="m73.64,121.33c-.06,0-.13-.03-.18-.07l-28.27-28.27s-.07-.11-.07-.18v-56.53c0-.1.06-.19.15-.23l26.85-12.4c.07-.03.15-.03.22,0,.07.04.12.11.13.18l1.8,12.4.21,28.3-.59,28.27v28.26c0,.1-.06.19-.15.23-.03.01-.06.02-.1.02Zm-28.02-28.62l27.77,27.77v-27.66l.59-28.27-.21-28.26-1.75-12.03-26.4,12.19v56.27Z"/><line class="k" x1="47.04" y1="36.28" x2="50.04" y2="36.28"/><line class="i" x1="52.99" y1="36.28" x2="69.18" y2="36.28"/><line class="k" x1="70.65" y1="36.28" x2="73.65" y2="36.28"/><polygon class="r" points="72.22 23.88 45.38 36.28 45.38 64.54 45.38 92.81 73.64 121.08 72.05 92.81 73.64 64.54 61.38 47.58 72.22 23.88"/><path class="q" d="m73.64,121.33c-.06,0-.13-.03-.18-.07l-28.27-28.27s-.07-.11-.07-.18v-56.53c0-.1.06-.19.15-.23l26.85-12.4c.1-.04.21-.02.28.05.07.07.09.19.05.28l-10.79,23.57,12.18,16.84s.05.1.05.16l-1.59,28.27,1.59,28.24c0,.1-.05.2-.15.24-.03.01-.07.02-.1.02Zm-28.02-28.62l27.73,27.73-1.56-27.61,1.59-28.21-12.21-16.89c-.05-.07-.06-.17-.02-.25l10.56-23.09-26.09,12.05v56.27Z"/><g class="m"><rect class="s" x="47.52" y="92.68" width="23.42" height=".25"/></g><line class="k" x1="45.38" y1="36.28" x2="47.01" y2="37.43"/><line class="l" x1="48.9" y1="38.76" x2="50.55" y2="39.93"/><line class="j" x1="51.49" y1="40.6" x2="58.8" y2="45.76"/><line class="k" x1="59.75" y1="46.43" x2="61.38" y2="47.58"/><g class="m"><rect class="s" x="47.8" y="78.55" width="23.42" height=".25" transform="translate(-38.2 65.13) rotate(-45)"/></g><line class="k" x1="45.44" y1="36.34" x2="47.57" y2="38.46"/><line class="n" x1="49.95" y1="40.85" x2="70.26" y2="61.16"/><line class="k" x1="71.46" y1="62.36" x2="73.58" y2="64.48"/><polygon class="p" points="75.2 121.08 102.35 92.81 102.35 36.28 74.23 36.28 74.23 64.54 75.2 92.81 75.2 121.08"/><path class="q" d="m75.2,121.33s-.06,0-.09-.02c-.09-.04-.16-.13-.16-.23v-28.27l-.97-28.26v-28.27c0-.14.11-.25.25-.25h28.12c.14,0,.25.11.25.25v56.53c0,.06-.02.13-.07.17l-27.15,28.27s-.11.08-.18.08Zm-.72-84.8v28.02l.97,28.26v27.65l26.65-27.75v-56.18h-27.62Z"/><polygon class="r" points="75.2 121.08 102.35 92.81 102.35 64.54 74.23 64.54 76.73 92.81 75.2 121.08"/><path class="q" d="m75.2,121.33s-.07,0-.1-.02c-.1-.04-.16-.14-.15-.24l1.53-28.27-2.5-28.23c0-.07.02-.14.06-.19s.11-.08.18-.08h28.12c.14,0,.25.11.25.25v28.27c0,.06-.02.13-.07.17l-27.15,28.27s-.11.08-.18.08Zm-.69-56.53l2.47,27.99-1.49,27.63,26.61-27.71v-27.92h-27.59Z"/><g class="m"><rect class="s" x="77.79" y="92.68" width="22.5" height=".25"/></g><g class="m"><rect class="s" x="77.79" y="36.15" width="22.5" height=".25"/></g><g class="m"><polygon class="s" points="97.31 87.04 81.4 70.48 81.58 70.31 97.49 86.87 97.31 87.04"/></g><rect class="q" x="68.73" y="50.86" width="38.32" height=".5" transform="translate(-10.61 76.3) rotate(-44.53)"/><polygon class="r" points="102.35 64.54 75.16 63.65 74.23 36.28 102.35 36.28 102.35 64.54"/><path class="q" d="m102.35,64.79h0l-27.19-.89c-.13,0-.24-.11-.24-.24l-.92-27.38c0-.07.02-.13.07-.18.05-.05.11-.08.18-.08h28.12c.14,0,.25.11.25.25v28.27c0,.07-.03.13-.08.18-.05.04-.11.07-.17.07Zm-26.95-1.38l26.7.87v-27.76h-27.61l.91,26.88Z"/><g class="m"><polygon class="s" points="80.91 58.78 80.73 58.6 96.64 42.04 96.82 42.22 80.91 58.78"/></g><rect class="q" x="74.23" y="64.42" width="28.12" height=".25"/><path class="q" d="m47.23,63.34l-.26-.7c11.39-4.21,13.76-14,13.79-14.1l.73.17c-.02.1-2.49,10.29-14.26,14.64Z"/><polyline class="g" points="49.37 64.06 46.84 63.25 47.64 60.72"/><polygon class="o" points="75.89 18.9 77.85 14.63 74.39 13.25 72.87 17.69 71.46 17.13 73.08 21.54 77.29 19.46 75.89 18.9"/><rect class="q" x="94.73" y="27.36" width="12.63" height=".75" transform="translate(34.43 108.62) rotate(-65.87)"/><polyline class="g" points="100.83 32.86 98.39 33.92 97.33 31.49"/><path class="q" d="m98.99,15.43h2.67l-.06.42h-2.2l-.21,1.74h1.94l-.05.43h-1.94l-.25,2.06h-.46l.57-4.65Z"/><path class="q" d="m102.18,17.48h.42l-.31,2.6h-.43l.32-2.6Zm.04-.85c0-.07.03-.14.1-.19.06-.05.14-.08.21-.07.06,0,.12.02.18.07.05.05.08.11.07.19,0,.08-.04.14-.1.19-.06.05-.13.08-.21.08-.07,0-.13-.03-.19-.08-.05-.05-.08-.11-.07-.19Z"/><path class="q" d="m104.11,17.48l-.03.63-.05-.07c.12-.19.28-.35.48-.47.2-.12.43-.18.69-.18s.45.07.59.22c.14.15.2.33.18.56l-.24,1.91h-.42l.21-1.78c.02-.16-.01-.28-.1-.38-.09-.1-.23-.15-.41-.15-.17,0-.32.04-.47.13-.15.08-.27.2-.36.35s-.15.32-.18.51l-.16,1.32h-.43l.32-2.6h.38Z"/><path class="q" d="m107.16,17.48h.42l-.31,2.6h-.43l.32-2.6Zm.04-.85c0-.07.03-.14.1-.19.06-.05.14-.08.21-.07.06,0,.12.02.18.07.05.05.08.11.07.19,0,.08-.04.14-.1.19-.06.05-.13.08-.21.08-.07,0-.13-.03-.19-.08-.05-.05-.08-.11-.07-.19Z"/><path class="q" d="m109.13,20.13c-.09,0-.2,0-.32-.03s-.24-.07-.35-.13c-.11-.07-.21-.16-.3-.27l.22-.24c.07.09.15.16.23.21s.16.09.25.11.17.03.26.03c.17,0,.3-.05.38-.15.09-.1.13-.19.13-.28,0-.1-.03-.19-.09-.25s-.14-.11-.23-.15c-.09-.04-.18-.08-.28-.12-.17-.06-.31-.15-.42-.26-.1-.11-.16-.25-.16-.41,0-.08.01-.17.05-.26.03-.09.09-.18.16-.25.07-.08.16-.14.27-.19s.24-.08.39-.08c.06,0,.13.01.23.03.1.01.2.04.32.09.11.05.21.12.31.23l-.21.27c-.08-.11-.18-.19-.3-.23s-.22-.06-.32-.06-.18.02-.25.06-.12.09-.15.15c-.03.06-.05.12-.06.18,0,.08.03.15.08.21.05.06.12.11.2.14s.16.08.25.11c.12.05.22.1.32.17.1.06.17.14.23.23.06.09.09.21.08.35,0,.07-.02.16-.06.25-.03.09-.08.18-.16.26-.07.08-.17.15-.29.21s-.27.08-.45.08Z"/><path class="q" d="m111.54,18.02c.11-.18.27-.33.47-.45s.43-.18.69-.18.44.07.58.22c.13.15.19.33.17.56l-.24,1.91h-.42l.21-1.79c.01-.14-.02-.26-.09-.36-.08-.1-.2-.15-.37-.15s-.34.04-.49.13c-.15.08-.28.2-.38.35-.1.15-.16.32-.19.51l-.16,1.32h-.43l.61-4.97h.42l-.37,3.02v-.11Z"/><path class="q" d="m115.62,19.77c.12,0,.24-.02.35-.06.11-.04.21-.09.31-.16l.17.33c-.13.08-.26.15-.41.19-.15.05-.3.07-.45.07-.26,0-.5-.05-.7-.16-.2-.11-.36-.26-.47-.45-.11-.19-.17-.42-.17-.69,0-.18.03-.35.1-.52.07-.17.16-.33.29-.46.13-.14.28-.25.46-.33.18-.08.39-.12.62-.12.16,0,.3.02.44.06.14.04.26.11.37.2s.2.21.28.35c.08.14.13.31.17.5l-2.31.7-.07-.29,2.08-.62-.16.1c-.06-.19-.15-.34-.29-.46s-.31-.18-.51-.18-.38.05-.54.15c-.16.1-.28.22-.36.38-.09.16-.13.33-.13.52s.04.37.13.52c.08.15.2.26.34.34.15.08.3.12.48.12Z"/><path class="q" d="m118.73,20.12c-.25-.01-.47-.08-.66-.2s-.34-.28-.44-.49-.14-.42-.13-.66c.01-.19.06-.37.14-.54s.19-.32.32-.45c.13-.13.29-.23.47-.3s.38-.1.6-.1c.26.01.49.09.68.22.19.13.33.3.42.49l-.11.12.38-3.11h.43l-.62,4.97h-.43l.09-.7.05.14c-.14.18-.31.33-.52.45-.21.12-.43.17-.67.16Zm.12-.37c.17.01.33-.01.47-.08.15-.07.28-.16.38-.29.11-.12.18-.27.22-.43l.05-.4c-.02-.15-.07-.29-.15-.41-.08-.12-.19-.22-.32-.29-.13-.07-.27-.11-.44-.12-.2,0-.38.03-.55.1-.16.08-.3.19-.4.34-.1.15-.16.33-.18.54-.02.19.01.36.09.52.08.15.19.28.33.37s.31.14.49.15Z"/><path class="q" d="m126.17,16.17c-.14-.09-.31-.17-.51-.24-.2-.07-.39-.11-.59-.11-.18,0-.33.02-.45.07-.12.05-.22.11-.3.19-.08.08-.13.16-.17.25-.03.09-.05.17-.06.24,0,.14.04.27.13.38.09.11.21.21.36.29s.31.16.47.24c.19.08.36.18.53.28.17.11.3.24.41.41.11.16.15.38.14.64,0,.15-.05.31-.11.46-.07.16-.17.3-.29.43-.13.13-.29.24-.48.32s-.43.12-.7.11c-.22,0-.42-.04-.6-.09-.18-.05-.35-.12-.5-.21-.15-.08-.28-.18-.39-.28l.25-.34c.09.09.2.17.33.25.14.08.28.14.44.19s.32.08.49.08c.23,0,.42-.04.58-.13s.29-.2.38-.35c.09-.15.14-.3.14-.46,0-.16-.03-.31-.12-.43-.09-.12-.2-.22-.34-.31-.14-.08-.29-.16-.45-.24-.13-.06-.27-.12-.41-.2-.14-.08-.26-.16-.37-.25-.11-.09-.19-.2-.26-.33s-.09-.28-.08-.45c.02-.24.09-.45.22-.62.13-.17.3-.3.5-.39s.44-.14.7-.14c.17,0,.34.03.49.07.16.04.3.09.45.15.14.06.27.12.38.2l-.21.33Z"/><path class="q" d="m127.18,17.48h.42l-.31,2.6h-.43l.32-2.6Zm.04-.85c0-.07.03-.14.1-.19.06-.05.14-.08.21-.07.06,0,.12.02.18.07.05.05.08.11.07.19,0,.08-.04.14-.1.19-.06.05-.13.08-.21.08-.07,0-.13-.03-.19-.08-.05-.05-.08-.11-.07-.19Z"/><path class="q" d="m129.55,20.12c-.25-.01-.47-.08-.66-.2s-.34-.28-.44-.49-.14-.42-.13-.66c.01-.19.06-.37.14-.54s.19-.32.32-.45c.13-.13.29-.23.47-.3s.38-.1.6-.1c.26.01.49.09.68.22.19.13.33.3.42.49l-.11.12.38-3.11h.43l-.62,4.97h-.43l.09-.7.05.14c-.14.18-.31.33-.52.45-.21.12-.43.17-.67.16Zm.12-.37c.17.01.33-.01.47-.08.15-.07.28-.16.38-.29.11-.12.18-.27.22-.43l.05-.4c-.02-.15-.07-.29-.15-.41-.08-.12-.19-.22-.32-.29-.13-.07-.27-.11-.44-.12-.2,0-.38.03-.55.1-.16.08-.3.19-.4.34-.1.15-.16.33-.18.54-.02.19.01.36.09.52.08.15.19.28.33.37s.31.14.49.15Z"/><path class="q" d="m133.44,19.77c.12,0,.24-.02.35-.06.11-.04.21-.09.31-.16l.17.33c-.13.08-.26.15-.41.19-.15.05-.3.07-.45.07-.26,0-.5-.05-.7-.16-.2-.11-.36-.26-.47-.45-.11-.19-.17-.42-.17-.69,0-.18.03-.35.1-.52.07-.17.16-.33.29-.46.13-.14.28-.25.46-.33.18-.08.39-.12.62-.12.16,0,.3.02.44.06.14.04.26.11.37.2s.2.21.28.35c.08.14.13.31.17.5l-2.31.7-.07-.29,2.08-.62-.16.1c-.06-.19-.15-.34-.29-.46s-.31-.18-.51-.18-.38.05-.54.15c-.16.1-.28.22-.36.38-.09.16-.13.33-.13.52s.04.37.13.52c.08.15.2.26.34.34.15.08.3.12.48.12Z"/><g class="m"><polygon class="s" points="92.43 91.24 92.38 84.92 92.63 84.92 92.68 91.23 92.43 91.24"/><path class="s" d="m91.65,85.89l-.19-.17.89-.99c.05-.05.13-.05.18,0l.99.89-.17.19-.9-.8-.8.9Z"/></g></g></g></svg>