<?xml version="1.0" encoding="UTF-8"?><svg id="g" xmlns="http://www.w3.org/2000/svg" width="2.03in" height="1.79in" xmlns:xlink="http://www.w3.org/1999/xlink" viewBox="0 0 145.87 129.09"><defs><style>.h,.i,.j,.k,.l{fill:none;stroke:#1d1d1b;stroke-linejoin:round;}.h,.i,.j,.l{stroke-linecap:round;}.i,.k{stroke-width:.75px;}.m{fill:#fff;}.n{fill:#1d1d1b;}.j{stroke-dasharray:0 0 6.11 3.05;}.j,.l{stroke-width:.5px;}</style><symbol id="a" viewBox="0 0 6.57 5.64"><polyline class="h" points="6.07 4.22 1.43 5.14 .5 .5"/></symbol></defs><rect class="m" x="14.09" y="4.84" width="117.69" height="117.69"/><path class="n" d="m131.78,122.78H14.09c-.14,0-.25-.11-.25-.25V4.84c0-.14.11-.25.25-.25h117.69c.14,0,.25.11.25.25v117.69c0,.14-.11.25-.25.25Zm-117.44-.5h117.19V5.09H14.34v117.19Z"/><line class="l" x1="14.67" y1="5.42" x2="16.8" y2="7.54"/><line class="j" x1="18.95" y1="9.7" x2="128" y2="118.75"/><line class="l" x1="129.08" y1="119.83" x2="131.2" y2="121.95"/><line class="l" x1="131.2" y1="5.42" x2="129.08" y2="7.54"/><line class="j" x1="126.92" y1="9.7" x2="17.88" y2="118.75"/><line class="l" x1="16.8" y1="119.83" x2="14.67" y2="121.95"/><path class="k" d="m47.53,83.02c1.7-1.7,4.46-1.7,6.16,0s1.7,4.46,0,6.16"/><polyline class="i" points="48 80.41 47.48 83.02 50.09 83.54"/><use width="6.57" height="5.64" transform="translate(52.89 86.34) scale(.56)" xlink:href="#a"/><path class="k" d="m53.7,37.97c1.7,1.7,1.7,4.46,0,6.16s-4.46,1.7-6.16,0"/><polyline class="i" points="56.3 38.44 53.69 37.92 53.17 40.53"/><use width="6.57" height="5.64" transform="translate(50.37 43.33) rotate(90) scale(.56)" xlink:href="#a"/></svg>