<?xml version="1.0" encoding="UTF-8"?><svg xmlns="http://www.w3.org/2000/svg" width="2.03in" height="1.79in" xmlns:xlink="http://www.w3.org/1999/xlink" viewBox="0 0 145.87 129.09"><defs><style>.h,.i,.j,.k,.l,.m,.n{fill:none;}.h,.i,.k,.l,.n{stroke:#1d1d1b;stroke-linejoin:round;}.h,.i,.l,.n{stroke-linecap:round;}.i,.k{stroke-width:.75px;}.j{isolation:isolate;}.o{fill:#fff;}.p{fill:#1d1d1b;}.q{fill:#86a344;}.r{fill:#575756;}.l,.n{stroke-width:.5px;}.m{mix-blend-mode:multiply;}.n{stroke-dasharray:0 0 6.76 3.38;}</style><symbol id="a" viewBox="0 0 6.57 5.64"><polyline class="h" points="6.07 4.22 1.43 5.14 .5 .5"/></symbol></defs><g class="j"><g id="g"><rect class="q" x="44.84" y="36.28" width="56.12" height="56.53"/><path class="p" d="m100.96,93.06h-56.12c-.14,0-.25-.11-.25-.25v-56.53c0-.14.11-.25.25-.25h56.12c.14,0,.25.11.25.25v56.53c0,.14-.11.25-.25.25Zm-55.87-.5h55.62v-56.03h-55.62v56.03Z"/><polygon class="o" points="73.81 121.08 100.96 92.81 100.96 36.28 72.84 36.28 72.84 64.54 73.81 92.81 73.81 121.08"/><path class="p" d="m73.81,121.33s-.06,0-.09-.02c-.09-.04-.16-.13-.16-.23v-28.27l-.97-28.26v-28.27c0-.14.11-.25.25-.25h28.12c.14,0,.25.11.25.25v56.53c0,.06-.02.13-.07.17l-27.15,28.27s-.11.08-.18.08Zm-.72-84.8v28.02l.97,28.26v27.65l26.65-27.75v-56.18h-27.62Z"/><polygon class="q" points="73.81 121.08 100.96 92.81 100.96 64.54 72.84 64.54 75.34 92.81 73.81 121.08"/><path class="p" d="m73.81,121.33s-.07,0-.1-.02c-.1-.04-.16-.14-.15-.24l1.53-28.27-2.5-28.23c0-.07.02-.14.06-.19s.11-.08.18-.08h28.12c.14,0,.25.11.25.25v28.27c0,.06-.02.13-.07.17l-27.15,28.27s-.11.08-.18.08Zm-.69-56.53l2.47,27.99-1.49,27.63,26.61-27.71v-27.92h-27.59Z"/><g class="m"><rect class="r" x="76.41" y="92.68" width="22.5" height=".25"/></g><g class="m"><rect class="r" x="76.41" y="36.15" width="22.5" height=".25"/></g><g class="m"><polygon class="r" points="95.92 87.04 80.01 70.48 80.19 70.31 96.1 86.87 95.92 87.04"/></g><rect class="p" x="67.58" y="50.86" width="38.12" height=".5" transform="translate(-10.83 75.96) rotate(-44.84)"/><polygon class="q" points="100.96 64.54 73.77 63.65 72.84 36.28 100.96 36.28 100.96 64.54"/><path class="p" d="m100.96,64.79h0l-27.19-.89c-.13,0-.24-.11-.24-.24l-.92-27.38c0-.07.02-.13.07-.18.05-.05.11-.08.18-.08h28.12c.14,0,.25.11.25.25v28.27c0,.07-.03.13-.08.18-.05.04-.11.07-.17.07Zm-26.95-1.38l26.7.87v-27.76h-27.61l.91,26.88Z"/><g class="m"><polygon class="r" points="79.52 58.78 79.34 58.6 95.25 42.04 95.43 42.22 79.52 58.78"/></g><rect class="p" x="72.84" y="64.42" width="28.12" height=".25"/><polygon class="o" points="71.99 121.08 44.84 92.81 44.84 36.28 72.96 36.28 72.96 64.54 71.99 92.81 71.99 121.08"/><path class="p" d="m71.99,121.33c-.07,0-.13-.03-.18-.08l-27.15-28.27s-.07-.11-.07-.17v-56.53c0-.14.11-.25.25-.25h28.12c.14,0,.25.11.25.25v28.27l-.97,28.27v28.26c0,.1-.06.19-.16.23-.03.01-.06.02-.09.02Zm-26.9-28.62l26.65,27.75v-27.65l.97-28.27v-28.01h-27.62v56.18Z"/><polygon class="q" points="71.99 121.08 44.84 92.81 44.84 64.54 72.96 64.54 70.46 92.81 71.99 121.08"/><path class="p" d="m71.99,121.33c-.07,0-.13-.03-.18-.08l-27.15-28.27s-.07-.11-.07-.17v-28.27c0-.14.11-.25.25-.25h28.12c.07,0,.14.03.18.08s.07.12.06.19l-2.5,28.27,1.53,28.23c0,.1-.05.2-.15.24-.03.01-.07.02-.1.02Zm-26.9-28.62l26.61,27.71-1.49-27.59,2.47-28.03h-27.59v27.92Z"/><g class="m"><rect class="r" x="46.9" y="92.68" width="22.5" height=".25"/></g><g class="m"><rect class="r" x="46.9" y="36.15" width="22.5" height=".25"/></g><g class="m"><polygon class="r" points="49.88 87.04 49.7 86.87 65.61 70.31 65.79 70.48 49.88 87.04"/></g><rect class="p" x="58.91" y="32.04" width=".5" height="38.12" transform="translate(-18.79 57.04) rotate(-45.17)"/><polygon class="q" points="44.84 64.54 72.08 63.63 72.96 36.28 44.84 36.28 44.84 64.54"/><path class="p" d="m44.84,64.79c-.06,0-.13-.02-.17-.07-.05-.05-.08-.11-.08-.18v-28.27c0-.14.11-.25.25-.25h28.12c.07,0,.13.03.18.08.05.05.07.11.07.18l-.88,27.35c0,.13-.11.24-.24.24l-27.24.91h0Zm.25-28.27v27.76l26.75-.9.86-26.86h-27.61Z"/><g class="m"><polygon class="r" points="66.28 58.78 50.37 42.22 50.55 42.04 66.46 58.6 66.28 58.78"/></g><rect class="p" x="44.84" y="64.42" width="28.12" height=".25"/><line class="l" x1="72.91" y1="36.34" x2="75.03" y2="38.46"/><line class="n" x1="77.42" y1="40.85" x2="97.73" y2="61.16"/><line class="l" x1="98.92" y1="62.36" x2="101.04" y2="64.48"/><line class="l" x1="44.83" y1="64.39" x2="46.95" y2="62.27"/><line class="n" x1="49.34" y1="59.88" x2="69.65" y2="39.57"/><line class="l" x1="70.84" y1="38.38" x2="72.97" y2="36.26"/><path class="k" d="m87.17,44.11c1.7,1.7,1.7,4.46,0,6.16s-4.46,1.7-6.16,0"/><polyline class="i" points="89.77 44.58 87.16 44.06 86.64 46.67"/><use width="6.57" height="5.64" transform="translate(83.84 49.47) rotate(90) scale(.56)" xlink:href="#a"/><path class="k" d="m64.71,50.36c-1.7,1.7-4.46,1.7-6.16,0s-1.7-4.46,0-6.16"/><polyline class="i" points="64.24 52.96 64.76 50.36 62.15 49.83"/><use width="6.57" height="5.64" transform="translate(59.35 47.03) rotate(-180) scale(.56)" xlink:href="#a"/><g class="m"><polygon class="r" points="92.43 91.24 92.38 84.92 92.63 84.92 92.68 91.23 92.43 91.24"/><path class="r" d="m91.65,85.89l-.19-.17.89-.99c.05-.05.13-.05.18,0l.99.89-.17.19-.9-.8-.8.9Z"/></g></g></g></svg>