<?xml version="1.0" encoding="UTF-8"?><svg xmlns="http://www.w3.org/2000/svg" width="2.03in" height="1.79in" viewBox="0 0 145.87 129.09"><defs><style>.g{isolation:isolate;}.g,.h{fill:none;}.i{fill:#fff;}.j{fill:#1d1d1b;}.k{fill:#86a344;}.l{fill:#575756;}.h{mix-blend-mode:multiply;}</style></defs><g class="g"><g id="f"><polygon class="k" points="101 92.81 44.88 92.81 44.88 64.54 72.88 36.28 101 36.28 101 92.81"/><path class="j" d="m101,93.06h-56.12c-.14,0-.25-.11-.25-.25v-28.27c0-.07.03-.13.07-.18l28-28.27s.11-.07.18-.07h28.12c.14,0,.25.11.25.25v56.53c0,.14-.11.25-.25.25Zm-55.87-.5h55.62v-56.03h-27.76l-27.86,28.12v27.91Z"/><polygon class="i" points="73.85 121.08 101 92.81 101 36.28 72.88 36.28 72.88 64.54 73.85 92.81 73.85 121.08"/><path class="j" d="m73.85,121.33s-.06,0-.09-.02c-.09-.04-.16-.13-.16-.23v-28.27l-.97-28.26v-28.27c0-.14.11-.25.25-.25h28.12c.14,0,.25.11.25.25v56.53c0,.06-.03.13-.07.17l-27.15,28.27s-.11.08-.18.08Zm-.72-84.8v28.02l.97,28.26v27.65l26.65-27.75v-56.18h-27.62Z"/><polygon class="k" points="73.85 121.08 101 92.81 101 64.54 72.88 64.54 75.38 92.81 73.85 121.08"/><path class="j" d="m73.85,121.33s-.07,0-.1-.02c-.1-.04-.16-.14-.15-.24l1.53-28.27-2.5-28.23c0-.07.02-.14.06-.19.05-.05.11-.08.18-.08h28.12c.14,0,.25.11.25.25v28.27c0,.06-.03.13-.07.17l-27.15,28.27s-.11.08-.18.08Zm-.69-56.53l2.47,27.99-1.49,27.63,26.61-27.71v-27.92h-27.59Z"/><g class="h"><rect class="l" x="76.44" y="92.68" width="22.5" height=".25"/></g><g class="h"><rect class="l" x="76.44" y="36.15" width="22.5" height=".25"/></g><g class="h"><rect class="l" x="87.97" y="67.19" width=".25" height="22.96" transform="translate(-29.94 82.96) rotate(-43.85)"/></g><rect class="j" x="67.25" y="50.72" width="38.33" height=".5" transform="translate(-10.72 76.1) rotate(-45.04)"/><polygon class="k" points="101 64.54 73.8 63.65 72.88 36.28 101 36.28 101 64.54"/><path class="j" d="m101,64.79h0l-27.19-.89c-.13,0-.24-.11-.24-.24l-.92-27.38c0-.07.02-.13.07-.18s.11-.08.18-.08h28.12c.14,0,.25.11.25.25v28.27c0,.07-.03.13-.08.18-.05.04-.11.07-.17.07Zm-26.95-1.38l26.7.87v-27.76h-27.61l.91,26.88Z"/><g class="h"><polygon class="l" points="79.33 58.33 79.15 58.15 95.6 42.04 95.77 42.22 79.33 58.33"/></g><rect class="j" x="72.88" y="64.42" width="28.12" height=".25"/><polygon class="i" points="72.03 121.08 44.88 92.81 44.88 64.54 72.99 64.54 72.99 64.54 72.03 92.81 72.03 121.08"/><path class="j" d="m72.03,121.33c-.07,0-.13-.03-.18-.08l-27.15-28.27s-.07-.11-.07-.17v-28.27c0-.14.11-.25.25-.25h28.12c.07,0,.13.03.18.08s.07.11.07.18l-.97,28.27v28.26c0,.1-.06.19-.16.23-.03.01-.06.02-.09.02Zm-26.9-28.62l26.65,27.75v-27.65l.96-28.02h-27.61v27.92Z"/><polygon class="k" points="72.99 36.28 44.88 64.54 44.88 92.81 72.03 121.08 70.5 92.81 72.99 64.54 72.99 36.28"/><path class="j" d="m72.03,121.33c-.07,0-.13-.03-.18-.08l-27.15-28.27s-.07-.11-.07-.17v-28.27c0-.07.03-.13.07-.18l28.12-28.27c.07-.07.18-.09.27-.05.09.04.15.13.15.23v28.27l-2.5,28.29,1.53,28.23c0,.1-.05.2-.15.24-.03.01-.07.02-.1.02Zm-26.9-28.62l26.61,27.71-1.49-27.59,2.5-28.3v-27.64s-27.62,27.76-27.62,27.76v28.06Z"/><g class="h"><rect class="l" x="46.93" y="92.68" width="22.5" height=".25"/></g><g class="h"><polygon class="l" points="49.91 87.05 49.74 86.87 66.34 70.65 66.51 70.83 49.91 87.05"/></g><rect class="j" x="69" y="55.51" width=".5" height="10.58" transform="translate(-22.71 66.78) rotate(-45)"/><polygon class="i" points="72.5 63.72 52.94 55.53 44.88 36.28 60.85 36.28 72.5 63.72"/><path class="j" d="m72.5,63.97s-.07,0-.1-.02l-19.56-8.19c-.06-.03-.11-.07-.13-.13l-8.06-19.25c-.03-.08-.02-.17.02-.24.05-.07.12-.11.21-.11h15.97c.1,0,.19.06.23.15l11.66,27.45c.04.09.02.2-.05.27-.05.05-.11.07-.18.07Zm-19.37-8.63l18.9,7.92-11.35-26.73h-15.43l7.88,18.81Z"/><polygon class="k" points="49.64 47.64 52.63 44.65 72.5 63.72 52.94 55.53 49.64 47.64"/><path class="j" d="m72.5,63.97s-.07,0-.1-.02l-19.56-8.19c-.06-.03-.11-.07-.13-.13l-3.3-7.89c-.04-.09-.02-.2.05-.27l2.99-2.99c.1-.1.25-.1.35,0l19.88,19.07c.09.08.1.22.04.32-.05.07-.13.11-.21.11Zm-19.37-8.63l18.23,7.64-18.73-17.97-2.7,2.7,3.2,7.64Z"/><polygon class="k" points="61.01 36.27 53.43 43.85 72.5 63.73 61.01 36.27"/><path class="j" d="m72.5,63.98c-.07,0-.13-.03-.18-.08l-19.07-19.88c-.09-.1-.09-.25,0-.35l7.58-7.58c.06-.06.14-.09.22-.07.08.02.15.07.18.15l11.5,27.45c.05.11,0,.24-.09.31-.04.03-.09.04-.14.04Zm-18.72-20.12l17.97,18.73-10.84-25.87-7.14,7.14Z"/><rect class="j" x="58.57" y="38.52" width=".5" height="10.98" transform="translate(13.17 101.56) rotate(-88.38)"/><polygon class="k" points="44.88 36.28 55.69 47.59 52.94 55.53 44.88 36.28"/><path class="j" d="m52.94,55.78c-.1,0-.19-.06-.23-.15l-8.06-19.25c-.05-.11,0-.24.09-.31.1-.07.23-.05.32.04l10.82,11.31c.06.07.09.17.06.25l-2.75,7.94c-.03.1-.12.16-.23.17h0Zm-7.31-18.35l7.29,17.41,2.49-7.18-9.78-10.23Z"/><g class="h"><polygon class="l" points="92.43 91.24 92.38 84.92 92.63 84.92 92.68 91.23 92.43 91.24"/><path class="l" d="m91.65,85.89l-.19-.17.89-.99c.04-.05.12-.06.18,0l.99.89-.17.19-.9-.8-.8.9Z"/></g></g></g></svg>