<?xml version="1.0" encoding="UTF-8"?><svg xmlns="http://www.w3.org/2000/svg" width="2.03in" height="1.79in" viewBox="0 0 145.87 129.09"><defs><style>.g{isolation:isolate;}.g,.h,.i,.j{fill:none;}.k{fill:#fff;}.l{fill:#1d1d1b;}.m{fill:#86a344;}.n{fill:#575756;}.h{stroke-dasharray:0 0 7.34 3.67;}.h,.i{stroke:#1d1d1b;stroke-linecap:round;stroke-linejoin:round;stroke-width:.5px;}.j{mix-blend-mode:multiply;}</style></defs><g class="g"><g id="f"><polygon class="m" points="101.07 92.81 44.95 92.81 44.95 64.54 72.95 36.28 101.07 36.28 101.07 92.81"/><path class="l" d="m101.07,93.06h-56.12c-.14,0-.25-.11-.25-.25v-28.27c0-.07.03-.13.07-.18l28-28.27s.11-.07.18-.07h28.12c.14,0,.25.11.25.25v56.53c0,.14-.11.25-.25.25Zm-55.87-.5h55.62v-56.03h-27.76l-27.86,28.12v27.91Z"/><polygon class="k" points="73.92 121.08 101.07 92.81 101.07 36.28 72.95 36.28 72.95 64.54 73.92 92.81 73.92 121.08"/><path class="l" d="m73.92,121.33s-.06,0-.09-.02c-.09-.04-.16-.13-.16-.23v-28.27l-.97-28.26v-28.27c0-.14.11-.25.25-.25h28.12c.14,0,.25.11.25.25v56.53c0,.06-.03.13-.07.17l-27.15,28.27s-.11.08-.18.08Zm-.72-84.8v28.02l.97,28.26v27.65l26.65-27.75v-56.18h-27.62Z"/><polygon class="m" points="73.92 121.08 101.07 92.81 101.07 64.54 72.95 64.54 75.45 92.81 73.92 121.08"/><path class="l" d="m73.92,121.33s-.07,0-.1-.02c-.1-.04-.16-.14-.15-.24l1.53-28.27-2.5-28.23c0-.07.02-.14.06-.19s.11-.08.18-.08h28.12c.14,0,.25.11.25.25v28.27c0,.06-.03.13-.07.17l-27.15,28.27s-.11.08-.18.08Zm-.69-56.53l2.47,27.99-1.49,27.63,26.61-27.71v-27.92h-27.59Z"/><g class="j"><rect class="n" x="76.52" y="92.68" width="22.5" height=".25"/></g><g class="j"><rect class="n" x="76.52" y="36.15" width="22.5" height=".25"/></g><g class="j"><polygon class="n" points="96.03 87.04 80.12 70.48 80.3 70.31 96.21 86.87 96.03 87.04"/></g><rect class="l" x="67.32" y="50.72" width="38.33" height=".5" transform="translate(-10.66 76.28) rotate(-45.12)"/><polygon class="m" points="101.07 64.54 73.88 63.65 72.95 36.28 101.07 36.28 101.07 64.54"/><path class="l" d="m101.07,64.79h0l-27.19-.89c-.13,0-.24-.11-.24-.24l-.92-27.38c0-.07.02-.13.07-.18.05-.05.11-.08.18-.08h28.12c.14,0,.25.11.25.25v28.27c0,.07-.03.13-.08.18-.05.04-.11.07-.17.07Zm-26.95-1.38l26.7.87v-27.76h-27.61l.91,26.88Z"/><g class="j"><rect class="n" x="76.03" y="50.06" width="23.02" height=".25" transform="translate(-10.13 75.52) rotate(-44.37)"/></g><rect class="l" x="72.95" y="64.42" width="28.12" height=".25"/><polygon class="k" points="72.1 121.08 44.95 92.81 44.95 64.54 73.07 64.54 73.07 64.54 72.1 92.81 72.1 121.08"/><path class="l" d="m72.1,121.33c-.07,0-.13-.03-.18-.08l-27.15-28.27s-.07-.11-.07-.17v-28.27c0-.14.11-.25.25-.25h28.12c.07,0,.13.03.18.08.05.05.07.11.07.18l-.97,28.27v28.26c0,.1-.06.19-.16.23-.03.01-.06.02-.09.02Zm-26.9-28.62l26.65,27.75v-27.65l.96-28.02h-27.61v27.92Z"/><polygon class="m" points="73.07 36.13 44.95 64.4 44.95 92.66 72.1 120.93 70.57 92.66 73.07 64.4 73.07 36.13"/><path class="l" d="m72.1,121.18c-.07,0-.13-.03-.18-.08l-27.15-28.27s-.07-.11-.07-.17v-28.27c0-.07.03-.13.07-.18l28.12-28.27c.07-.07.18-.09.27-.05.09.04.15.13.15.23v28.27l-2.5,28.29,1.53,28.23c0,.1-.05.2-.15.24-.03.01-.07.02-.1.02Zm-26.9-28.62l26.61,27.71-1.49-27.59,2.5-28.3v-27.64s-27.62,27.76-27.62,27.76v28.06Z"/><g class="j"><rect class="n" x="47.01" y="92.68" width="22.5" height=".25"/></g><g class="j"><rect class="n" x="46.6" y="78.72" width="23.21" height=".25" transform="translate(-38.54 63.18) rotate(-44.37)"/></g><rect class="l" x="69.08" y="55.51" width=".5" height="10.58" transform="translate(-22.69 66.83) rotate(-45)"/><polygon class="k" points="72.58 63.72 45.13 52.23 44.95 36.28 60.92 36.28 72.58 63.72"/><path class="l" d="m72.58,63.97s-.07,0-.1-.02l-27.45-11.5c-.09-.04-.15-.13-.15-.23l-.18-15.95c0-.07.03-.13.07-.18s.11-.07.18-.07h15.97c.1,0,.19.06.23.15l11.66,27.45c.04.09.02.2-.05.27-.05.05-.11.07-.18.07Zm-27.2-11.91l26.73,11.2-11.35-26.73h-15.55l.17,15.53Z"/><polygon class="m" points="45.13 52.23 52.7 44.65 72.58 63.72 45.13 52.23"/><path class="l" d="m72.58,63.97s-.07,0-.1-.02l-27.45-11.5c-.08-.03-.13-.1-.15-.18-.02-.08,0-.17.07-.23l7.58-7.58c.1-.1.25-.1.35,0l19.88,19.07c.09.08.1.22.04.32-.05.07-.13.11-.21.11Zm-27.01-11.83l25.87,10.83-18.73-17.97-7.14,7.14Z"/><rect class="l" x="52.61" y="44.55" width=".5" height="10.98" transform="translate(-1.39 1.51) rotate(-1.62)"/><polygon class="m" points="61.08 36.27 53.5 43.85 72.58 63.73 61.08 36.27"/><path class="l" d="m72.58,63.98c-.07,0-.13-.03-.18-.08l-19.07-19.88c-.09-.1-.09-.25,0-.35l7.58-7.58c.06-.06.15-.08.23-.07.08.02.15.07.18.15l11.5,27.45c.05.11,0,.24-.09.31-.04.03-.09.04-.14.04Zm-18.72-20.12l17.97,18.73-10.84-25.87-7.14,7.14Z"/><rect class="l" x="58.64" y="38.52" width=".5" height="10.98" transform="translate(13.24 101.63) rotate(-88.38)"/><line class="i" x1="45.05" y1="36.33" x2="46.2" y2="39.1"/><line class="h" x1="47.61" y1="42.49" x2="51.12" y2="50.97"/><line class="i" x1="51.83" y1="52.66" x2="52.97" y2="55.44"/><g class="j"><polygon class="n" points="92.43 91.24 92.37 84.92 92.62 84.92 92.68 91.23 92.43 91.24"/><path class="n" d="m91.65,85.89l-.19-.17.89-.99c.05-.05.13-.05.18,0l.99.89-.17.19-.9-.8-.8.9Z"/></g></g></g></svg>