<?xml version="1.0" encoding="UTF-8"?><svg xmlns="http://www.w3.org/2000/svg" width="2.03in" height="1.79in" viewBox="0 0 145.87 129.09"><defs><style>.g{stroke-width:.75px;}.g,.h,.i,.j,.k,.l,.m{fill:none;}.g,.i,.j,.k,.l{stroke:#1d1d1b;stroke-linecap:round;stroke-linejoin:round;}.h{isolation:isolate;}.n{fill:#fff;}.o{fill:#1d1d1b;}.p{fill:#86a344;}.q{fill:#575756;}.i{stroke-dasharray:0 0 0 0 3.54 1.77 .66 1.77;}.i,.j,.k,.l{stroke-width:.5px;}.k{stroke-dasharray:0 0 .66 1.77;}.l{stroke-dasharray:0 0 6.13 3.07;}.m{mix-blend-mode:multiply;}</style></defs><g class="h"><g id="f"><polygon class="p" points="97.99 92.81 41.87 92.81 41.87 64.54 69.87 36.28 97.99 36.28 97.99 92.81"/><path class="o" d="m97.99,93.06h-56.12c-.14,0-.25-.11-.25-.25v-28.27c0-.07.03-.13.07-.18l28-28.27s.11-.07.18-.07h28.12c.14,0,.25.11.25.25v56.53c0,.14-.11.25-.25.25Zm-55.87-.5h55.62v-56.03h-27.76l-27.86,28.12v27.91Z"/><polygon class="n" points="70.84 121.08 97.99 92.81 97.99 36.28 69.87 36.28 69.87 64.54 70.84 92.81 70.84 121.08"/><path class="o" d="m70.84,121.33s-.06,0-.09-.02c-.09-.04-.16-.13-.16-.23v-28.27l-.97-28.26v-28.27c0-.14.11-.25.25-.25h28.12c.14,0,.25.11.25.25v56.53c0,.06-.02.13-.07.17l-27.15,28.27s-.11.08-.18.08Zm-.72-84.8v28.02l.97,28.26v27.65l26.65-27.75v-56.18h-27.62Z"/><polygon class="p" points="70.84 121.08 97.99 92.81 97.99 64.54 69.87 64.54 72.37 92.81 70.84 121.08"/><path class="o" d="m70.84,121.33s-.07,0-.1-.02c-.1-.04-.16-.14-.15-.24l1.53-28.27-2.5-28.23c0-.07.02-.14.06-.19s.11-.08.18-.08h28.12c.14,0,.25.11.25.25v28.27c0,.06-.02.13-.07.17l-27.15,28.27s-.11.08-.18.08Zm-.69-56.53l2.47,27.99-1.49,27.63,26.61-27.71v-27.92h-27.59Z"/><g class="m"><rect class="q" x="73.43" y="92.68" width="22.5" height=".25"/></g><g class="m"><rect class="q" x="73.43" y="36.15" width="22.5" height=".25"/></g><g class="m"><polygon class="q" points="92.95 87.04 77.04 70.48 77.22 70.31 93.13 86.87 92.95 87.04"/></g><polygon class="o" points="70.23 64.63 70.06 64.45 97.09 37.58 97.27 37.76 70.23 64.63"/><polygon class="o" points="69.98 64.37 69.8 64.19 96.84 37.31 97.02 37.49 69.98 64.37"/><polygon class="p" points="97.99 64.54 70.79 63.65 69.87 36.28 97.99 36.28 97.99 64.54"/><path class="o" d="m97.99,64.79h0l-27.19-.89c-.13,0-.24-.11-.24-.24l-.92-27.38c0-.07.02-.13.07-.18.05-.05.11-.08.18-.08h28.12c.14,0,.25.11.25.25v28.27c0,.07-.03.13-.08.18-.05.04-.11.07-.17.07Zm-26.95-1.38l26.7.87v-27.76h-27.61l.91,26.88Z"/><g class="m"><rect class="q" x="72.94" y="50.06" width="23.02" height=".25" transform="translate(-11.01 73.36) rotate(-44.37)"/></g><rect class="o" x="69.87" y="64.42" width="28.12" height=".25"/><polygon class="n" points="69.02 121.08 41.87 92.81 41.87 64.54 69.98 64.54 69.98 64.54 69.02 92.81 69.02 121.08"/><path class="o" d="m69.02,121.33c-.07,0-.13-.03-.18-.08l-27.15-28.27s-.07-.11-.07-.17v-28.27c0-.14.11-.25.25-.25h28.12c.07,0,.13.03.18.08.05.05.07.11.07.18l-.97,28.27v28.26c0,.1-.06.19-.16.23-.03.01-.06.02-.09.02Zm-26.9-28.62l26.65,27.75v-27.65l.96-28.02h-27.61v27.92Z"/><polygon class="p" points="69.02 121.08 41.87 92.81 41.87 64.54 69.98 64.54 67.49 92.81 69.02 121.08"/><path class="o" d="m69.02,121.33c-.07,0-.13-.03-.18-.08l-27.15-28.27s-.07-.11-.07-.17v-28.27c0-.14.11-.25.25-.25h28.12c.07,0,.14.03.18.08s.07.12.06.19l-2.5,28.27,1.53,28.23c0,.1-.05.2-.15.24-.03.01-.07.02-.1.02Zm-26.9-28.62l26.61,27.71-1.49-27.59,2.47-28.03h-27.59v27.92Z"/><g class="m"><rect class="q" x="43.92" y="92.68" width="22.5" height=".25"/></g><g class="m"><rect class="q" x="43.51" y="78.72" width="23.21" height=".25" transform="translate(-39.42 61.02) rotate(-44.37)"/></g><polygon class="p" points="69.87 36.28 41.87 64.54 69.02 92.81 97.35 92.06 97.35 64.54 69.87 36.28"/><path class="o" d="m69.02,93.06c-.07,0-.13-.03-.18-.08l-27.15-28.27c-.09-.1-.09-.25,0-.35l28-28.27s.11-.07.18-.07h0c.07,0,.13.03.18.08l27.48,28.27s.07.11.07.17v27.52c0,.14-.11.25-.24.25l-28.34.74h0Zm-26.8-28.51l26.9,28.01,27.98-.73v-27.18l-27.24-28.01-27.65,27.91Z"/><g class="m"><rect class="q" x="76.08" y="43.06" width=".25" height="55.36" transform="translate(-27.7 74.6) rotate(-45)"/></g><g class="m"><rect class="q" x="66.23" y="78.08" width="34.87" height=".25" transform="translate(-30.79 82.07) rotate(-45)"/></g><line class="j" x1="83.8" y1="50.81" x2="82.38" y2="52.21"/><line class="k" x1="81.12" y1="53.46" x2="80.02" y2="54.54"/><line class="i" x1="79.39" y1="55.16" x2="57.99" y2="76.29"/><line class="j" x1="57.36" y1="76.91" x2="55.94" y2="78.32"/><line class="j" x1="42.02" y1="64.54" x2="45.02" y2="64.55"/><line class="l" x1="48.09" y1="64.55" x2="92.56" y2="64.61"/><line class="j" x1="94.09" y1="64.61" x2="97.09" y2="64.62"/><line class="j" x1="69.96" y1="36.71" x2="69.96" y2="39.71"/><line class="l" x1="69.95" y1="42.77" x2="69.89" y2="87.24"/><line class="j" x1="69.89" y1="88.78" x2="69.89" y2="91.78"/><polyline class="g" points="48.52 27.4 46.59 25.57 48.41 23.64"/><path class="o" d="m97.18,91.71l-.61-.43c6.6-9.38,11.04-30.67,2.21-46.22-8.22-14.48-26.13-21.1-51.77-19.17l-.06-.75c18.1-1.36,41.9.92,52.48,19.55,8.98,15.82,4.47,37.47-2.25,47.02Z"/></g></g></svg>