<?xml version="1.0" encoding="UTF-8"?><svg xmlns="http://www.w3.org/2000/svg" width="2.03in" height="1.79in" viewBox="0 0 145.87 129.09"><defs><style>.g{isolation:isolate;}.g,.h,.i,.j{fill:none;}.k{fill:#fff;}.l{fill:#1d1d1b;}.m{fill:#86a344;}.n{fill:#575756;}.h{stroke-dasharray:0 0 5.93 2.96;}.h,.i{stroke:#1d1d1b;stroke-linecap:round;stroke-linejoin:round;stroke-width:.5px;}.j{mix-blend-mode:multiply;}</style></defs><g class="g"><g id="f"><rect class="m" x="44.82" y="64.54" width="56.12" height="28.27"/><path class="l" d="m100.94,93.06h-56.12c-.14,0-.25-.11-.25-.25v-28.27c0-.14.11-.25.25-.25h56.12c.14,0,.25.11.25.25v28.27c0,.14-.11.25-.25.25Zm-55.87-.5h55.62v-27.77h-55.62v27.77Z"/><polygon class="k" points="71.97 121.07 44.82 92.81 44.82 64.54 72.94 64.54 72.94 64.54 71.97 92.81 71.97 121.07"/><path class="l" d="m71.97,121.32c-.07,0-.13-.03-.18-.08l-27.15-28.27s-.07-.11-.07-.17v-28.27c0-.14.11-.25.25-.25h28.12c.07,0,.13.03.18.08s.07.11.07.18l-.97,28.27v28.26c0,.1-.06.19-.16.23-.03.01-.06.02-.09.02Zm-26.9-28.62l26.65,27.75v-27.64l.96-28.02h-27.61v27.92Z"/><polygon class="m" points="72.94 36.2 44.82 64.47 44.82 92.73 71.97 121 70.44 92.73 72.94 64.47 72.94 36.2"/><path class="l" d="m71.97,121.25c-.07,0-.13-.03-.18-.08l-27.15-28.27s-.07-.11-.07-.17v-28.27c0-.07.03-.13.07-.18l28.12-28.27c.07-.07.18-.09.27-.05.09.04.15.13.15.23v28.27l-2.5,28.29,1.53,28.23c0,.1-.05.2-.15.24-.03.01-.07.02-.1.02Zm-26.9-28.62l26.61,27.71-1.49-27.59,2.5-28.3v-27.64s-27.62,27.76-27.62,27.76v28.06Z"/><g class="j"><rect class="n" x="46.88" y="92.68" width="22.5" height=".25"/></g><g class="j"><polygon class="n" points="49.86 87.05 49.68 86.87 66.28 70.65 66.46 70.83 49.86 87.05"/></g><rect class="l" x="68.95" y="55.51" width=".5" height="10.58" transform="translate(-22.73 66.74) rotate(-45)"/><polygon class="k" points="72.45 63.72 52.88 55.53 44.82 36.28 60.79 36.28 72.45 63.72"/><path class="l" d="m72.45,63.97s-.07,0-.1-.02l-19.56-8.19c-.06-.03-.11-.07-.13-.13l-8.06-19.25c-.03-.08-.02-.17.02-.24.05-.07.12-.11.21-.11h15.97c.1,0,.19.06.23.15l11.66,27.45c.04.09.02.2-.05.27-.05.05-.11.07-.18.07Zm-19.37-8.64l18.9,7.92-11.35-26.73h-15.43l7.88,18.81Z"/><polygon class="m" points="49.58 47.64 52.57 44.65 72.45 63.72 52.88 55.53 49.58 47.64"/><path class="l" d="m72.45,63.97s-.07,0-.1-.02l-19.56-8.19c-.06-.03-.11-.07-.13-.13l-3.3-7.89c-.04-.09-.02-.2.05-.27l2.99-2.99c.1-.1.25-.1.35,0l19.88,19.07c.09.08.1.22.04.32-.05.07-.13.11-.21.11Zm-19.37-8.64l18.23,7.64-18.73-17.97-2.7,2.7,3.2,7.64Z"/><polygon class="m" points="60.95 36.27 53.37 43.85 72.45 63.73 60.95 36.27"/><path class="l" d="m72.45,63.98c-.07,0-.13-.03-.18-.08l-19.07-19.88c-.09-.1-.09-.25,0-.35l7.58-7.58c.06-.06.14-.09.22-.07.08.02.15.07.18.15l11.5,27.45c.05.11,0,.24-.09.31-.04.03-.09.04-.14.04Zm-18.72-20.12l17.98,18.73-10.84-25.87-7.14,7.14Z"/><rect class="l" x="58.51" y="38.51" width=".5" height="10.98" transform="translate(13.11 101.5) rotate(-88.38)"/><polygon class="m" points="44.82 36.28 55.64 47.59 52.88 55.53 44.82 36.28"/><path class="l" d="m52.88,55.78c-.1,0-.19-.06-.23-.15l-8.06-19.25c-.05-.11,0-.24.09-.31.1-.07.23-.05.32.04l10.82,11.31c.06.07.09.17.06.25l-2.75,7.94c-.03.1-.12.16-.23.17h0Zm-7.31-18.35l7.29,17.41,2.49-7.18-9.78-10.23Z"/><polygon class="k" points="73.9 121.08 101.05 92.81 101.05 64.54 72.94 64.54 72.94 64.54 73.9 92.81 73.9 121.08"/><path class="l" d="m73.9,121.33s-.06,0-.09-.02c-.09-.04-.16-.13-.16-.23v-28.27l-.97-28.26c0-.07.02-.13.07-.18s.11-.08.18-.08h28.12c.14,0,.25.11.25.25v28.27c0,.06-.03.13-.07.17l-27.15,28.27s-.11.08-.18.08Zm-.71-56.53l.96,28.01v27.65l26.65-27.75v-27.92h-27.61Z"/><polygon class="m" points="72.94 36.2 101.05 64.47 101.05 92.73 73.9 121 75.43 92.73 72.94 64.47 72.94 36.2"/><path class="l" d="m73.9,121.25s-.07,0-.1-.02c-.1-.04-.16-.14-.15-.24l1.53-28.27-2.5-28.23v-28.29c0-.1.06-.19.15-.23.09-.04.2-.02.27.05l28.12,28.27s.07.11.07.18v28.27c0,.06-.03.13-.07.17l-27.15,28.27s-.11.08-.18.08Zm-.72-84.44v27.66l2.5,28.24-1.49,27.63,26.61-27.71v-28.06l-27.62-27.76Z"/><g class="j"><rect class="n" x="76.5" y="92.68" width="22.5" height=".25"/></g><g class="j"><polygon class="n" points="96.02 87.05 79.42 70.83 79.59 70.65 96.19 86.87 96.02 87.05"/></g><rect class="l" x="71.39" y="60.55" width="10.58" height=".5" transform="translate(-20.54 72.03) rotate(-45)"/><polygon class="k" points="73.43 63.72 92.99 55.53 101.05 36.28 85.08 36.28 73.43 63.72"/><path class="l" d="m73.43,63.97c-.07,0-.13-.03-.18-.07-.07-.07-.09-.18-.05-.27l11.66-27.45c.04-.09.13-.15.23-.15h15.97c.08,0,.16.04.21.11.05.07.05.16.02.24l-8.06,19.25c-.03.06-.07.11-.13.13l-19.57,8.19s-.06.02-.1.02Zm11.82-27.45l-11.35,26.73,18.9-7.92,7.88-18.81h-15.43Z"/><polygon class="m" points="96.29 47.64 93.3 44.65 73.43 63.72 92.99 55.53 96.29 47.64"/><path class="l" d="m73.43,63.97c-.08,0-.16-.04-.21-.11-.07-.1-.05-.23.04-.32l19.88-19.07c.1-.09.25-.09.35,0l2.99,2.99c.07.07.09.18.05.27l-3.3,7.89c-.03.06-.07.11-.13.13l-19.57,8.19s-.06.02-.1.02Zm19.87-18.97l-18.73,17.97,18.23-7.64,3.2-7.64-2.7-2.7Z"/><polygon class="m" points="84.92 36.27 92.5 43.85 73.43 63.73 84.92 36.27"/><path class="l" d="m73.43,63.98s-.09-.01-.14-.04c-.1-.07-.14-.19-.09-.31l11.5-27.45c.03-.08.1-.13.18-.15.08-.02.17,0,.22.07l7.58,7.58c.1.1.1.25,0,.35l-19.07,19.88c-.05.05-.11.08-.18.08Zm11.58-27.26l-10.84,25.87,17.98-18.73-7.14-7.14Z"/><rect class="l" x="81.62" y="43.76" width="10.98" height=".5" transform="translate(-1.17 2.4) rotate(-1.57)"/><polygon class="m" points="101.05 36.28 90.24 47.59 92.99 55.53 101.05 36.28"/><path class="l" d="m92.99,55.78h0c-.1,0-.19-.07-.23-.17l-2.75-7.94c-.03-.09,0-.19.06-.25l10.81-11.31c.08-.09.22-.1.32-.04.1.07.14.19.09.31l-8.06,19.25c-.04.09-.13.15-.23.15Zm-2.47-8.13l2.49,7.18,7.29-17.41-9.78,10.23Z"/><line class="i" x1="53.27" y1="56.85" x2="53.27" y2="59.85"/><line class="h" x1="53.27" y1="62.82" x2="53.27" y2="96.91"/><line class="i" x1="53.27" y1="98.39" x2="53.27" y2="101.39"/><line class="i" x1="92.5" y1="56.85" x2="92.5" y2="59.85"/><line class="h" x1="92.5" y1="62.82" x2="92.5" y2="96.91"/><line class="i" x1="92.5" y1="98.39" x2="92.5" y2="101.39"/><g class="j"><polygon class="n" points="92.43 91.24 92.38 84.92 92.63 84.92 92.68 91.23 92.43 91.24"/><path class="n" d="m91.65,85.89l-.19-.17.89-.99c.05-.05.12-.06.18,0l.99.89-.17.19-.9-.8-.8.9Z"/></g></g></g></svg>