<?xml version="1.0" encoding="UTF-8"?><svg xmlns="http://www.w3.org/2000/svg" width="2.03in" height="1.79in" viewBox="0 0 145.87 129.09"><defs><style>.g{isolation:isolate;}.g,.h{fill:none;}.i{fill:#fff;}.j{fill:#1d1d1b;}.k{fill:#86a344;}.l{fill:#575756;}.h{mix-blend-mode:multiply;}</style></defs><g class="g"><g id="f"><rect class="k" x="45.47" y="36.28" width="56.53" height="56.53"/><path class="j" d="m102,93.06h-56.53c-.14,0-.25-.11-.25-.25v-56.53c0-.14.11-.25.25-.25h56.53c.14,0,.25.11.25.25v56.53c0,.14-.11.25-.25.25Zm-56.28-.5h56.03v-56.03h-56.03v56.03Z"/><polygon class="i" points="72.14 8.01 43.87 36.28 43.87 92.81 72.14 121.08 72.14 92.81 72.73 64.54 72.14 36.28 72.14 8.01"/><path class="j" d="m72.14,121.33c-.06,0-.13-.03-.18-.07l-28.27-28.27s-.07-.11-.07-.18v-56.53c0-.07.03-.13.07-.18l28.27-28.27c.07-.07.18-.09.27-.05.09.04.15.13.15.23v28.27l.59,28.26-.59,28.28v28.26c0,.1-.06.19-.15.23-.03.01-.06.02-.1.02Zm-28.02-28.62l27.77,27.77v-27.66l.59-28.27-.59-28.26V8.61l-27.77,27.77v56.32Z"/><polygon class="k" points="72.14 8.01 43.87 36.28 43.87 92.81 72.14 121.08 70.55 92.81 72.14 64.54 70.55 36.28 72.14 8.01"/><path class="j" d="m72.14,121.33c-.06,0-.13-.03-.18-.07l-28.27-28.27s-.07-.11-.07-.18v-56.53c0-.07.03-.13.07-.18l28.27-28.27c.07-.07.18-.09.28-.05.09.04.15.14.15.24l-1.59,28.27,1.59,28.24-1.59,28.29,1.59,28.24c0,.1-.05.2-.15.24-.03.01-.07.02-.1.02Zm-28.02-28.62l27.73,27.73-1.56-27.61,1.59-28.29-1.59-28.24,1.56-27.64-27.73,27.73v56.32Z"/><g class="h"><rect class="l" x="46.02" y="36.15" width="23.42" height=".25"/></g><g class="h"><rect class="l" x="46.02" y="92.68" width="23.42" height=".25"/></g><g class="h"><rect class="l" x="57.18" y="38.7" width=".25" height="23.42" transform="translate(-18.86 55.29) rotate(-45)"/></g><g class="h"><rect class="l" x="46.3" y="78.55" width="23.42" height=".25" transform="translate(-38.64 64.06) rotate(-45)"/></g><polygon class="i" points="73.73 121.08 102 92.81 102 36.28 73.73 8.01 73.73 36.28 72.73 64.54 73.73 92.81 73.73 121.08"/><path class="j" d="m73.73,121.33s-.06,0-.1-.02c-.09-.04-.15-.13-.15-.23v-28.27l-1.01-28.26,1.01-28.28V8.01c0-.1.06-.19.15-.23.09-.04.2-.02.27.05l28.27,28.27s.07.11.07.18v56.53c0,.07-.03.13-.07.18l-28.27,28.27s-.11.07-.18.07Zm.25-112.71v27.66l-1.01,28.27,1.01,28.25v27.67l27.77-27.77v-56.32l-27.77-27.77Z"/><polygon class="k" points="73.73 121.08 102 92.81 102 36.28 73.73 8.01 75.33 36.28 73.41 64.54 75.33 92.81 73.73 121.08"/><path class="j" d="m73.73,121.33s-.07,0-.1-.02c-.09-.04-.15-.14-.15-.24l1.59-28.27-1.91-28.23,1.91-28.3-1.59-28.23c0-.1.05-.2.15-.24.09-.04.21-.02.28.05l28.27,28.27s.07.11.07.18v56.53c0,.07-.03.13-.07.18l-28.27,28.27s-.11.07-.18.07Zm.29-112.67l1.56,27.61-1.91,28.3,1.91,28.23-1.56,27.64,27.73-27.73v-56.32l-27.73-27.73Z"/><g class="h"><rect class="l" x="76.44" y="92.68" width="23.42" height=".25"/></g><g class="h"><rect class="l" x="76.44" y="36.15" width="23.42" height=".25"/></g><g class="h"><rect class="l" x="88.44" y="66.97" width=".25" height="23.42" transform="translate(-29.69 85.67) rotate(-45)"/></g><g class="h"><rect class="l" x="76.16" y="50.29" width="23.42" height=".25" transform="translate(-9.91 76.9) rotate(-45)"/></g><g class="h"><polygon class="l" points="92.43 91.24 92.38 84.92 92.63 84.92 92.68 91.23 92.43 91.24"/><path class="l" d="m91.65,85.89l-.19-.17.89-.99c.05-.05.13-.05.18,0l.99.89-.17.19-.9-.8-.8.9Z"/></g></g></g></svg>