<?xml version="1.0" encoding="UTF-8"?><svg xmlns="http://www.w3.org/2000/svg" width="2.03in" height="1.79in" viewBox="0 0 145.87 129.09"><defs><style>.g{stroke-width:.75px;}.g,.h,.i,.j,.k,.l,.m,.n,.o{fill:none;}.g,.i,.j,.k,.m,.n,.o{stroke:#1d1d1b;stroke-linecap:round;stroke-linejoin:round;}.h{isolation:isolate;}.i{stroke-dasharray:0 0 .73 1.94;}.i,.j,.k,.m,.n,.o{stroke-width:.5px;}.p{fill:#fff;}.q{fill:#1d1d1b;}.r{fill:#86a344;}.s{fill:#575756;}.j{stroke-dasharray:0 0 5.73 2.87;}.l{mix-blend-mode:multiply;}.m{stroke-dasharray:0 0 .69 1.83;}.n{stroke-dasharray:0 0 0 0 3.89 1.94 .73 1.94;}.o{stroke-dasharray:0 0 0 0 3.65 1.83 .69 1.83;}</style></defs><g class="h"><g id="f"><rect class="r" x="44.9" y="64.54" width="56.12" height="28.27"/><path class="q" d="m101.02,93.06h-56.12c-.14,0-.25-.11-.25-.25v-28.27c0-.14.11-.25.25-.25h56.12c.14,0,.25.11.25.25v28.27c0,.14-.11.25-.25.25Zm-55.87-.5h55.62v-27.77h-55.62v27.77Z"/><polygon class="p" points="73.87 121.08 101.02 92.81 101.02 36.28 72.9 36.28 72.9 64.54 73.87 92.81 73.87 121.08"/><path class="q" d="m73.87,121.33s-.06,0-.09-.02c-.09-.04-.16-.13-.16-.23v-28.27l-.97-28.26v-28.27c0-.14.11-.25.25-.25h28.12c.14,0,.25.11.25.25v56.53c0,.06-.02.13-.07.17l-27.15,28.27s-.11.08-.18.08Zm-.72-84.8v28.02l.97,28.26v27.65l26.65-27.75v-56.18h-27.62Z"/><polygon class="r" points="73.87 121.08 101.02 92.81 101.02 64.54 72.9 64.54 75.4 92.81 73.87 121.08"/><path class="q" d="m73.87,121.33s-.07,0-.1-.02c-.1-.04-.16-.14-.15-.24l1.53-28.27-2.5-28.23c0-.07.02-.14.06-.19s.11-.08.18-.08h28.12c.14,0,.25.11.25.25v28.27c0,.06-.02.13-.07.17l-27.15,28.27s-.11.08-.18.08Zm-.69-56.53l2.47,27.99-1.49,27.63,26.61-27.71v-27.92h-27.59Z"/><g class="l"><rect class="s" x="76.46" y="92.68" width="22.5" height=".25"/></g><g class="l"><rect class="s" x="76.46" y="36.15" width="22.5" height=".25"/></g><g class="l"><polygon class="s" points="95.98 87.04 80.07 70.48 80.25 70.31 96.16 86.87 95.98 87.04"/></g><rect class="q" x="67.63" y="50.86" width="38.12" height=".5" transform="translate(-10.81 76) rotate(-44.84)"/><polygon class="r" points="101.02 64.54 73.82 63.65 72.9 36.28 101.02 36.28 101.02 64.54"/><path class="q" d="m101.02,64.79h0l-27.19-.89c-.13,0-.24-.11-.24-.24l-.92-27.38c0-.07.02-.13.07-.18.05-.05.11-.08.18-.08h28.12c.14,0,.25.11.25.25v28.27c0,.07-.03.13-.08.18-.05.04-.11.07-.17.07Zm-26.95-1.38l26.7.87v-27.76h-27.61l.91,26.88Z"/><g class="l"><polygon class="s" points="79.58 58.78 79.4 58.6 95.31 42.04 95.49 42.22 79.58 58.78"/></g><rect class="q" x="72.9" y="64.42" width="28.12" height=".25"/><g class="l"><rect class="s" x="86.78" y="31.53" width=".25" height="37.65" transform="translate(-10.22 75.94) rotate(-44.85)"/></g><polygon class="p" points="72.05 121.08 44.9 92.81 44.9 64.54 54.76 44.91 73.01 36.28 73.01 64.54 72.05 92.81 72.05 121.08"/><path class="q" d="m72.05,121.33c-.07,0-.13-.03-.18-.08l-27.15-28.27s-.07-.11-.07-.17v-28.27s0-.08.03-.11l9.87-19.63s.07-.09.12-.11l18.25-8.64c.08-.04.17-.03.24.01s.12.13.12.21v28.27l-.97,28.27v28.26c0,.1-.06.19-.16.23-.03.01-.06.02-.09.02Zm-26.9-28.62l26.65,27.75v-27.65l.97-28.27v-27.86l-17.82,8.43-9.8,19.5v28.11Z"/><line class="k" x1="46.77" y1="62.73" x2="48.89" y2="60.61"/><line class="j" x1="50.92" y1="58.58" x2="68.14" y2="41.36"/><line class="k" x1="69.15" y1="40.35" x2="71.27" y2="38.22"/><polygon class="r" points="72.05 121.08 44.9 92.81 44.9 64.54 54.09 46.09 60.98 60.04 73.01 64.54 70.52 92.81 72.05 121.08"/><path class="q" d="m72.05,121.33c-.07,0-.13-.03-.18-.08l-27.15-28.27s-.07-.11-.07-.17v-28.27s0-.08.03-.11l9.19-18.45c.04-.08.13-.14.22-.14h0c.09,0,.18.05.22.14l6.84,13.86,11.94,4.47c.11.04.17.14.16.26l-2.5,28.27,1.53,28.23c0,.1-.05.2-.15.24-.03.01-.07.02-.1.02Zm-26.9-28.62l26.61,27.71-1.49-27.59,2.48-28.11-11.86-4.43c-.06-.02-.11-.07-.14-.12l-6.67-13.5-8.94,17.95v28.11Z"/><g class="l"><rect class="s" x="46.95" y="92.68" width="22.5" height=".25"/></g><g class="l"><polygon class="s" points="49.94 87.04 49.76 86.87 65.66 70.31 65.85 70.48 49.94 87.04"/></g><g class="l"><rect class="s" x="45.56" y="64.42" width="26.79" height=".25"/></g><polygon class="p" points="60.98 60.04 48.04 44.83 54.32 45.34 60.98 60.04"/><path class="q" d="m60.98,60.29c-.07,0-.14-.03-.19-.09l-12.94-15.21c-.07-.08-.08-.19-.03-.28.05-.09.14-.14.24-.13l6.28.51c.09,0,.17.06.21.15l6.66,14.7c.05.11.01.25-.09.31-.04.03-.09.04-.13.04Zm-12.35-15.17l11.39,13.4-5.87-12.95-5.53-.45Z"/><polygon class="r" points="73.01 36.28 72.93 63.34 67.92 53.12 54.54 45.61 48.04 44.83 73.01 36.28"/><path class="q" d="m72.93,63.6c-.09,0-.18-.05-.22-.14l-4.98-10.15-13.27-7.45-6.45-.78c-.12-.01-.21-.11-.22-.22-.01-.12.06-.23.17-.26l24.97-8.55c.08-.03.16-.01.23.03.07.05.1.12.1.2l-.09,27.07c0,.12-.08.22-.19.24-.02,0-.04,0-.06,0Zm-23.77-18.88l5.41.65s.06.01.09.03l13.38,7.51s.08.06.1.11l4.54,9.26.08-25.65-23.61,8.08Z"/><g class="l"><polygon class="s" points="67.45 51.51 63.37 43.97 63.59 43.85 67.67 51.39 67.45 51.51"/></g><g class="l"><polygon class="s" points="70.58 44.64 60.49 41.79 60.56 41.55 70.65 44.4 70.58 44.64"/></g><g class="l"><rect class="s" x="47.95" y="57.21" width="9.81" height=".25" transform="translate(-6.89 107.45) rotate(-87.32)"/></g><line class="k" x1="72.69" y1="36.48" x2="72.16" y2="38.41"/><line class="i" x1="71.64" y1="40.28" x2="71.19" y2="41.92"/><line class="n" x1="70.93" y1="42.86" x2="68.92" y2="50.12"/><line class="k" x1="68.66" y1="51.05" x2="68.12" y2="52.98"/><line class="k" x1="60.79" y1="60" x2="58.87" y2="60.56"/><line class="m" x1="57.12" y1="61.07" x2="55.58" y2="61.52"/><line class="o" x1="54.7" y1="61.77" x2="47.91" y2="63.75"/><line class="k" x1="47.03" y1="64.01" x2="45.11" y2="64.56"/><path class="q" d="m99.09,92.33c-44.39-15.81-51.35-47.11-51.41-47.43l.73-.15c.06.31,6.96,31.22,50.93,46.88l-.25.71Z"/><polyline class="g" points="98.08 89.58 99.21 91.98 96.81 93.12"/><g class="l"><polygon class="s" points="92.43 91.24 92.38 84.92 92.63 84.92 92.68 91.23 92.43 91.24"/><path class="s" d="m91.65,85.89l-.19-.17.89-.99c.05-.05.13-.05.18,0l.99.89-.17.19-.9-.8-.8.9Z"/></g></g></g></svg>