<?xml version="1.0" encoding="UTF-8"?><svg xmlns="http://www.w3.org/2000/svg" width="2.03in" height="1.79in" viewBox="0 0 145.87 129.09"><defs><style>.g{isolation:isolate;}.g,.h,.i,.j{fill:none;}.k{fill:#1d1d1b;}.l{fill:#86a344;}.m{fill:#575756;}.h{stroke-dasharray:0 0 .56 1.5;}.h,.i{stroke:#1d1d1b;stroke-linecap:round;stroke-linejoin:round;stroke-width:.5px;}.j{mix-blend-mode:multiply;}</style></defs><g class="g"><g id="f"><polygon class="l" points="24.35 70.55 44.96 90.18 53.33 90.17 72.94 70.57 24.35 70.55"/><path class="k" d="m44.96,90.43c-.06,0-.13-.02-.17-.07l-20.61-19.63c-.07-.07-.1-.18-.06-.27.04-.1.13-.16.23-.16h0l48.59.02c.1,0,.19.06.23.15.04.09.02.2-.05.27l-19.61,19.61s-.11.07-.18.07h-8.37Zm-19.99-19.63l20.09,19.13h8.17s19.11-19.12,19.11-19.12l-47.36-.02Z"/><polygon class="l" points="45.08 90.18 55.92 79.34 55.92 90.17 45.08 90.18"/><path class="k" d="m45.08,90.43c-.1,0-.19-.06-.23-.15-.04-.09-.02-.2.05-.27l10.84-10.84c.07-.07.18-.09.27-.05.09.04.15.13.15.23v10.83c0,.14-.11.25-.25.25h-10.84Zm10.59-10.49l-9.99,9.99h9.99v-9.99Z"/><polygon class="l" points="111.98 60.7 100.57 49.3 82.49 57.11 92.98 68.87 111.98 60.7"/><path class="k" d="m92.98,69.12c-.07,0-.14-.03-.19-.08l-10.49-11.76c-.05-.06-.08-.14-.06-.22.02-.08.07-.14.14-.18l18.08-7.81c.1-.04.21-.02.28.05l11.4,11.4c.06.06.08.14.07.22-.02.08-.07.15-.15.18l-19,8.17s-.07.02-.1.02Zm-10.07-11.92l10.14,11.36,18.5-7.95-11.02-11.02-17.61,7.61Z"/><polygon class="l" points="121.53 70.55 100.91 90.18 92.54 90.17 72.94 70.57 121.53 70.55"/><path class="k" d="m100.91,90.43h-8.37c-.07-.01-.13-.04-.18-.08l-19.61-19.61c-.07-.07-.09-.18-.05-.27.04-.09.13-.15.23-.15l48.59-.02c.1,0,.19.06.23.16.04.09.01.2-.06.27l-20.61,19.63s-.11.07-.17.07Zm-8.27-.51h8.17s20.09-19.12,20.09-19.12l-47.36.02,19.11,19.11Z"/><polygon class="l" points="100.79 90.18 89.95 79.34 89.95 90.17 100.79 90.18"/><path class="k" d="m100.79,90.43h-10.84c-.14-.01-.25-.12-.25-.26v-10.83c0-.1.06-.19.15-.23.09-.04.2-.02.27.05l10.84,10.84c.07.07.09.18.05.27-.04.09-.13.15-.23.15Zm-10.59-.51h9.99s-9.99-9.98-9.99-9.98v9.98Z"/><polygon class="l" points="33.9 60.7 45.3 49.3 63.39 57.11 52.9 68.87 33.9 60.7"/><path class="k" d="m52.9,69.12s-.07,0-.1-.02l-19-8.17c-.08-.03-.13-.1-.15-.18-.02-.08,0-.17.07-.22l11.4-11.4c.07-.07.18-.09.28-.05l18.08,7.81c.07.03.13.1.14.18.02.08,0,.16-.06.22l-10.49,11.76c-.05.05-.12.08-.19.08Zm-18.56-8.5l18.5,7.95,10.14-11.36-17.61-7.61-11.02,11.02Z"/><polygon class="l" points="72.94 33.74 72.94 33.74 72.94 33.74 72.94 33.74 72.94 33.74 52.99 53.68 52.99 90.17 92.88 90.17 92.88 53.68 72.94 33.74"/><path class="k" d="m92.88,90.42h-39.89c-.14,0-.25-.11-.25-.25v-36.49c0-.07.03-.13.07-.18l19.94-19.94c.09-.09.26-.09.35,0l19.94,19.94s.07.11.07.18v36.49c0,.14-.11.25-.25.25Zm-39.64-.5h39.39v-36.14l-19.69-19.69-19.69,19.69v36.14Z"/><g class="j"><polygon class="m" points="91.22 72.19 64.11 45.08 64.29 44.9 91.4 72.01 91.22 72.19"/></g><g class="j"><polygon class="m" points="54.47 72.4 54.29 72.22 81.81 44.7 81.99 44.87 54.47 72.4"/></g><line class="i" x1="69.18" y1="37.61" x2="71.18" y2="37.61"/><line class="h" x1="72.68" y1="37.6" x2="73.99" y2="37.6"/><line class="i" x1="74.74" y1="37.6" x2="76.74" y2="37.59"/></g></g></svg>