<?xml version="1.0" encoding="UTF-8"?><svg xmlns="http://www.w3.org/2000/svg" width="2.03in" height="1.79in" xmlns:xlink="http://www.w3.org/1999/xlink" viewBox="0 0 145.87 129.09"><defs><style>.h,.i,.j,.k,.l,.m,.n,.o{fill:none;}.h,.i,.k,.l,.m,.n{stroke-linejoin:round;}.h,.i,.l,.m,.n{stroke:#1d1d1b;}.h,.i,.l,.n{stroke-linecap:round;}.i,.m{stroke-width:.75px;}.j{isolation:isolate;}.k{stroke:#575756;stroke-width:.25px;}.k,.o{mix-blend-mode:multiply;}.p{fill:#fff;}.q{fill:#1d1d1b;}.r{fill:#575756;}.l{stroke-dasharray:0 0 6.1 3.05;}.l,.n{stroke-width:.5px;}</style><symbol id="a" viewBox="0 0 6.57 5.64"><polyline class="h" points="6.07 4.22 1.43 5.14 .5 .5"/></symbol></defs><g class="j"><g id="g"><rect class="p" x="14.12" y="4.95" width="117.69" height="117.69"/><path class="q" d="m131.81,122.89H14.12c-.14,0-.25-.11-.25-.25V4.95c0-.14.11-.25.25-.25h117.69c.14,0,.25.11.25.25v117.69c0,.14-.11.25-.25.25Zm-117.44-.5h117.19V5.2H14.37v117.19Z"/><g class="o"><rect class="r" x="-10.25" y="63.67" width="166.44" height=".25" transform="translate(-23.74 70.28) rotate(-45)"/></g><line class="k" x1="14.12" y1="4.95" x2="131.3" y2="122.12"/><g class="o"><rect class="r" x="14.27" y="34.25" width="117.54" height=".25"/></g><g class="o"><rect class="r" x="14.27" y="93.23" width="117.54" height=".25"/></g><g class="o"><rect class="r" x="43.42" y="5.1" width=".25" height="117.54"/></g><line class="n" x1="73.33" y1="5.31" x2="75.45" y2="7.43"/><line class="l" x1="77.61" y1="9.59" x2="128.25" y2="60.23"/><line class="n" x1="129.33" y1="61.31" x2="131.45" y2="63.43"/><line class="n" x1="14.48" y1="64.15" x2="16.61" y2="66.28"/><line class="l" x1="18.76" y1="68.43" x2="69.41" y2="119.07"/><line class="n" x1="70.48" y1="120.15" x2="72.6" y2="122.27"/><line class="n" x1="72.6" y1="5.31" x2="70.48" y2="7.43"/><line class="l" x1="68.33" y1="9.59" x2="17.68" y2="60.23"/><line class="n" x1="16.61" y1="61.31" x2="14.48" y2="63.43"/><line class="n" x1="131.59" y1="64.3" x2="129.47" y2="66.42"/><line class="l" x1="127.31" y1="68.58" x2="76.67" y2="119.22"/><line class="n" x1="75.59" y1="120.3" x2="73.47" y2="122.42"/><path class="m" d="m51.8,19.49c1.7-1.7,4.46-1.7,6.16,0s1.7,4.46,0,6.16"/><polyline class="i" points="52.27 16.88 51.75 19.49 54.36 20.01"/><use width="6.57" height="5.64" transform="translate(57.16 22.82) scale(.56)" xlink:href="#a"/><path class="m" d="m87.87,25.66c-1.7-1.7-1.7-4.46,0-6.16s4.46-1.7,6.16,0"/><polyline class="i" points="85.26 25.18 87.87 25.71 88.39 23.1"/><use width="6.57" height="5.64" transform="translate(91.2 20.29) rotate(-90) scale(.56)" xlink:href="#a"/><path class="m" d="m32.73,88.97c-1.7-1.7-1.7-4.46,0-6.16s4.46-1.7,6.16,0"/><polyline class="i" points="30.12 88.5 32.73 89.02 33.25 86.41"/><use width="6.57" height="5.64" transform="translate(36.06 83.6) rotate(-90) scale(.56)" xlink:href="#a"/><path class="m" d="m107.57,82.6c1.7-1.7,4.46-1.7,6.16,0s1.7,4.46,0,6.16"/><polyline class="i" points="108.04 80 107.52 82.6 110.13 83.12"/><use width="6.57" height="5.64" transform="translate(112.93 85.93) scale(.56)" xlink:href="#a"/><g class="o"><rect class="r" x="102.35" y="5.02" width=".25" height="117.55"/></g></g></g></svg>