<?xml version="1.0" encoding="UTF-8"?><svg xmlns="http://www.w3.org/2000/svg" width="2.03in" height="1.79in" viewBox="0 0 145.87 129.09"><defs><style>.g{stroke-dasharray:0 0 0 0 3.71 1.86 .7 1.86;}.g,.h,.i,.j,.k,.l,.m,.n,.o,.p,.q,.r,.s,.t{fill:none;}.g,.i,.j,.k,.l,.m,.n,.o,.q,.r,.s,.t{stroke:#1d1d1b;stroke-linecap:round;stroke-linejoin:round;stroke-width:.5px;}.h{isolation:isolate;}.u{fill:#fff;}.v{fill:#1d1d1b;}.w{fill:#575756;}.i{stroke-dasharray:0 0 5.42 2.71;}.j{stroke-dasharray:0 0 .7 1.86;}.k{stroke-dasharray:0 0 0 0 3.73 1.87 .7 1.87;}.l{stroke-dasharray:0 0 .7 1.87;}.m{stroke-dasharray:0 0 .7 1.87;}.n{stroke-dasharray:0 0 0 0 3.73 1.87 .7 1.87;}.p{mix-blend-mode:multiply;}.q{stroke-dasharray:0 0 0 0 3.72 1.86 .7 1.86;}.r{stroke-dasharray:0 0 .7 1.86;}.s{stroke-dasharray:0 0 5.51 2.75;}.t{stroke-dasharray:0 0 5.51 2.76;}</style></defs><g class="h"><g id="f"><rect class="u" x="14.06" y="4.94" width="117.69" height="117.69"/><path class="v" d="m131.75,122.88H14.06c-.14,0-.25-.11-.25-.25V4.95c0-.14.11-.25.25-.25h117.69c.14,0,.25.11.25.25v117.69c0,.14-.11.25-.25.25Zm-117.44-.5h117.19V5.2H14.31v117.19Z"/><g class="p"><rect class="w" x="33.65" y="64" width="77.85" height=".25" transform="translate(-24.08 70.1) rotate(-45)"/></g><g class="p"><rect class="w" x="105.25" y="34.25" width="26.5" height=".25"/></g><g class="p"><rect class="w" x="14.21" y="34.25" width="26.44" height=".25"/></g><g class="p"><rect class="w" x="105.14" y="93.23" width="26.61" height=".25"/></g><g class="p"><rect class="w" x="14.21" y="93.23" width="26.31" height=".25"/></g><g class="p"><rect class="w" x="43.36" y="95.7" width=".25" height="26.94"/></g><g class="p"><rect class="w" x="43.36" y="5.09" width=".25" height="26.61"/></g><g class="p"><rect class="w" x="102.21" y="4.95" width=".25" height="26.76"/></g><g class="p"><rect class="w" x="102.21" y="95.7" width=".25" height="26.79"/></g><line class="o" x1="43.56" y1="34.3" x2="44.97" y2="32.89"/><line class="m" x1="46.29" y1="31.57" x2="47.45" y2="30.42"/><line class="k" x1="48.11" y1="29.76" x2="70.55" y2="7.35"/><line class="o" x1="71.21" y1="6.69" x2="72.63" y2="5.28"/><line class="o" x1="73.19" y1="122.3" x2="74.6" y2="120.89"/><line class="l" x1="75.92" y1="119.57" x2="77.08" y2="118.42"/><line class="n" x1="77.74" y1="117.76" x2="100.18" y2="95.35"/><line class="o" x1="100.84" y1="94.69" x2="102.26" y2="93.28"/><line class="o" x1="73.5" y1="5.23" x2="74.91" y2="6.64"/><line class="r" x1="76.23" y1="7.96" x2="77.37" y2="9.1"/><line class="g" x1="78.03" y1="9.76" x2="100.31" y2="32.08"/><line class="o" x1="100.96" y1="32.74" x2="102.38" y2="34.16"/><line class="o" x1="43.61" y1="93.43" x2="45.02" y2="94.84"/><line class="j" x1="46.34" y1="96.16" x2="47.48" y2="97.31"/><line class="q" x1="48.14" y1="97.97" x2="70.46" y2="120.33"/><line class="o" x1="71.12" y1="120.99" x2="72.53" y2="122.4"/><line class="o" x1="43.72" y1="34.37" x2="46.72" y2="34.37"/><line class="t" x1="49.48" y1="34.37" x2="97.71" y2="34.37"/><line class="o" x1="99.09" y1="34.37" x2="102.09" y2="34.37"/><line class="o" x1="43.72" y1="93.36" x2="46.72" y2="93.36"/><line class="t" x1="49.48" y1="93.36" x2="97.71" y2="93.36"/><line class="o" x1="99.09" y1="93.36" x2="102.09" y2="93.36"/><line class="o" x1="14.21" y1="5.09" x2="16.33" y2="7.21"/><line class="i" x1="18.24" y1="9.13" x2="40.26" y2="31.14"/><line class="o" x1="41.22" y1="32.1" x2="43.34" y2="34.22"/><line class="o" x1="102.53" y1="93.42" x2="104.66" y2="95.54"/><line class="i" x1="106.57" y1="97.45" x2="128.59" y2="119.47"/><line class="o" x1="129.54" y1="120.43" x2="131.67" y2="122.55"/><line class="o" x1="14.21" y1="122.55" x2="16.33" y2="120.43"/><line class="i" x1="18.24" y1="118.51" x2="40.26" y2="96.49"/><line class="o" x1="41.22" y1="95.54" x2="43.34" y2="93.42"/><line class="o" x1="102.53" y1="34.22" x2="104.66" y2="32.1"/><line class="i" x1="106.57" y1="30.19" x2="128.59" y2="8.17"/><line class="o" x1="129.54" y1="7.21" x2="131.67" y2="5.09"/><g class="p"><rect class="w" x="72.45" y="25.2" width=".25" height="77.85" transform="translate(-24.08 70.1) rotate(-45)"/></g><line class="o" x1="43.49" y1="34.63" x2="43.49" y2="37.63"/><line class="s" x1="43.49" y1="40.38" x2="43.49" y2="88.57"/><line class="o" x1="43.49" y1="89.95" x2="43.49" y2="92.95"/><line class="o" x1="102.33" y1="34.9" x2="102.33" y2="37.9"/><line class="s" x1="102.33" y1="40.65" x2="102.33" y2="88.84"/><line class="o" x1="102.33" y1="90.22" x2="102.33" y2="93.22"/></g></g></svg>