<?xml version="1.0" encoding="UTF-8"?><svg xmlns="http://www.w3.org/2000/svg" width="2.03in" height="1.79in" viewBox="0 0 145.87 129.09"><defs><style>.g{stroke:#1d1d1b;stroke-linecap:round;stroke-linejoin:round;stroke-width:.75px;}.g,.h,.i{fill:none;}.h{isolation:isolate;}.j{fill:#fff;}.k{fill:#1d1d1b;}.l{fill:#86a344;}.m{fill:#575756;}.i{mix-blend-mode:multiply;}</style></defs><g class="h"><g id="f"><polygon class="l" points="72.91 61.98 72.94 61.83 72.94 33.71 53.04 53.61 59.15 61.98 54.28 61.98 51.84 90.18 94.29 90.18 91.48 61.98 72.91 61.98"/><path class="k" d="m94.29,90.43h-42.45c-.07,0-.14-.03-.18-.08-.05-.05-.07-.12-.06-.19l2.43-28.21c.01-.13.12-.23.25-.23h4.39l-5.82-7.97c-.07-.1-.06-.24.03-.32l19.9-19.9c.07-.07.18-.09.27-.05.09.04.15.13.15.23v28.02h18.3c.13,0,.24.1.25.23l2.81,28.21c0,.07-.02.14-.06.19-.05.05-.12.08-.19.08Zm-42.18-.5h41.9l-2.76-27.71h-18.35c-.08,0-.15-.03-.19-.09-.05-.06-.07-.13-.05-.21l.03-.15v-27.46s-19.32,19.32-19.32,19.32l5.99,8.2c.06.08.06.18.02.26-.04.08-.13.14-.22.14h-4.65l-2.39,27.71Z"/><g class="i"><rect class="m" x="52.97" y="73.46" width="15.59" height=".25" transform="translate(-34.08 62.95) rotate(-44.05)"/></g><polygon class="j" points="72.45 61.16 52.88 52.96 44.82 33.71 60.79 33.71 72.45 61.16"/><path class="k" d="m72.45,61.41s-.07,0-.1-.02l-19.56-8.19c-.06-.03-.11-.07-.13-.13l-8.06-19.25c-.03-.08-.02-.17.02-.24.05-.07.12-.11.21-.11h15.97c.1,0,.19.06.23.15l11.66,27.45c.04.09.02.2-.05.27-.05.05-.11.07-.18.07Zm-19.37-8.63l18.9,7.92-11.35-26.73h-15.43l7.88,18.81Z"/><polygon class="l" points="49.58 45.08 52.57 42.08 72.45 61.16 52.88 52.96 49.58 45.08"/><path class="k" d="m72.45,61.41s-.07,0-.1-.02l-19.56-8.19c-.06-.03-.11-.07-.13-.13l-3.3-7.89c-.04-.09-.02-.2.05-.27l2.99-2.99c.1-.1.25-.1.35,0l19.88,19.07c.09.08.1.22.04.32-.05.07-.13.11-.21.11Zm-19.37-8.63l18.23,7.64-18.73-17.97-2.7,2.7,3.2,7.64Z"/><polygon class="l" points="60.95 33.71 53.37 41.28 72.45 61.16 60.95 33.71"/><path class="k" d="m72.45,61.41c-.07,0-.13-.03-.18-.08l-19.07-19.88c-.09-.1-.09-.25,0-.35l7.58-7.58c.06-.06.14-.08.22-.07.08.02.15.07.18.15l11.5,27.45c.05.11,0,.24-.09.31-.04.03-.09.04-.14.04Zm-18.72-20.12l17.98,18.73-10.84-25.87-7.14,7.14Z"/><rect class="k" x="58.51" y="35.95" width=".5" height="10.98" transform="translate(15.68 99.01) rotate(-88.38)"/><polygon class="l" points="44.82 33.71 55.64 45.02 52.88 52.96 44.82 33.71"/><path class="k" d="m52.88,53.21c-.1,0-.19-.06-.23-.15l-8.06-19.25c-.05-.11,0-.24.09-.31.1-.07.23-.05.32.04l10.81,11.31c.06.07.09.17.06.25l-2.75,7.94c-.03.1-.12.16-.23.17h0Zm-7.31-18.35l7.29,17.41,2.49-7.18-9.78-10.23Z"/><polygon class="l" points="61.45 78.6 61.45 61.83 53 53.56 53 90.17 61.45 78.6"/><path class="k" d="m53,90.42s-.05,0-.08-.01c-.1-.03-.17-.13-.17-.24v-36.62c0-.1.06-.19.15-.23.09-.04.2-.02.27.05l8.45,8.27s.08.11.08.18v16.77c0,.05-.02.1-.05.15l-8.45,11.58c-.05.07-.12.1-.2.1Zm.25-36.27v35.25l7.95-10.89v-16.58l-7.95-7.78Z"/><polygon class="l" points="24.02 70.55 44.64 90.18 53.01 90.17 72.61 70.57 24.02 70.55"/><path class="k" d="m44.64,90.43c-.06,0-.13-.02-.17-.07l-20.61-19.63c-.07-.07-.1-.18-.06-.27.04-.1.13-.16.23-.16h0l48.59.02c.1,0,.19.06.23.15.04.09.02.2-.05.27l-19.61,19.61s-.11.07-.18.07h-8.37Zm-19.99-19.63l20.09,19.13h8.17s19.11-19.12,19.11-19.12l-47.36-.02Z"/><g class="i"><rect class="m" x="52.92" y="71.87" width=".25" height="16.74"/></g><g class="i"><rect class="m" x="72.76" y="73.59" width=".25" height="15.02"/></g><polygon class="j" points="72.94 61.83 72.88 70.55 72.22 70.55 72.94 61.83"/><path class="k" d="m72.88,70.8h-.66c-.07,0-.14-.03-.18-.08-.05-.05-.07-.12-.07-.19l.72-8.72c.01-.13.14-.24.26-.23.13,0,.24.12.24.25l-.06,8.72c0,.14-.11.25-.25.25Zm-.39-.5h.14v-1.87s-.14,1.87-.14,1.87Z"/><polygon class="l" points="72.94 61.83 73.66 70.55 92.83 70.55 92.83 53.61 72.94 33.71 72.94 61.83"/><path class="k" d="m92.83,70.8h-19.18c-.13,0-.24-.1-.25-.23l-.72-8.72s0-.01,0-.02v-28.12c0-.1.06-.19.15-.23.09-.04.2-.02.27.05l19.89,19.9s.07.11.07.18v16.95c0,.14-.11.25-.25.25Zm-18.95-.5h18.7v-16.59l-19.39-19.4v27.5l.7,8.48Z"/><g class="i"><rect class="m" x="84.99" y="65.79" width=".25" height="15.59" transform="translate(-26.95 83.67) rotate(-45.99)"/></g><polygon class="j" points="73.43 61.16 92.99 52.96 101.05 33.71 85.08 33.71 73.43 61.16"/><path class="k" d="m73.43,61.41c-.07,0-.13-.03-.18-.07-.07-.07-.09-.18-.05-.27l11.66-27.45c.04-.09.13-.15.23-.15h15.97c.08,0,.16.04.21.11.05.07.05.16.02.24l-8.06,19.25c-.03.06-.07.11-.13.13l-19.57,8.19s-.06.02-.1.02Zm11.82-27.45l-11.35,26.73,18.9-7.92,7.88-18.81h-15.43Z"/><polygon class="l" points="96.29 45.08 93.3 42.08 73.43 61.16 92.99 52.96 96.29 45.08"/><path class="k" d="m73.43,61.41c-.08,0-.16-.04-.21-.11-.07-.1-.05-.23.04-.32l19.88-19.07c.1-.09.25-.09.35,0l2.99,2.99c.07.07.09.18.05.27l-3.3,7.89c-.03.06-.07.11-.13.13l-19.57,8.19s-.06.02-.1.02Zm19.87-18.97l-18.73,17.97,18.23-7.64,3.2-7.64-2.7-2.7Z"/><polygon class="l" points="84.92 33.71 92.5 41.28 73.43 61.16 84.92 33.71"/><path class="k" d="m73.43,61.41s-.09-.01-.14-.04c-.1-.07-.14-.19-.09-.31l11.5-27.45c.03-.08.1-.13.18-.15.08-.02.17,0,.22.07l7.58,7.58c.1.1.1.25,0,.35l-19.07,19.88c-.05.05-.11.08-.18.08Zm11.58-27.26l-10.84,25.87,17.98-18.73-7.14-7.14Z"/><rect class="k" x="81.62" y="41.19" width="10.98" height=".5" transform="translate(-1.1 2.4) rotate(-1.57)"/><polygon class="l" points="101.05 33.71 90.24 45.02 92.99 52.96 101.05 33.71"/><path class="k" d="m92.99,53.21h0c-.1,0-.19-.07-.23-.17l-2.75-7.94c-.03-.09,0-.19.06-.25l10.81-11.31c.08-.09.22-.1.32-.04.1.07.14.19.09.31l-8.06,19.25c-.04.09-.13.15-.23.15Zm-2.47-8.13l2.49,7.18,7.29-17.41-9.78,10.23Z"/><polygon class="l" points="84.43 79.5 84.43 61.83 92.88 53.56 92.88 90.17 84.43 79.5"/><path class="k" d="m92.88,90.42c-.08,0-.15-.03-.2-.09l-8.45-10.67s-.05-.1-.05-.16v-17.67c0-.07.03-.13.08-.18l8.45-8.27c.07-.07.18-.09.27-.05.09.04.15.13.15.23v36.62c0,.11-.07.2-.17.24-.03,0-.05.01-.08.01Zm-8.2-11.01l7.95,10.04v-35.3l-7.95,7.78v17.48Z"/><polygon class="l" points="121.85 70.55 101.24 90.18 92.87 90.17 73.26 70.57 121.85 70.55"/><path class="k" d="m101.24,90.43h-8.37c-.07-.01-.13-.04-.18-.08l-19.61-19.61c-.07-.07-.09-.18-.05-.27.04-.09.13-.15.23-.15l48.59-.02c.1,0,.19.06.23.16.04.09.01.2-.06.27l-20.61,19.63s-.11.07-.17.07Zm-8.27-.51h8.17s20.09-19.12,20.09-19.12l-47.36.02,19.11,19.11Z"/><g class="i"><rect class="m" x="92.71" y="71.87" width=".25" height="16.74"/></g><g class="i"><rect class="m" x="72.87" y="73.59" width=".25" height="15.02"/></g><polygon class="j" points="72.94 61.83 72.99 70.55 73.66 70.55 72.94 61.83"/><path class="k" d="m73.66,70.8h-.66c-.14,0-.25-.11-.25-.25l-.06-8.72c0-.13.1-.25.24-.25.13-.01.25.09.26.23l.72,8.72c0,.07-.02.14-.07.19-.05.05-.11.08-.18.08Zm-.41-.5h.14l-.15-1.87v1.87Z"/><path class="k" d="m111.81,52.34c-.34-12.14-8.86-17.52-8.94-17.58l.39-.64c.09.06,8.95,5.66,9.3,18.19l-.75.02Z"/><polyline class="g" points="113.92 50.52 112.35 52.66 110.2 51.09"/><path class="k" d="m34.13,52.34l-.75-.02c.35-12.54,9.21-18.14,9.3-18.19l.39.64c-.09.05-8.61,5.46-8.94,17.58Z"/><polyline class="g" points="32.02 50.52 33.59 52.66 35.74 51.09"/></g></g></svg>