<?xml version="1.0" encoding="UTF-8"?><svg xmlns="http://www.w3.org/2000/svg" width="2.03in" height="1.79in" viewBox="0 0 145.87 129.09"><defs><style>.g{isolation:isolate;}.g,.h{fill:none;}.i{fill:#fff;}.j{fill:#1d1d1b;}.k{fill:#86a344;}.l{fill:#575756;}.h{mix-blend-mode:multiply;}</style></defs><g class="g"><g id="f"><polygon class="k" points="101 92.81 44.88 92.81 44.88 64.54 72.88 36.28 101 36.28 101 92.81"/><path class="j" d="m101,93.06h-56.12c-.14,0-.25-.11-.25-.25v-28.27c0-.07.03-.13.07-.18l28-28.27s.11-.07.18-.07h28.12c.14,0,.25.11.25.25v56.53c0,.14-.11.25-.25.25Zm-55.87-.5h55.62v-56.03h-27.76l-27.86,28.12v27.91Z"/><polygon class="i" points="73.85 121.08 101 92.81 101 36.28 72.88 36.28 72.88 64.54 73.85 92.81 73.85 121.08"/><path class="j" d="m73.85,121.33s-.06,0-.09-.02c-.09-.04-.16-.13-.16-.23v-28.27l-.97-28.26v-28.27c0-.14.11-.25.25-.25h28.12c.14,0,.25.11.25.25v56.53c0,.06-.02.13-.07.17l-27.15,28.27s-.11.08-.18.08Zm-.72-84.8v28.02l.97,28.26v27.65l26.65-27.75v-56.18h-27.62Z"/><polygon class="k" points="73.85 121.08 101 92.81 101 64.54 72.88 64.54 75.38 92.81 73.85 121.08"/><path class="j" d="m73.85,121.33s-.07,0-.1-.02c-.1-.04-.16-.14-.15-.24l1.53-28.27-2.5-28.23c0-.07.02-.14.06-.19s.11-.08.18-.08h28.12c.14,0,.25.11.25.25v28.27c0,.06-.02.13-.07.17l-27.15,28.27s-.11.08-.18.08Zm-.69-56.53l2.47,27.99-1.49,27.63,26.61-27.71v-27.92h-27.59Z"/><g class="h"><rect class="l" x="76.44" y="92.68" width="22.5" height=".25"/></g><g class="h"><rect class="l" x="76.44" y="36.15" width="22.5" height=".25"/></g><g class="h"><polygon class="l" points="95.96 87.04 80.05 70.48 80.23 70.31 96.14 86.87 95.96 87.04"/></g><rect class="j" x="67.25" y="50.72" width="38.33" height=".5" transform="translate(-10.68 76.23) rotate(-45.12)"/><polygon class="k" points="101 64.54 73.8 63.65 72.88 36.28 101 36.28 101 64.54"/><path class="j" d="m101,64.79h0l-27.19-.89c-.13,0-.24-.11-.24-.24l-.92-27.38c0-.07.02-.13.07-.18.05-.05.11-.08.18-.08h28.12c.14,0,.25.11.25.25v28.27c0,.07-.03.13-.08.18-.05.04-.11.07-.17.07Zm-26.95-1.38l26.7.87v-27.76h-27.61l.91,26.88Z"/><g class="h"><rect class="l" x="75.95" y="50.06" width="23.02" height=".25" transform="translate(-10.15 75.47) rotate(-44.37)"/></g><rect class="j" x="72.88" y="64.42" width="28.12" height=".25"/><polygon class="i" points="72.03 121.08 44.88 92.81 44.88 64.54 72.99 64.54 72.99 64.54 72.03 92.81 72.03 121.08"/><path class="j" d="m72.03,121.33c-.07,0-.13-.03-.18-.08l-27.15-28.27s-.07-.11-.07-.17v-28.27c0-.14.11-.25.25-.25h28.12c.07,0,.13.03.18.08.05.05.07.11.07.18l-.97,28.27v28.26c0,.1-.06.19-.16.23-.03.01-.06.02-.09.02Zm-26.9-28.62l26.65,27.75v-27.65l.96-28.02h-27.61v27.92Z"/><polygon class="k" points="72.99 36.28 44.88 64.54 44.88 92.81 72.03 121.08 70.5 92.81 72.99 64.54 72.99 36.28"/><path class="j" d="m72.03,121.33c-.07,0-.13-.03-.18-.08l-27.15-28.27s-.07-.11-.07-.17v-28.27c0-.07.03-.13.07-.18l28.12-28.27c.07-.07.18-.09.27-.05.09.04.15.13.15.23v28.27l-2.5,28.29,1.53,28.23c0,.1-.05.2-.15.24-.03.01-.07.02-.1.02Zm-26.9-28.62l26.61,27.71-1.49-27.59,2.5-28.3v-27.64s-27.62,27.76-27.62,27.76v28.06Z"/><g class="h"><rect class="l" x="46.93" y="92.68" width="22.5" height=".25"/></g><g class="h"><rect class="l" x="46.52" y="78.72" width="23.21" height=".25" transform="translate(-38.56 63.13) rotate(-44.37)"/></g><rect class="j" x="69" y="55.51" width=".5" height="10.58" transform="translate(-22.71 66.78) rotate(-45)"/><polygon class="i" points="72.5 63.72 45.05 52.23 44.88 36.28 60.85 36.28 72.5 63.72"/><path class="j" d="m72.5,63.97s-.07,0-.1-.02l-27.45-11.5c-.09-.04-.15-.13-.15-.23l-.18-15.95c0-.07.03-.13.07-.18s.11-.07.18-.07h15.97c.1,0,.19.06.23.15l11.66,27.45c.04.09.02.2-.05.27-.05.05-.11.07-.18.07Zm-27.2-11.91l26.73,11.2-11.35-26.73h-15.55l.17,15.53Z"/><polygon class="k" points="45.05 52.23 52.63 44.65 72.5 63.72 45.05 52.23"/><path class="j" d="m72.5,63.97s-.07,0-.1-.02l-27.45-11.5c-.08-.03-.13-.1-.15-.18-.02-.08,0-.17.07-.23l7.58-7.58c.1-.1.25-.1.35,0l19.88,19.07c.09.08.1.22.04.32-.05.07-.13.11-.21.11Zm-27.01-11.83l25.87,10.83-18.73-17.97-7.14,7.14Z"/><rect class="j" x="52.53" y="44.55" width=".5" height="10.98" transform="translate(-1.39 1.51) rotate(-1.62)"/><polygon class="k" points="61.01 36.27 53.43 43.85 72.5 63.73 61.01 36.27"/><path class="j" d="m72.5,63.98c-.07,0-.13-.03-.18-.08l-19.07-19.88c-.09-.1-.09-.25,0-.35l7.58-7.58c.06-.06.14-.08.23-.07s.15.07.18.15l11.5,27.45c.05.11,0,.24-.09.31-.04.03-.09.04-.14.04Zm-18.72-20.12l17.97,18.73-10.84-25.87-7.14,7.14Z"/><rect class="j" x="58.57" y="38.52" width=".5" height="10.98" transform="translate(13.17 101.56) rotate(-88.38)"/><g class="h"><polygon class="l" points="92.43 91.24 92.37 84.92 92.62 84.92 92.68 91.23 92.43 91.24"/><path class="l" d="m91.65,85.89l-.19-.17.89-.99c.05-.05.13-.05.18,0l.99.89-.17.19-.9-.8-.8.9Z"/></g></g></g></svg>