<?xml version="1.0" encoding="UTF-8"?><svg xmlns="http://www.w3.org/2000/svg" width="2.03in" height="1.79in" viewBox="0 0 145.87 129.09"><defs><style>.g{stroke:#1d1d1b;stroke-linecap:round;stroke-linejoin:round;stroke-width:.75px;}.g,.h,.i{fill:none;}.h{isolation:isolate;}.j{fill:#fff;}.k{fill:#1d1d1b;}.l{fill:#86a344;}.m{fill:#575756;}.i{mix-blend-mode:multiply;}</style></defs><g class="h"><g id="f"><polygon class="l" points="72.61 61.95 72.62 61.8 72.62 33.68 52.73 53.58 60.4 61.95 53.96 61.95 51.33 90.16 94.66 90.16 91.17 61.95 72.61 61.95"/><path class="k" d="m94.66,90.41h-43.33c-.07,0-.14-.03-.18-.08-.05-.05-.07-.12-.06-.19l2.63-28.21c.01-.13.12-.23.25-.23h5.87l-7.29-7.95c-.09-.1-.09-.25,0-.35l19.89-19.89c.07-.07.18-.09.27-.05.09.04.15.13.15.23v28.02h18.3c.13,0,.23.09.25.22l3.49,28.21c0,.07-.01.14-.06.2-.05.05-.12.08-.19.08Zm-43.06-.5h42.78l-3.43-27.71h-18.34c-.07,0-.14-.03-.18-.08-.05-.05-.07-.12-.06-.19v-.15s.01-27.49.01-27.49l-19.3,19.3,7.51,8.2c.07.07.08.18.04.27s-.13.15-.23.15h-6.21l-2.59,27.71Z"/><g class="i"><rect class="m" x="52.65" y="73.44" width="15.59" height=".25" transform="translate(-34.15 62.72) rotate(-44.05)"/></g><polygon class="l" points="61.13 79.7 61.13 61.8 52.68 53.53 52.68 90.15 61.13 79.7"/><path class="k" d="m52.68,90.4s-.06,0-.08-.01c-.1-.04-.17-.13-.17-.24v-36.62c0-.1.06-.19.15-.23.09-.04.2-.02.27.05l8.45,8.27s.08.11.08.18v17.9c0,.06-.02.11-.06.16l-8.45,10.44c-.05.06-.12.09-.19.09Zm.25-36.27v35.31l7.95-9.83v-17.71l-7.95-7.78Z"/><polygon class="j" points="72.62 61.36 52.86 69.06 33.68 60.82 45.17 49.72 72.62 61.36"/><path class="k" d="m52.86,69.31s-.07,0-.1-.02l-19.18-8.24c-.08-.03-.13-.1-.15-.18-.01-.08.01-.17.07-.22l11.49-11.1c.07-.07.18-.09.27-.05l27.45,11.64c.09.04.15.13.15.23,0,.1-.06.19-.16.23l-19.76,7.7s-.06.02-.09.02Zm-18.73-8.58l18.74,8.06,19.1-7.44-26.74-11.34-11.1,10.72Z"/><polygon class="l" points="45 65.68 45.07 61.45 72.62 61.36 52.86 69.06 45 65.68"/><path class="k" d="m52.86,69.31s-.07,0-.1-.02l-7.86-3.38c-.09-.04-.15-.13-.15-.23l.07-4.23c0-.14.11-.25.25-.25l27.55-.09h0c.12,0,.22.09.25.2.02.12-.04.24-.16.28l-19.76,7.7s-.06.02-.09.02Zm-7.6-3.79l7.61,3.27,18.42-7.18-25.96.09-.07,3.82Z"/><polygon class="l" points="45.28 49.61 45.09 60.32 72.62 61.36 45.28 49.61"/><path class="k" d="m72.62,61.61h0l-27.53-1.04c-.14,0-.24-.12-.24-.25l.18-10.71c0-.08.04-.16.11-.21.07-.04.16-.05.23-.02l27.34,11.75c.11.05.17.17.15.28-.03.11-.13.19-.24.19Zm-27.27-1.53l25.94.98-25.77-11.08-.17,10.1Z"/><polygon class="l" points="33.68 60.82 49.32 61.44 52.86 69.06 33.68 60.82"/><path class="k" d="m52.86,69.31s-.07,0-.1-.02l-19.18-8.24c-.11-.05-.17-.17-.15-.28.03-.12.14-.2.25-.19l15.64.62c.09,0,.18.06.22.14l3.54,7.62c.04.09.03.21-.05.28-.05.05-.11.08-.18.08Zm-17.84-8.19l17.34,7.45-3.2-6.89-14.14-.56Z"/><polygon class="l" points="23.71 70.52 44.32 90.16 52.69 90.15 72.3 70.54 23.71 70.52"/><path class="k" d="m44.32,90.41c-.06,0-.13-.02-.17-.07l-20.61-19.63c-.07-.07-.1-.18-.06-.27.04-.1.13-.16.23-.16h0l48.59.02c.1,0,.19.06.23.15.04.09.02.2-.05.27l-19.61,19.61s-.11.07-.18.07h-8.37Zm-19.99-19.63l20.09,19.13h8.17s19.11-19.12,19.11-19.12l-47.36-.02Z"/><g class="i"><rect class="m" x="52.6" y="71.84" width=".25" height="16.74"/></g><g class="i"><rect class="m" x="72.44" y="73.56" width=".25" height="15.02"/></g><polygon class="j" points="72.62 61.8 72.57 70.52 71.9 70.52 72.62 61.8"/><path class="k" d="m72.57,70.77h-.66c-.07,0-.14-.03-.18-.08-.05-.05-.07-.12-.07-.19l.72-8.72c.01-.13.14-.25.26-.23.13,0,.24.12.24.25l-.06,8.72c0,.14-.11.25-.25.25Zm-.39-.5h.14v-1.87s-.14,1.87-.14,1.87Z"/><polygon class="l" points="45.54 60.19 72.6 33.13 72.6 61.35 45.54 60.19"/><path class="k" d="m72.6,61.6h-.01l-27.06-1.16c-.1,0-.19-.07-.22-.16-.04-.09-.01-.2.06-.27l27.06-27.06c.07-.07.18-.09.27-.05.09.04.15.13.15.23v28.22c0,.07-.03.13-.08.18-.05.04-.11.07-.17.07Zm-26.48-1.63l26.23,1.12v-27.35l-26.23,26.23Z"/><g class="i"><rect class="m" x="62.73" y="48.58" width=".25" height="17.14" transform="translate(-14.03 93.29) rotate(-67.45)"/></g><g class="i"><polygon class="m" points="70.48 59.18 58.94 47.64 59.12 47.46 70.66 59 70.48 59.18"/></g><polygon class="l" points="72.72 61.83 73.44 70.55 92.19 70.52 92.61 53.61 72.72 33.71 72.72 61.83"/><path class="k" d="m73.44,70.8c-.13,0-.24-.1-.25-.23l-.72-8.72s0-.01,0-.02v-28.12c0-.1.06-.19.15-.23.09-.04.2-.02.27.05l19.9,19.9s.08.11.07.18l-.42,16.92c0,.14-.11.24-.25.24l-18.75.03h0Zm-.47-8.98l.7,8.48,18.28-.03.41-16.57-19.39-19.39v27.5Z"/><g class="i"><rect class="m" x="84.77" y="65.79" width=".25" height="15.59" transform="translate(-27.02 83.51) rotate(-45.99)"/></g><polygon class="l" points="84.21 78.99 84.21 61.83 92.66 53.56 92.66 90.17 84.21 78.99"/><path class="k" d="m92.66,90.42c-.08,0-.15-.04-.2-.1l-8.45-11.19s-.05-.1-.05-.15v-17.16c0-.07.03-.13.08-.18l8.45-8.27c.07-.07.18-.09.27-.05.09.04.15.13.15.23v36.62c0,.11-.07.2-.17.24-.03,0-.05.01-.08.01Zm-8.2-11.52l7.95,10.52v-35.28l-7.95,7.78v16.97Z"/><polygon class="j" points="72.72 61.39 92.49 69.09 111.66 60.84 100.18 49.75 72.72 61.39"/><path class="k" d="m92.49,69.34s-.06,0-.09-.02l-19.76-7.7c-.09-.04-.16-.13-.16-.23,0-.1.06-.19.15-.23l27.45-11.64c.09-.04.2-.02.27.05l11.49,11.1c.06.06.09.14.07.22-.02.08-.07.15-.15.18l-19.18,8.24s-.07.02-.1.02Zm-19.1-7.96l19.1,7.44,18.74-8.06-11.1-10.72-26.74,11.34Z"/><polygon class="l" points="100.34 65.71 100.27 61.48 72.72 61.39 92.49 69.09 100.34 65.71"/><path class="k" d="m92.49,69.34s-.06,0-.09-.02l-19.76-7.7c-.11-.04-.18-.16-.16-.28.02-.12.13-.2.25-.2h0l27.55.09c.14,0,.25.11.25.25l.07,4.23c0,.1-.06.19-.15.23l-7.86,3.38s-.07.02-.1.02Zm-18.42-7.7l18.42,7.18,7.61-3.27-.07-3.82-25.96-.09Z"/><polygon class="l" points="100.06 49.63 100.25 60.35 72.72 61.39 100.06 49.63"/><path class="k" d="m72.72,61.64c-.12,0-.22-.08-.24-.19-.03-.12.04-.24.15-.28l27.34-11.75c.08-.03.17-.02.23.02.07.05.11.12.11.21l.18,10.71c0,.14-.1.25-.24.25l-27.53,1.04h0Zm27.1-11.63l-25.77,11.08,25.94-.98-.17-10.1Z"/><polygon class="l" points="111.66 60.84 96.02 61.47 92.49 69.09 111.66 60.84"/><path class="k" d="m92.49,69.34c-.07,0-.13-.03-.18-.08-.07-.07-.09-.19-.05-.28l3.54-7.62c.04-.08.12-.14.22-.14l15.64-.62c.12-.01.23.08.25.19.03.12-.04.24-.15.28l-19.18,8.24s-.07.02-.1.02Zm3.7-7.63l-3.2,6.89,17.33-7.45-14.14.56Z"/><polygon class="l" points="121.63 70.55 101.02 90.18 92.65 90.17 73.04 70.57 121.63 70.55"/><path class="k" d="m101.02,90.43h-8.37c-.07-.01-.13-.04-.18-.08l-19.61-19.61c-.07-.07-.09-.18-.05-.27.04-.09.13-.15.23-.15l48.59-.02c.1,0,.19.06.23.16.04.09.01.2-.06.27l-20.61,19.63s-.11.07-.17.07Zm-8.27-.51h8.17s20.09-19.12,20.09-19.12l-47.36.02,19.11,19.11Z"/><g class="i"><rect class="m" x="92.49" y="71.87" width=".25" height="16.74"/></g><polygon class="j" points="72.72 61.83 72.78 70.55 73.44 70.55 72.72 61.83"/><path class="k" d="m73.44,70.8h-.66c-.14,0-.25-.11-.25-.25l-.06-8.72c0-.13.1-.25.24-.25.14-.01.25.09.26.23l.72,8.72c0,.07-.02.14-.07.19-.05.05-.11.08-.18.08Zm-.41-.5h.14l-.15-1.87v1.87Z"/><polygon class="l" points="99.8 60.23 72.74 33.17 72.74 61.39 99.8 60.23"/><path class="k" d="m72.74,61.64c-.06,0-.13-.02-.17-.07-.05-.05-.08-.11-.08-.18v-28.22c0-.1.06-.19.15-.23.09-.04.2-.02.27.05l27.06,27.06c.07.07.09.18.06.27-.04.09-.12.15-.22.16l-27.06,1.16h-.01Zm.25-27.86v27.35l26.23-1.12-26.23-26.23Z"/><g class="i"><polygon class="m" points="74.79 60.56 74.69 60.33 90.52 53.82 90.62 54.05 74.79 60.56"/></g><g class="i"><polygon class="m" points="74.98 59.18 74.81 59 86.11 47.7 86.29 47.87 74.98 59.18"/></g><path class="k" d="m110.08,44.54c-.42,0-.85-.01-1.29-.03l.04-.75c2.63.12,4.71-.14,6.11-.75-.28-.15-.54-.32-.78-.51-.74-.63-1.11-1.45-1.08-2.44,0-1.29,1.06-2.35,2.36-2.35s2.36,1.06,2.36,2.36c.02,1.05-.34,1.94-1.07,2.65-.03.03-.06.06-.09.08,1.35.29,3.06.28,4.86-.07l.14.74c-1.81.35-4.04.45-5.79-.09-1.31.77-3.24,1.16-5.78,1.16Zm5.36-6.09c-.89,0-1.61.72-1.61,1.61-.02.76.26,1.38.82,1.85.3.25.68.46,1.12.63.16-.11.31-.24.45-.37.58-.56.86-1.27.84-2.11,0-.9-.72-1.62-1.61-1.62Z"/><polyline class="g" points="119.63 41.51 121.79 43.05 120.25 45.22"/></g></g></svg>