<?xml version="1.0" encoding="UTF-8"?><svg xmlns="http://www.w3.org/2000/svg" width="2.03in" height="1.79in" viewBox="0 0 145.87 129.09"><defs><style>.g{isolation:isolate;}.g,.h{fill:none;}.i{fill:#657136;}.j{fill:#1d1d1b;}.k{fill:#86a344;}.l{fill:#575756;}.h{mix-blend-mode:multiply;}</style></defs><g class="g"><g id="f"><polygon class="k" points="52.94 31.2 64.09 37.83 54.78 43.34 46.03 38.4 52.94 31.2"/><path class="j" d="m54.78,43.59s-.08-.01-.12-.03l-8.75-4.94c-.07-.04-.11-.1-.12-.18-.01-.08.01-.15.07-.21l6.92-7.2c.08-.08.21-.1.31-.04l11.15,6.63c.08.04.12.13.12.22s-.05.17-.12.21l-9.31,5.5s-.08.03-.13.03Zm-8.35-5.25l8.34,4.71,8.83-5.22-10.61-6.31-6.55,6.82Z"/><polygon class="i" points="46.03 53.5 51.96 66.48 49.58 70.38 58.02 71.28 62.4 56.32 46.03 53.5"/><path class="j" d="m58.03,71.53s-.02,0-.03,0l-8.44-.9c-.08,0-.16-.06-.2-.14-.04-.08-.03-.17,0-.24l2.31-3.79-5.87-12.86c-.04-.08-.03-.18.03-.26.06-.07.15-.11.24-.09l16.37,2.82c.07.01.13.05.17.11.04.06.05.13.03.2l-4.37,14.96c-.03.11-.13.18-.24.18Zm-8.03-1.35l7.84.83,4.24-14.49-15.63-2.69,5.73,12.55c.03.08.03.16-.01.23l-2.17,3.56Z"/><polygon class="k" points="60.71 62.53 41.51 76.08 46.03 96.11 66.35 79.89 69.46 65.68 60.71 62.53"/><path class="j" d="m46.03,96.36s-.06,0-.08-.01c-.08-.03-.14-.1-.16-.18l-4.52-20.04c-.02-.1.02-.2.1-.26l19.19-13.55c.07-.05.15-.06.23-.03l8.75,3.15c.12.04.19.17.16.29l-3.1,14.21c-.01.06-.04.11-.09.14l-20.32,16.23s-.1.05-.16.05Zm-4.24-20.18l4.39,19.49,19.94-15.92,3.04-13.9-8.42-3.03-18.95,13.38Z"/><rect class="j" x="51.87" y="65.57" width="5.2" height=".5" transform="translate(-14.93 15.99) rotate(-14.72)"/><path class="j" d="m66.18,80.07l-6.63-5.93c-.08-.08-.11-.2-.05-.3l1.96-3.79.44.23-1.87,3.62,6.48,5.8-.33.37Z"/><rect class="j" x="59.51" y="72.79" width="4.22" height=".5" transform="translate(-25.59 33.97) rotate(-25.71)"/><polygon class="k" points="82.36 68.52 84.34 105.93 104.36 82.62 101.29 68.52 82.36 68.52"/><path class="j" d="m84.34,106.18s-.05,0-.08-.01c-.1-.03-.16-.12-.17-.22l-1.98-37.41c0-.07.02-.14.07-.19.05-.05.11-.08.18-.08h18.93c.12,0,.22.08.24.2l3.07,14.1c.02.08,0,.16-.05.22l-20.02,23.31c-.05.06-.12.09-.19.09Zm-1.72-37.41l1.93,36.52,19.53-22.74-3-13.79h-18.47Z"/><rect class="j" x="98.19" y="70.58" width=".5" height="14.95" transform="translate(-23.49 108.34) rotate(-52.36)"/><polygon class="k" points="47.02 43.48 46.03 53.5 63.53 72.13 102.48 73.96 94.57 37.13 77.18 23.16 77.92 37.13 62.26 33.88 47.02 43.48"/><path class="j" d="m102.48,74.21s0,0-.01,0l-38.95-1.83c-.06,0-.13-.03-.17-.08l-17.5-18.63c-.05-.05-.07-.12-.07-.2l.99-10.02c0-.08.05-.15.12-.19l15.24-9.6c.05-.03.12-.05.18-.03l15.35,3.18-.73-13.65c0-.1.05-.19.14-.24.09-.04.19-.03.27.03l17.4,13.97s.08.09.09.14l7.9,36.83c.02.08,0,.15-.05.21-.05.06-.12.09-.19.09Zm-38.83-2.33l38.52,1.81-7.82-36.43-16.89-13.56.72,13.41c0,.08-.03.15-.09.2-.06.05-.14.07-.21.06l-15.56-3.23-15.05,9.48-.96,9.78,17.35,18.47Z"/><line class="k" x1="71.76" y1="35.85" x2="95.37" y2="40.82"/><polygon class="j" points="95.31 41.07 71.7 36.1 71.81 35.61 95.42 40.58 95.31 41.07"/><g class="h"><polygon class="l" points="89.64 69.73 57.91 38.42 58.09 38.25 89.81 69.55 89.64 69.73"/></g><g class="h"><rect class="l" x="54.39" y="51.86" width="35.14" height=".25" transform="translate(-16.8 53.64) rotate(-36.91)"/></g><g class="h"><rect class="l" x="39.49" y="82.75" width="27.2" height=".25" transform="translate(-45.15 88.86) rotate(-60.84)"/></g><g class="h"><polygon class="l" points="56.41 36.48 53.09 32.04 53.29 31.89 56.61 36.33 56.41 36.48"/></g></g></g></svg>