<?xml version="1.0" encoding="UTF-8"?><svg xmlns="http://www.w3.org/2000/svg" width="2.03in" height="1.79in" viewBox="0 0 145.87 129.09"><defs><style>.g{stroke:#1d1d1b;stroke-linecap:round;stroke-linejoin:round;stroke-width:.75px;}.g,.h,.i{fill:none;}.h{isolation:isolate;}.j{fill:#fff;}.k{fill:#1d1d1b;}.l{fill:#86a344;}.m{fill:#575756;}.i{mix-blend-mode:multiply;}</style></defs><g class="h"><g id="f"><rect class="l" x="45.19" y="36.28" width="56.12" height="56.53"/><path class="k" d="m101.31,93.06h-56.12c-.14,0-.25-.11-.25-.25v-56.53c0-.14.11-.25.25-.25h56.12c.14,0,.25.11.25.25v56.53c0,.14-.11.25-.25.25Zm-55.87-.5h55.62v-56.03h-55.62v56.03Z"/><polygon class="j" points="74.16 121.08 101.31 92.81 101.31 36.28 73.19 36.28 73.19 64.54 74.16 92.81 74.16 121.08"/><path class="k" d="m74.16,121.33s-.06,0-.09-.02c-.09-.04-.16-.13-.16-.23v-28.27l-.97-28.26v-28.27c0-.14.11-.25.25-.25h28.12c.14,0,.25.11.25.25v56.53c0,.06-.02.13-.07.17l-27.15,28.27s-.11.08-.18.08Zm-.72-84.8v28.02l.97,28.26v27.65l26.65-27.75v-56.18h-27.62Z"/><polygon class="l" points="74.16 121.08 101.31 92.81 101.31 64.54 73.19 64.54 75.69 92.81 74.16 121.08"/><path class="k" d="m74.16,121.33s-.07,0-.1-.02c-.1-.04-.16-.14-.15-.24l1.53-28.27-2.5-28.23c0-.07.02-.14.06-.19s.11-.08.18-.08h28.12c.14,0,.25.11.25.25v28.27c0,.06-.02.13-.07.17l-27.15,28.27s-.11.08-.18.08Zm-.69-56.53l2.47,27.99-1.49,27.63,26.61-27.71v-27.92h-27.59Z"/><g class="i"><rect class="m" x="76.75" y="92.68" width="22.5" height=".25"/></g><g class="i"><rect class="m" x="76.75" y="36.15" width="22.5" height=".25"/></g><g class="i"><polygon class="m" points="96.27 87.04 80.36 70.48 80.54 70.31 96.45 86.87 96.27 87.04"/></g><rect class="k" x="67.92" y="50.86" width="38.12" height=".5" transform="translate(-10.73 76.21) rotate(-44.84)"/><polygon class="l" points="101.31 64.54 74.11 63.65 73.19 36.28 101.31 36.28 101.31 64.54"/><path class="k" d="m101.31,64.79h0l-27.19-.89c-.13,0-.24-.11-.24-.24l-.92-27.38c0-.07.02-.13.07-.18.05-.05.11-.08.18-.08h28.12c.14,0,.25.11.25.25v28.27c0,.07-.03.13-.08.18-.05.04-.11.07-.17.07Zm-26.95-1.38l26.7.87v-27.76h-27.61l.91,26.88Z"/><g class="i"><polygon class="m" points="79.87 58.78 79.69 58.6 95.6 42.04 95.78 42.22 79.87 58.78"/></g><rect class="k" x="73.19" y="64.42" width="28.12" height=".25"/><g class="i"><rect class="m" x="87.12" y="31.58" width=".25" height="37.65" transform="translate(-10.16 76.2) rotate(-44.85)"/></g><polygon class="j" points="72.34 121.08 45.19 92.81 45.19 36.28 73.3 36.28 73.3 64.54 72.34 92.81 72.34 121.08"/><path class="k" d="m72.34,121.33c-.07,0-.13-.03-.18-.08l-27.15-28.27s-.07-.11-.07-.17v-56.53c0-.14.11-.25.25-.25h28.12c.14,0,.25.11.25.25v28.27l-.97,28.27v28.26c0,.1-.06.19-.16.23-.03.01-.06.02-.09.02Zm-26.9-28.62l26.65,27.75v-27.65l.97-28.27v-28.01h-27.62v56.18Z"/><polygon class="l" points="72.34 121.08 45.19 92.81 45.19 64.54 73.3 64.54 70.81 92.81 72.34 121.08"/><path class="k" d="m72.34,121.33c-.07,0-.13-.03-.18-.08l-27.15-28.27s-.07-.11-.07-.17v-28.27c0-.14.11-.25.25-.25h28.12c.07,0,.14.03.18.08s.07.12.06.19l-2.5,28.27,1.53,28.23c0,.1-.05.2-.15.24-.03.01-.07.02-.1.02Zm-26.9-28.62l26.61,27.71-1.49-27.59,2.47-28.03h-27.59v27.92Z"/><g class="i"><rect class="m" x="47.24" y="92.68" width="22.5" height=".25"/></g><g class="i"><rect class="m" x="47.24" y="36.15" width="22.5" height=".25"/></g><g class="i"><polygon class="m" points="50.23 87.04 50.05 86.87 65.95 70.31 66.14 70.48 50.23 87.04"/></g><rect class="k" x="59.26" y="32.04" width=".5" height="38.12" transform="translate(-18.69 57.29) rotate(-45.17)"/><polygon class="l" points="45.19 64.54 72.43 63.63 73.3 36.28 45.19 36.28 45.19 64.54"/><path class="k" d="m45.19,64.79c-.06,0-.13-.02-.17-.07-.05-.05-.08-.11-.08-.18v-28.27c0-.14.11-.25.25-.25h28.12c.07,0,.13.03.18.08.05.05.07.11.07.18l-.88,27.35c0,.13-.11.24-.24.24l-27.24.91h0Zm.25-28.27v27.76l26.75-.9.86-26.86h-27.61Z"/><g class="i"><polygon class="m" points="66.62 58.78 50.72 42.22 50.9 42.04 66.81 58.6 66.62 58.78"/></g><rect class="k" x="45.19" y="64.42" width="28.12" height=".25"/><g class="i"><rect class="m" x="40.42" y="50.28" width="37.65" height=".25" transform="translate(-18.31 56.44) rotate(-44.84)"/></g><polyline class="g" points="45.88 33.29 44.94 30.81 47.43 29.86"/><path class="k" d="m71.15,62.95c-.05-.23-5.16-23.02-26.24-31.8l.29-.69c21.45,8.94,26.63,32.1,26.68,32.33l-.73.16Z"/><g class="i"><polygon class="m" points="92.43 91.24 92.38 84.92 92.63 84.92 92.68 91.23 92.43 91.24"/><path class="m" d="m91.65,85.89l-.19-.17.89-.99c.05-.05.13-.05.18,0l.99.89-.17.19-.9-.8-.8.9Z"/></g></g></g></svg>