<?xml version="1.0" encoding="utf-8"?>
<!-- Generator: Adobe Illustrator 27.7.0, SVG Export Plug-In . SVG Version: 6.00 Build 0)  -->
<svg version="1.1" id="Layer_1" xmlns="http://www.w3.org/2000/svg" xmlns:xlink="http://www.w3.org/1999/xlink" x="0px" y="0px"
	 viewBox="0 0 43 43" style="enable-background:new 0 0 43 43;" xml:space="preserve">
<style type="text/css">
	.st0{fill:#86A344;}
</style>
<path class="st0" d="M21.5,3.9c5.7,0,6.4,0,8.7,0.1c1.4,0,2.7,0.3,4,0.7c1.9,0.7,3.4,2.2,4.1,4.1c0.5,1.3,0.7,2.6,0.7,4
	c0.1,2.3,0.1,2.9,0.1,8.7s0,6.4-0.1,8.7c0,1.4-0.3,2.7-0.7,4c-0.7,1.9-2.2,3.4-4.1,4.1c-1.3,0.5-2.6,0.7-4,0.7
	c-2.3,0.1-2.9,0.1-8.7,0.1s-6.4,0-8.7-0.1c-1.4,0-2.7-0.3-4-0.7c-1.9-0.7-3.4-2.2-4.1-4.1c-0.5-1.3-0.7-2.6-0.7-4
	c-0.1-2.3-0.1-2.9-0.1-8.7s0-6.4,0.1-8.7c0-1.4,0.3-2.7,0.7-4c0.7-1.9,2.2-3.4,4.1-4.1c1.3-0.5,2.6-0.7,4-0.7
	C15.1,3.9,15.8,3.9,21.5,3.9 M21.5,0c-5.8,0-6.6,0-8.9,0.1c-1.8,0-3.5,0.4-5.2,1C4.5,2.2,2.2,4.5,1.1,7.4c-0.6,1.7-1,3.4-1,5.2
	C0,14.9,0,15.7,0,21.5s0,6.6,0.1,8.9c0,1.8,0.4,3.5,1,5.2c1.1,2.9,3.4,5.2,6.3,6.3c1.7,0.6,3.4,1,5.2,1c2.3,0.1,3,0.1,8.9,0.1
	s6.6,0,8.9-0.1c1.8,0,3.5-0.4,5.2-1c2.9-1.1,5.2-3.4,6.3-6.3c0.6-1.7,1-3.4,1-5.2c0.1-2.3,0.1-3,0.1-8.9s0-6.6-0.1-8.9
	c0-1.8-0.4-3.5-1-5.2c-1.1-2.9-3.4-5.2-6.3-6.3c-1.7-0.6-3.4-1-5.2-1C28.1,0,27.3,0,21.5,0L21.5,0L21.5,0z"/>
<path class="st0" d="M21.5,10C15.1,10,10,15.1,10,21.5S15.1,33,21.5,33S33,27.9,33,21.5l0,0C33,15.1,27.9,10,21.5,10z M21.5,29
	c-4.1,0-7.5-3.3-7.5-7.5s3.3-7.5,7.5-7.5s7.5,3.3,7.5,7.5v0C29,25.6,25.6,29,21.5,29z"/>
<circle class="st0" cx="33" cy="10" r="2.5"/>
</svg>
