<?xml version="1.0" encoding="utf-8"?>
<!-- Generator: Adobe Illustrator 27.7.0, SVG Export Plug-In . SVG Version: 6.00 Build 0)  -->
<svg version="1.1" id="f" xmlns="http://www.w3.org/2000/svg" xmlns:xlink="http://www.w3.org/1999/xlink" x="0px" y="0px"
	 viewBox="0 0 28.6 1.2" style="enable-background:new 0 0 28.6 1.2;" xml:space="preserve">
<style type="text/css">
	.st0{fill:#1D1D1B;}
</style>
<g>
	<path class="st0" d="M1.9,0.7H0.5c-0.1,0-0.2-0.1-0.2-0.2s0.1-0.2,0.2-0.2h1.4c0.1,0,0.2,0.1,0.2,0.2S2,0.7,1.9,0.7z"/>
	<path class="st0" d="M3.6,0.7H3.2C3.1,0.7,3,0.7,3,0.6s0.1-0.2,0.2-0.2h0.5c0.1,0,0.2,0.1,0.2,0.2S3.7,0.7,3.6,0.7z"/>
	<path class="st0" d="M25.4,0.8H25c-0.1,0-0.2-0.1-0.2-0.2s0.1-0.2,0.2-0.2h0.5c0.1,0,0.2,0.1,0.2,0.2S25.5,0.8,25.4,0.8z M23.7,0.8
		h-2.5c-0.1,0-0.2-0.1-0.2-0.2s0.1-0.2,0.2-0.2h2.5c0.1,0,0.2,0.1,0.2,0.2S23.8,0.8,23.7,0.8z M20,0.8h-0.5c-0.1,0-0.2-0.1-0.2-0.2
		s0.1-0.2,0.2-0.2H20c0.1,0,0.2,0.1,0.2,0.2S20.1,0.8,20,0.8z M18.3,0.8h-2.5c-0.1,0-0.2-0.1-0.2-0.2s0.1-0.2,0.2-0.2h2.5
		c0.1,0,0.2,0.1,0.2,0.2S18.4,0.8,18.3,0.8z M14.5,0.8h-0.5c-0.1,0-0.2-0.1-0.2-0.2s0.1-0.2,0.2-0.2h0.5c0.1,0,0.2,0.1,0.2,0.2
		S14.6,0.8,14.5,0.8z M12.8,0.8h-2.5c-0.1,0-0.2-0.1-0.2-0.2s0.1-0.2,0.2-0.2h2.5c0.1,0,0.2,0.1,0.2,0.2S12.9,0.8,12.8,0.8z
		 M9.1,0.8H8.6c-0.1,0-0.2-0.1-0.2-0.2s0.1-0.2,0.2-0.2h0.5c0.1,0,0.2,0.1,0.2,0.2S9.2,0.8,9.1,0.8z M7.4,0.8H4.9
		c-0.1,0-0.2-0.1-0.2-0.2s0.1-0.2,0.2-0.2h2.5c0.1,0,0.2,0.1,0.2,0.2S7.5,0.8,7.4,0.8z"/>
	<path class="st0" d="M28.1,0.8h-1.4c-0.1,0-0.2-0.1-0.2-0.2s0.1-0.2,0.2-0.2h1.4c0.1,0,0.2,0.1,0.2,0.2S28.2,0.8,28.1,0.8z"/>
</g>
</svg>
