<?xml version="1.0" encoding="UTF-8"?><svg id="f" xmlns="http://www.w3.org/2000/svg" width=".2in" height=".15in" viewBox="0 0 14.22 11.16"><defs><style>.g{fill:#fff;}.h{fill:#1d1d1b;}</style></defs><polygon class="g" points="8.05 2.93 .63 2.55 .63 8.46 8.05 8.09 8.05 10.47 13.57 5.51 8.05 .54 8.05 2.93"/><path class="h" d="m8.05,10.97c-.07,0-.14-.01-.2-.04-.18-.08-.3-.26-.3-.46v-1.86l-6.9.35c-.14,0-.27-.04-.37-.14-.1-.09-.16-.23-.16-.36V2.55c0-.14.06-.27.16-.36.1-.1.23-.14.37-.14l6.9.35V.54c0-.2.12-.38.3-.46s.39-.05.54.08l5.52,4.97c.11.09.17.23.17.37s-.06.28-.17.37l-5.52,4.97c-.09.08-.21.13-.33.13Zm0-3.39c.13,0,.25.05.34.14.1.09.16.23.16.36v1.27l4.27-3.84-4.27-3.84v1.27c0,.14-.06.27-.16.36-.1.09-.24.14-.37.14l-6.9-.35v4.86l6.9-.35s.02,0,.03,0Z"/></svg>