<?xml version="1.0" encoding="UTF-8"?><svg id="f" xmlns="http://www.w3.org/2000/svg" width=".16in" height=".16in" viewBox="0 0 11.54 11.54"><defs><style>.g{fill:none;stroke:#1d1d1b;stroke-linecap:round;stroke-linejoin:round;}.h{fill:#1d1d1b;}</style></defs><path class="h" d="m8.24,11.19l-.71-.71c1.76-1.77,1.76-4.64,0-6.4-1.76-1.76-4.64-1.77-6.4,0l-.71-.71c2.16-2.15,5.66-2.15,7.82,0,2.16,2.15,2.16,5.66,0,7.82Z"/><path class="h" d="m3.74,4.83s-.07,0-.1,0l-3.01-.6c-.27-.05-.45-.32-.39-.59L.84.62c.06-.27.33-.45.59-.39.27.05.45.32.39.59l-.5,2.52,2.52.5c.27.05.45.32.39.59-.05.24-.26.4-.49.4Z"/><polyline class="g" points="10.91 10.3 7.9 10.9 7.3 7.89"/></svg>