<?xml version="1.0" encoding="utf-8"?>
<!-- Generator: Adobe Illustrator 27.7.0, SVG Export Plug-In . SVG Version: 6.00 Build 0)  -->
<svg version="1.1" id="f" xmlns="http://www.w3.org/2000/svg" xmlns:xlink="http://www.w3.org/1999/xlink" x="0px" y="0px"
	 viewBox="0 0 28.9 1.1" style="enable-background:new 0 0 28.9 1.1;" xml:space="preserve">
<style type="text/css">
	.st0{fill:#1D1D1B;}
</style>
<g>
	<path class="st0" d="M2.7,0.7H0.7c-0.1,0-0.2-0.1-0.2-0.2s0.1-0.2,0.2-0.2h2.1c0.1,0,0.2,0.1,0.2,0.2S2.8,0.7,2.7,0.7z"/>
	<path class="st0" d="M24.8,0.8h-3.7C21,0.7,21,0.7,21,0.6s0.1-0.2,0.2-0.2h3.7c0.1,0,0.2,0.1,0.2,0.2S24.9,0.8,24.8,0.8z M19.3,0.7
		h-3.7c-0.1,0-0.2-0.1-0.2-0.2s0.1-0.2,0.2-0.2h3.7c0.1,0,0.2,0.1,0.2,0.2S19.4,0.7,19.3,0.7z M13.8,0.7h-3.7
		c-0.1,0-0.2-0.1-0.2-0.2s0.1-0.2,0.2-0.2h3.7c0.1,0,0.2,0.1,0.2,0.2S13.9,0.7,13.8,0.7z M8.2,0.7H4.5c-0.1,0-0.2-0.1-0.2-0.2
		s0.1-0.2,0.2-0.2h3.7c0.1,0,0.2,0.1,0.2,0.2S8.3,0.7,8.2,0.7z"/>
	<path class="st0" d="M28.2,0.8h-2.1c-0.1,0-0.2-0.1-0.2-0.2s0.1-0.2,0.2-0.2h2.1c0.1,0,0.2,0.1,0.2,0.2S28.3,0.8,28.2,0.8z"/>
</g>
</svg>
